<svg xmlns="http://www.w3.org/2000/svg" width="447" height="38" viewBox="0 0 447 38">
  <g id="nav_logo" transform="translate(-165 -19)">
    <text id="顧問系統" transform="translate(572 47)" fill="#fff" font-size="20" font-family="NotoSansCJKtc-Regular, Noto Sans CJK TC"><tspan x="-40" y="0">顧問系統</tspan></text>
    <line id="Line_22" data-name="Line 22" y2="25" transform="translate(522 25.5)" fill="none" stroke="#fff" stroke-width="1"/>
    <g id="nav_logo-2" data-name="nav_logo" transform="translate(140.633 -12.678)">
      <g id="logo" transform="translate(24.367 31.678)">
        <path id="Path_145" data-name="Path 145" d="M33.163,42.716c-1.757,6.313,3.872,13.113,10.51,13.048,1.887-.033,2.863,0,2.863,0L44.65,63.7c-13.894-.26-18.45-9.241-19.361-12.951-4.393-18.157,8.232-18.84,10.217-19,1.887-.163,6.833,0,6.833,0l2.733,7.679H41.461c-3.807,0-7.354-.2-8.3,3.286" transform="translate(-24.367 -31.678)" fill="#fff"/>
        <path id="Path_146" data-name="Path 146" d="M115.26,79.656h-4.425c-1.367,0-5.3.1-8.037-.781a13.191,13.191,0,0,1-6.313-4.881A16.785,16.785,0,0,1,94.4,63.028c1.2-7.321,6.8-6.573,8.07-6.573H115.26ZM104.034,62.7c-.976,0-2.18.39-2.115,3.124.1,5.141,2.636,6.671,5.629,7.452V62.7Z" transform="translate(-71.484 -48.378)" fill="#fff"/>
        <path id="Path_147" data-name="Path 147" d="M172.017,56.846A11.491,11.491,0,0,1,176.865,56v6.606c-1.562-.293-4.913.846-4.913,2.863V79.461H164.5v-23.4h7.517Z" transform="translate(-118.901 -48.086)" fill="#fff"/>
        <path id="Path_148" data-name="Path 148" d="M226.794,71.614s-1.692,4.393-2.375,6.475c-5.5-.358-9.567-.1-13.374-3.71a16.08,16.08,0,0,1-4.3-13.829,8.722,8.722,0,0,1,6.9-6.573c6.183-.879,14.545-.879,14.545,6.28,0,3.189-.716,7.191-8.623,10.738.423.423,4.653.911,7.224.618M214.657,66.05c5.6-2.44,6.54-5.792,3.612-5.955-2.571-.13-4.165.683-3.872,4.2a8.243,8.243,0,0,0,.26,1.757" transform="translate(-147.257 -46.454)" fill="#fff"/>
        <path id="Path_149" data-name="Path 149" d="M297.129,71.613s-1.692,4.393-2.375,6.475c-5.532-.358-9.567-.1-13.374-3.71a16.116,16.116,0,0,1-4.328-13.829,8.722,8.722,0,0,1,6.9-6.573c6.215-.879,14.545-.879,14.545,6.248,0,3.189-.716,7.191-8.623,10.771.488.39,4.718.911,7.256.618m-12.1-5.6c5.564-2.408,6.54-5.792,3.579-5.955-2.538-.13-4.2.683-3.872,4.2a8.966,8.966,0,0,0,.293,1.757" transform="translate(-194.684 -46.452)" fill="#fff"/>
        <path id="Path_150" data-name="Path 150" d="M355.417,56.546a11.49,11.49,0,0,1,4.848-.846v6.606c-1.529-.293-4.913.846-4.913,2.831V79.128H347.9V55.765h7.517Z" transform="translate(-242.624 -47.883)" fill="#fff"/>
        <path id="Path_151" data-name="Path 151" d="M414.811,63.117h-4.523V61.034h4.523ZM420.9,51.533a2.038,2.038,0,0,0,.1.879v6.8l-2.375-.033-.1.1v3.091l.1.13h.456l.065-.065,1.627-.065v.521a16.5,16.5,0,0,1-2.083,6.475,14.109,14.109,0,0,1-1.106-2.05l-.488-.781h-.521a6.56,6.56,0,0,0-1.952.879V67.7a9.273,9.273,0,0,0,1.594,3.417h.26l1.269-.423v.163a9.965,9.965,0,0,1-3.026,2.831v.293l2.148,2.571h.325l.488-.358a27.1,27.1,0,0,0,4.816-6.443v5.271c.033.716.553,1.106,1.594,1.2H426.3c2.668-.13,4.067-1.269,4.23-3.384v-1.66l-2.05-1.139h-.26l-.065.065c-.1,1.464-.651,2.31-1.594,2.506h-.391a.532.532,0,0,1-.358-.488V62.368h1.041l3.352.065.1-.1V59.212l-.1-.13h-.228l-1.2.163h-4.3V52.151l.1-.325v-.26l-.1-.065h-3.449Zm-10.087.163v2.375H405.83l-.13.13v2.961l.13.13a1.907,1.907,0,0,0,.944-.13h12.365l.1-.065V54.071l-.1-.1a2.242,2.242,0,0,0-.911.1h-3.97V52.183l.1-.26V51.7l-.1-.1h-3.352Zm6.41,6.443H406.937l-.1.1v7.647l.1.13h4.1v6.573l-.1.228a1.926,1.926,0,0,1-1.367.2c-.488-.033-.716.033-.651.13V73.3l.293.488.748,2.017c.065.651.2.944.358.879h.813c2.05-.456,3.156-1.4,3.352-2.831a6.566,6.566,0,0,0-.1-1.855V65.98h3.775l.1-.13V58.138l-.1-.13h-.456ZM406.058,71.089v.39l2.278,1.041h.553a18.566,18.566,0,0,0,1.594-4.621v-.39l-.13-.1-2.148-.618h-.521a22.469,22.469,0,0,1-1.627,4.3" transform="translate(-281.616 -45.05)" fill="#fff"/>
        <path id="Path_152" data-name="Path 152" d="M502.564,60.474H499.6l-.13-.163-.39-1.106v-.13h3.9c-.1.813-.26,1.3-.423,1.4M496.707,51.3v.26l.1.2v4.36H494.4v-.163l.163-.13a7.384,7.384,0,0,0,1.757-.911v-.39a17.328,17.328,0,0,0-1.822-2.961h-.521q-2.88.976-2.831,1.171v.163l.748.976a8.7,8.7,0,0,1,1.041,2.083v.163h-.2L489,56.081l-.1.065v2.961l.1.1h.163l1.5-.163h4.816l.423,1.367v.1h-.781l-4.3-.033-.1.13v2.6l.1.13h.358c.553,0,.748-.033.553-.065h7.614v.748h-3.579l-3.547-.065-.1.1v2.8l.1.1h.13c.553,0,.748,0,.553-.033h6.443v.716h-5.825l-4.067-.065-.13.13v2.668l.13.1a4.988,4.988,0,0,0,1.4-.1H495.7v.1l-.26.228a17.588,17.588,0,0,1-6.638,2.538v.228l.423.521,1.009,1.627c.26.553.423.813.521.781h.228l.163-.065a22.766,22.766,0,0,0,8.3-4.23v4.393l.13.1h3.482l.065-.1-.033-4.328.813.553a21.573,21.573,0,0,0,7.842,3.612h.358l.325-.2L513.79,73.2v-.26l-.163-.13c-3.319-.293-5.694-1.106-7.094-2.44h6.443l.1-.1v-2.7l-.1-.1-2.05.163h-7.842v-.716h7.126l.1-.13V64.021l-.1-.13a2.358,2.358,0,0,0-1.041.13h-6.085v-.748h8.233l.13-.1V60.539l-.13-.1h-.033l-1.074.1h-3.775v-.1l.033-.13a2.441,2.441,0,0,1,.456-1.237h3.026l3.189.065.163-.13v-2.9l-.163-.1a2.168,2.168,0,0,0-.944.1h-3.286l.163-.228,1.692-2.994V52.6a13.83,13.83,0,0,0-3.124-1.106h-.423l-.13.325a16.847,16.847,0,0,1-1.594,3.156v.293l.716.2c.976.2,1.432.325,1.4.456v.1l-.1.1h-2.375V55.072c-.065-2.506,0-3.775.163-3.775l-.163-.1h-3.189l-.1.1v4.816h-1.725v-2.05l.065-2.668c.163-.065-.163-.13-1.009-.2h-2.408Z" transform="translate(-337.676 -44.848)" fill="#fff"/>
        <path id="Path_153" data-name="Path 153" d="M584.431,51.33v.325l.033.033.065,1.432h-5.6l-.1.1v2.636l.1.1h.391c.553,0,.748-.033.553-.065h4.686v.781h-4.621l-.13.1v2.571l.13.1h4.621v.879h-3.514a5.876,5.876,0,0,1-2.115-.1v-.13c.456-.1.618-.2.586-.325v-.423a14.761,14.761,0,0,0-1.041-3.71h-.651l-1.594.325V51.623l-.1-.13c-.521.033-.748,0-.586-.1l-2.375-.065-.1.163a2.787,2.787,0,0,0,.1,1.106V76.288l.13.13h2.961l.065-.13a13.311,13.311,0,0,0-.065-2.148V58.521l.065.033c.065,1.106.2,1.757.39,1.887h.391l1.106-.293h.13v2.8l.13.13h.2c.553,0,.781-.033.586-.065h14.968l.1-.1V60.246l-.1-.1a2.748,2.748,0,0,0-1.074.1h-5.336v-.879H592.6l.1-.1V56.7l-.1-.1h-4.783v-.781h5.76l.1-.065V53.12l-.1-.1h-.293c-.586-.033-.748-.033-.553.065H587.88c-.065.2-.1-.065-.065-.846.065-.748,0-1.074-.228-.976l-1.66-.065h-1.367Zm-14.578,4.979a28.109,28.109,0,0,1-.553,7.224l.033.065a7.219,7.219,0,0,1,2.44.651h.391l.228-.228a26.954,26.954,0,0,0,.553-7.647l-.065-.065a19.589,19.589,0,0,0-2.929-.163Zm9.99,7.484-.1.1V76.255l.1.1h2.863l.1-.1V66.461h6.833v5.727c-.456.748-.976.976-1.594.748-.488-.033-.683,0-.618.1v.423l.488,1.4c.228,1.106.423,1.594.618,1.5h1.855l.163-.065c1.334-.586,2.017-1.334,2.083-2.245V63.825l-.1-.1h-.553c-.586-.033-.749-.033-.553.065Z" transform="translate(-391.982 -44.848)" fill="#fff"/>
        <path id="Path_154" data-name="Path 154" d="M661.038,63.732H659.9l-.1-.228-.26-2.115h1.952a6,6,0,0,1-.456,2.343M658.6,51.6v.293l.065.065.065,1.822h-3.677l-.13.1a9.7,9.7,0,0,1,.13,2.18c-.033.521,0,.781.1.716h3.579v1.66H654.5l-.1.1v2.8l.1.1h1.432l.521.065a6.248,6.248,0,0,0,.39,2.017v.228h-2.278l-.1.1V66.5l.1.1h.1l.911-.1h3.547v1.855H658.3l-2.8-.033-.1.13v2.6l.1.13h3.612v5.4l.1.1,3.026-.065.13-.1v-.163l-.13-1.2v-3.97h3.449l.1-.13V68.483l-.1-.1h-3.449V66.531h3.97l.13-.1V63.863l-.13-.1h-1.4c-.553,0-.716-.033-.586-.033v-.1l.065-.065.391-2.05c-.228-.065.065-.1.813-.1.521.033.748.033.683-.1v-2.9l-.065-.13h-.488l-.065.065-3.677.065v-1.66h3.449l.13-.13v-2.9l-.13-.065h-.683l-2.8.065v-1.4l.1-.358v-.358l-.1-.1L658.7,51.4Zm17.734.228h-9.794l-.1.13v.1a1.94,1.94,0,0,0,.163,1.009V76.39l.1.13h3.059l.1-.13V73.852c0-.065.13.065.456.423a8.67,8.67,0,0,1,1.074,1.692h.293a13.032,13.032,0,0,0,2.7-2.05h.065a16.457,16.457,0,0,0,2.733,2.245h.293a11.33,11.33,0,0,1,1.92-2.994v-.163a10.58,10.58,0,0,1-3.091-2.017l.1-.163a21.525,21.525,0,0,0,1.757-8.721c-.39-.553-.651-.781-.748-.683a6.272,6.272,0,0,0-1.074.1h-6.443V54.947h4.523v1.66c-.032.618-.228.944-.488.976l-1.725.033c-.488-.033-.716,0-.618.13v.293l.716,1.4q.439,1.415.586,1.367h1.009a4.7,4.7,0,0,0,1.5-.293c1.529-.521,2.31-1.4,2.31-2.668v-6.02l-.1-.1h-.618Zm-2.31,15.717-.781-1.4a6.666,6.666,0,0,0-.456-1.562h-.846l-.13.065c-1.2.325-1.822.553-1.757.683v.39l.1.325a22.117,22.117,0,0,0,1.887,5.174v.2a5.87,5.87,0,0,1-2.05,1.66h-.163v-8.59h4.848a7.384,7.384,0,0,1-.651,3.059" transform="translate(-449.39 -44.982)" fill="#fff"/>
      </g>
      <path id="Path_155" data-name="Path 155" d="M468.008,61.5a2.83,2.83,0,1,0-2.408-2.8,2.637,2.637,0,0,0,2.408,2.8" transform="translate(-297.658 -16.34)" fill="#fff"/>
      <path id="Path_156" data-name="Path 156" d="M616.508,105.6a2.83,2.83,0,1,0-2.408-2.8,2.636,2.636,0,0,0,2.408,2.8" transform="translate(-397.837 -46.091)" fill="#fff"/>
    </g>
    <text id="職涯門診" transform="translate(461 49)" fill="#fff" font-size="26" font-family="NotoSansCJKtc-Medium, Noto Sans CJK TC" font-weight="500"><tspan x="-52" y="0">職涯門診</tspan></text>
  </g>
</svg>
