<svg xmlns="http://www.w3.org/2000/svg" width="306" height="25" viewBox="0 0 306 25">
  <g id="nav_logo-m" transform="translate(-175.812 -18.417)">
    <text id="職涯門診" transform="translate(372 38.417)" fill="#fff" font-size="17" font-family="NotoSansCJKtc-Medium, Noto Sans CJK TC" font-weight="500"><tspan x="-34" y="0">職涯門診</tspan></text>
    <g id="logo_career-w" transform="translate(175.812 20.267)">
      <g id="logo" transform="translate(0 0)">
        <path id="Path_145" data-name="Path 145" d="M29.991,38.735c-1.123,4.036,2.476,8.384,6.719,8.342,1.207-.021,1.831,0,1.831,0l-1.207,5.076c-8.883-.166-11.8-5.908-12.378-8.28-2.808-11.608,5.263-12.045,6.532-12.149,1.207-.1,4.369,0,4.369,0l1.747,4.91H35.3c-2.434,0-4.7-.125-5.3,2.1" transform="translate(-24.367 -31.678)" fill="#fff"/>
        <path id="Path_146" data-name="Path 146" d="M107.668,71.28h-2.829a18.476,18.476,0,0,1-5.138-.5,8.433,8.433,0,0,1-4.036-3.12,10.731,10.731,0,0,1-1.331-7.011c.77-4.681,4.348-4.2,5.159-4.2h8.176Zm-7.177-10.838c-.624,0-1.394.25-1.352,2,.062,3.287,1.685,4.265,3.6,4.764V60.442Z" transform="translate(-79.681 -51.284)" fill="#fff"/>
        <path id="Path_147" data-name="Path 147" d="M169.306,56.541a7.346,7.346,0,0,1,3.1-.541v4.223c-1-.187-3.141.541-3.141,1.831V71H164.5V56.042h4.806Z" transform="translate(-135.348 -50.94)" fill="#fff"/>
        <path id="Path_148" data-name="Path 148" d="M219.486,65.11s-1.082,2.808-1.519,4.14c-3.516-.229-6.116-.062-8.55-2.372a10.281,10.281,0,0,1-2.746-8.841,5.576,5.576,0,0,1,4.41-4.2c3.953-.562,9.3-.562,9.3,4.015,0,2.039-.458,4.6-5.513,6.865a12.037,12.037,0,0,0,4.618.4m-7.76-3.557c3.578-1.56,4.181-3.7,2.309-3.807-1.643-.083-2.663.437-2.476,2.684a5.265,5.265,0,0,0,.166,1.123" transform="translate(-168.636 -49.024)" fill="#fff"/>
        <path id="Path_149" data-name="Path 149" d="M289.81,65.108s-1.082,2.808-1.519,4.14c-3.537-.229-6.116-.062-8.55-2.372a10.3,10.3,0,0,1-2.767-8.841,5.577,5.577,0,0,1,4.41-4.2c3.973-.562,9.3-.562,9.3,3.994,0,2.039-.458,4.6-5.513,6.886a12.779,12.779,0,0,0,4.639.4m-7.739-3.578c3.557-1.539,4.181-3.7,2.288-3.807-1.623-.083-2.684.437-2.476,2.684a5.731,5.731,0,0,0,.187,1.123" transform="translate(-224.315 -49.023)" fill="#fff"/>
        <path id="Path_150" data-name="Path 150" d="M352.706,56.241a7.346,7.346,0,0,1,3.1-.541v4.223c-.978-.187-3.141.541-3.141,1.81v8.945H347.9V55.742h4.806Z" transform="translate(-280.595 -50.703)" fill="#fff"/>
        <path id="Path_151" data-name="Path 151" d="M411.525,58.927h-2.892V57.6h2.892Zm3.89-7.406a1.3,1.3,0,0,0,.062.562V56.43l-1.519-.021-.062.062v1.976l.062.083h.291l.042-.042,1.04-.042v.333A10.552,10.552,0,0,1,414,62.921a9.018,9.018,0,0,1-.707-1.311l-.312-.5h-.333a4.193,4.193,0,0,0-1.248.562v.187a5.93,5.93,0,0,0,1.019,2.184h.166l.811-.27v.1a6.371,6.371,0,0,1-1.935,1.81v.187l1.373,1.643h.208l.312-.229a17.326,17.326,0,0,0,3.079-4.119v3.37c.021.458.354.707,1.019.77h1.415c1.706-.083,2.6-.811,2.7-2.164V64.086l-1.311-.728H420.1l-.042.042c-.062.936-.416,1.477-1.019,1.6h-.25a.34.34,0,0,1-.229-.312V58.448h.666l2.143.042.062-.062v-2l-.062-.083h-.146l-.77.1H417.7V51.916l.062-.208v-.166L417.7,51.5H415.5Zm-6.449.1v1.519h-3.183l-.083.083V55.12l.083.083a1.219,1.219,0,0,0,.6-.083h7.905l.062-.042V53.143l-.062-.062a1.434,1.434,0,0,0-.582.062h-2.538V51.937l.062-.166v-.146l-.062-.062h-2.143Zm4.1,4.119h-6.574l-.062.062v4.889l.062.083h2.621v4.2l-.062.146a1.231,1.231,0,0,1-.874.125c-.312-.021-.458.021-.416.083v.1l.187.312.478,1.29c.042.416.125.6.229.562h.52c1.311-.291,2.018-.895,2.143-1.81a4.2,4.2,0,0,0-.063-1.186V60.757h2.413l.062-.083v-4.93l-.062-.083h-.291Zm-7.136,8.28v.25l1.456.666h.354a11.871,11.871,0,0,0,1.019-2.954v-.25l-.083-.062-1.373-.4h-.333a14.357,14.357,0,0,1-1.04,2.746" transform="translate(-326.371 -47.376)" fill="#fff"/>
        <path id="Path_152" data-name="Path 152" d="M497.6,57.129h-1.893l-.083-.1-.25-.707v-.083h2.5c-.062.52-.167.832-.271.895m-3.745-5.866v.166l.062.125v2.788h-1.54v-.1l.1-.083a4.722,4.722,0,0,0,1.123-.582v-.25a11.081,11.081,0,0,0-1.165-1.893h-.333a5.778,5.778,0,0,0-1.81.749v.1l.478.624a5.57,5.57,0,0,1,.666,1.331v.1h-.125l-2.392-.021-.062.042v1.893l.062.062h.1l.957-.1h3.079l.271.874v.062h-.5l-2.746-.021-.062.083v1.664l.062.083h.229c.354,0,.478-.021.354-.042h4.868V59.4h-2.288l-2.267-.042-.063.062v1.789l.063.062h.083c.354,0,.479,0,.354-.021h4.119v.458h-3.724l-2.6-.042-.083.083v1.706l.083.062a3.189,3.189,0,0,0,.895-.062h3.1v.062l-.166.146a11.243,11.243,0,0,1-4.244,1.623v.146l.27.333.645,1.04c.166.354.271.52.333.5h.146l.1-.042a14.554,14.554,0,0,0,5.3-2.7v2.808l.083.062h2.226l.042-.062-.021-2.767.52.354a13.793,13.793,0,0,0,5.013,2.309h.229l.208-.125.874-1.872V65.1l-.1-.083a7.491,7.491,0,0,1-4.535-1.56h4.119l.062-.062V61.664l-.062-.062-1.311.1h-5.014v-.458h4.556l.062-.083V59.4l-.062-.083a1.508,1.508,0,0,0-.666.083h-3.89v-.478H503.2l.083-.062V57.171l-.083-.062h-.021l-.687.062h-2.413v-.062l.021-.083a1.561,1.561,0,0,1,.291-.791h1.935l2.039.042.1-.083V54.341l-.1-.062a1.385,1.385,0,0,0-.6.062h-2.1l.1-.146,1.082-1.914v-.187a8.841,8.841,0,0,0-2-.707h-.27l-.083.208a10.763,10.763,0,0,1-1.019,2.018V53.8l.458.125c.624.125.915.208.894.291v.062l-.062.062h-1.519v-.666a6.913,6.913,0,0,1,.1-2.413l-.1-.062H497.2l-.062.062v3.079h-1.1V53.031l.042-1.706c.1-.042-.1-.083-.645-.125H493.9Z" transform="translate(-392.183 -47.139)" fill="#fff"/>
        <path id="Path_153" data-name="Path 153" d="M578.974,51.283v.208l.021.021.042.915h-3.578l-.062.062v1.685l.062.062h.25c.354,0,.478-.021.354-.042h3v.5H576.1l-.083.062V56.4l.083.062h2.954v.562H576.81a3.757,3.757,0,0,1-1.352-.062v-.083c.291-.062.4-.125.374-.208V56.4a9.433,9.433,0,0,0-.666-2.372h-.416l-1.019.208V51.47l-.062-.083c-.333.021-.479,0-.374-.062l-1.519-.042-.062.1a1.784,1.784,0,0,0,.062.707V67.239l.083.083h1.893l.042-.083a8.526,8.526,0,0,0-.042-1.373V55.881l.042.021c.042.707.125,1.123.25,1.207h.25l.707-.187h.083V58.71l.083.083h.125c.354,0,.5-.021.374-.042h9.57l.063-.062V56.983l-.063-.062a1.758,1.758,0,0,0-.687.062h-3.412v-.562H584.2l.062-.062V54.716l-.062-.062h-3.058v-.5h3.682l.062-.042V52.427l-.062-.062h-.187c-.375-.021-.478-.021-.354.042h-3.1c-.042.125-.062-.042-.042-.541.042-.478,0-.687-.146-.624l-1.061-.042h-.874Zm-9.32,3.183a17.968,17.968,0,0,1-.354,4.618l.021.042a4.615,4.615,0,0,1,1.56.416h.25l.146-.146a17.236,17.236,0,0,0,.353-4.889l-.042-.042a12.522,12.522,0,0,0-1.872-.1Zm6.387,4.785-.062.062v7.905l.063.062h1.831l.062-.062V60.957H582.3v3.661c-.291.478-.624.624-1.019.478-.312-.021-.437,0-.4.062v.27l.312.895c.146.707.271,1.019.4.957h1.186l.1-.042c.853-.374,1.29-.853,1.331-1.435V59.272l-.062-.062H583.8c-.374-.021-.478-.021-.354.042Z" transform="translate(-455.937 -47.139)" fill="#fff"/>
        <path id="Path_154" data-name="Path 154" d="M658.644,59.284h-.728l-.062-.146-.166-1.352h1.248a3.834,3.834,0,0,1-.291,1.5m-1.56-7.76v.187l.042.042.042,1.165h-2.351l-.083.062a6.2,6.2,0,0,1,.083,1.394c-.021.333,0,.5.062.458h2.288v1.061h-2.7l-.062.062v1.789l.063.062h.915l.333.042a3.99,3.99,0,0,0,.25,1.29v.146H654.5l-.062.062v1.706l.062.062h.063l.582-.062h2.267v1.186h-.52l-1.789-.021-.062.083v1.664l.063.083h2.309V67.5l.062.062,1.935-.042.083-.062v-.1l-.083-.77V64.048h2.205l.062-.083V62.322l-.062-.062h-2.205V61.073h2.538l.083-.062V59.368l-.083-.062h-.895c-.354,0-.458-.021-.374-.021v-.062l.042-.042.25-1.311c-.146-.042.042-.062.52-.062.333.021.478.021.437-.062V55.893l-.042-.083h-.312l-.042.042-2.351.042V54.833h2.205l.083-.083V52.9l-.083-.042h-.437l-1.789.042V52l.062-.229v-.229l-.062-.062-2.018-.083Zm11.338.146H662.16l-.062.083v.062a1.239,1.239,0,0,0,.1.645V67.377l.062.083h1.956l.062-.083V65.754c0-.042.083.042.291.27a5.542,5.542,0,0,1,.686,1.082h.187a8.343,8.343,0,0,0,1.727-1.311h.041a10.52,10.52,0,0,0,1.747,1.435h.187a7.243,7.243,0,0,1,1.227-1.914v-.1a6.767,6.767,0,0,1-1.977-1.29l.063-.1a13.762,13.762,0,0,0,1.123-5.575c-.25-.354-.416-.5-.478-.437a4.011,4.011,0,0,0-.687.062H664.3v-4.2h2.892v1.061c-.021.4-.146.6-.312.624l-1.1.021c-.312-.021-.458,0-.4.083v.187l.458.895q.281.9.375.874h.645a3.009,3.009,0,0,0,.957-.187c.978-.333,1.477-.895,1.477-1.706V51.67l-.062-.062h-.4Zm-1.477,10.048-.5-.895a4.257,4.257,0,0,0-.291-1h-.541l-.083.042c-.77.208-1.165.354-1.123.437v.25l.062.208a14.137,14.137,0,0,0,1.207,3.308v.125a3.754,3.754,0,0,1-1.311,1.061h-.1V59.763h3.1a4.72,4.72,0,0,1-.416,1.955" transform="translate(-523.333 -47.297)" fill="#fff"/>
      </g>
      <path id="Path_155" data-name="Path 155" d="M467.139,59.478a1.809,1.809,0,1,0-1.539-1.789,1.686,1.686,0,0,0,1.539,1.789" transform="translate(-373.81 -50.861)" fill="#fff"/>
      <path id="Path_156" data-name="Path 156" d="M615.639,103.578a1.809,1.809,0,1,0-1.539-1.789,1.685,1.685,0,0,0,1.539,1.789" transform="translate(-491.417 -85.787)" fill="#fff"/>
    </g>
    <text id="顧問系統" transform="translate(451.812 37.417)" fill="#fff" font-size="15" font-family="NotoSansTC-Regular, Noto Sans TC"><tspan x="-30" y="0">顧問系統</tspan></text>
    <line id="Line_22" data-name="Line 22" y2="16" transform="translate(413.812 22.917)" fill="none" stroke="#fff" stroke-width="1"/>
  </g>
</svg>
