<?xml version="1.0" encoding="utf-8"?>
<!-- Generator: Adobe Illustrator 23.1.0, SVG Export Plug-In . SVG Version: 6.00 Build 0)  -->
<svg version="1.1" id="圖層_1" xmlns="http://www.w3.org/2000/svg" xmlns:xlink="http://www.w3.org/1999/xlink" x="0px" y="0px"
	 viewBox="0 0 24 18.9" style="enable-background:new 0 0 24 18.9;" xml:space="preserve">
<style type="text/css">
	.st0{fill:#DB4954;}
</style>
<path class="st0" d="M24,6.1v10.6c0,1.2-1,2.1-2.1,2.1H2.1c-1.2,0-2.1-1-2.1-2.1V6.1c0.4,0.4,0.9,0.8,1.4,1.2c2.2,1.5,4.5,3,6.7,4.6
	c1.1,0.8,2.5,1.8,4,1.8h0c1.5,0,2.9-1,4-1.8c2.2-1.6,4.4-3.1,6.7-4.6C23.1,6.9,23.6,6.5,24,6.1z M24,2.1c-0.1,1.5-1,2.9-2.3,3.7
	c-2.1,1.4-4.2,2.9-6.3,4.4C14.6,10.8,13.1,12,12,12h0c-1.1,0-2.6-1.2-3.4-1.8C6.5,8.7,4.4,7.3,2.3,5.8C1.4,5.2,0,3.7,0,2.4
	C-0.1,1.2,0.7,0.2,1.9,0C2,0,2.1,0,2.1,0h19.7C23,0,24,1,24,2.1L24,2.1z"/>
</svg>
