<svg id="圖層_1" data-name="圖層 1" xmlns="http://www.w3.org/2000/svg" viewBox="0 0 24.02 18.86"><defs><style>.cls-1{fill:#fff;}</style></defs><title>envelope-w</title><path class="cls-1" d="M24,6.08V16.71a2.15,2.15,0,0,1-2.14,2.15H2.14A2.15,2.15,0,0,1,0,16.71V6.08A7.93,7.93,0,0,0,1.35,7.25c2.23,1.51,4.48,3,6.66,4.62,1.12.83,2.52,1.84,4,1.84h0c1.46,0,2.86-1,4-1.84,2.18-1.58,4.43-3.11,6.67-4.62A7.87,7.87,0,0,0,24,6.08Zm0-3.94a4.81,4.81,0,0,1-2.29,3.67l-6.27,4.35C14.57,10.77,13.1,12,12,12h0c-1.09,0-2.56-1.23-3.43-1.83C6.48,8.7,4.38,7.26,2.3,5.81,1.35,5.17,0,3.66,0,2.44A2.17,2.17,0,0,1,1.89,0l.25,0H21.86A2.16,2.16,0,0,1,24,2.14Z" transform="translate(0.02 0)"/></svg>