<svg xmlns="http://www.w3.org/2000/svg" width="24" height="18.857" viewBox="0 0 24 18.857"><defs><style>.a{fill:#333;}</style></defs><path class="a" d="M24,10.08V20.713a2.149,2.149,0,0,1-2.143,2.143H2.143A2.149,2.149,0,0,1,0,20.713V10.08a7.464,7.464,0,0,0,1.352,1.165c2.223,1.514,4.473,3.026,6.656,4.621,1.125.831,2.518,1.848,3.978,1.848h.027c1.46,0,2.852-1.018,3.978-1.848,2.183-1.58,4.433-3.107,6.669-4.621A7.952,7.952,0,0,0,24,10.08Zm0-3.937a4.835,4.835,0,0,1-2.29,3.669c-2.09,1.446-4.192,2.893-6.268,4.352C14.569,14.767,13.1,16,12.012,16h-.027c-1.085,0-2.558-1.232-3.428-1.835C6.481,12.7,4.379,11.258,2.3,9.812,1.352,9.169,0,7.655,0,6.437A2.171,2.171,0,0,1,2.142,4H21.855A2.158,2.158,0,0,1,24,6.142Z" transform="translate(0.001 -3.999)"/></svg>