<svg xmlns="http://www.w3.org/2000/svg" width="229.812" height="32" viewBox="0 0 229.812 32"><defs><style>.a{fill:#c4102e;}.b{fill:#0b4da2;}</style></defs><g transform="translate(-24.367 -31.678)"><g transform="translate(24.367 31.678)"><path class="a" d="M33.156,42.707c-1.756,6.308,3.869,13.1,10.5,13.038,1.886-.033,2.861,0,2.861,0l-1.886,7.933c-13.883-.26-18.435-9.234-19.345-12.94C20.9,32.6,33.514,31.913,35.5,31.75c1.886-.163,6.828,0,6.828,0l2.731,7.673H41.447c-3.8,0-7.348-.2-8.291,3.284" transform="translate(-24.367 -31.678)"/><path class="a" d="M115.243,79.637h-4.422c-1.366,0-5.3.1-8.031-.78a13.18,13.18,0,0,1-6.308-4.877A16.772,16.772,0,0,1,94.4,63.023c1.2-7.315,6.8-6.568,8.063-6.568h12.778ZM104.026,62.7c-.975,0-2.178.39-2.113,3.121.1,5.137,2.634,6.665,5.625,7.445V62.7Z" transform="translate(-71.503 -48.385)"/><path class="a" d="M172.01,56.845A11.481,11.481,0,0,1,176.855,56v6.6c-1.561-.293-4.909.845-4.909,2.861V79.442H164.5V56.065h7.51Z" transform="translate(-118.939 -48.092)"/><path class="a" d="M226.777,71.6s-1.691,4.389-2.373,6.47c-5.495-.358-9.559-.1-13.363-3.706a16.067,16.067,0,0,1-4.292-13.818,8.715,8.715,0,0,1,6.893-6.568c6.177-.878,14.533-.878,14.533,6.275,0,3.186-.715,7.185-8.616,10.729.423.423,4.649.91,7.218.618m-12.127-5.56c5.592-2.438,6.535-5.787,3.609-5.95-2.569-.13-4.162.683-3.869,4.194a8.238,8.238,0,0,0,.26,1.756" transform="translate(-147.305 -46.459)"/><path class="a" d="M297.113,71.6s-1.691,4.389-2.373,6.47c-5.527-.358-9.559-.1-13.363-3.706a16.1,16.1,0,0,1-4.324-13.818,8.715,8.715,0,0,1,6.893-6.568c6.21-.878,14.533-.878,14.533,6.242,0,3.186-.715,7.185-8.616,10.762.488.39,4.714.91,7.25.618m-12.095-5.592c5.56-2.406,6.535-5.787,3.576-5.95-2.536-.13-4.194.683-3.869,4.194a8.956,8.956,0,0,0,.293,1.756" transform="translate(-194.751 -46.458)"/><path class="a" d="M355.41,56.545a11.481,11.481,0,0,1,4.844-.845v6.6c-1.528-.293-4.909.845-4.909,2.829V79.109H347.9V55.765h7.51Z" transform="translate(-242.71 -47.89)"/><path class="b" d="M414.8,63.107h-4.519V61.026H414.8Zm6.08-11.575a2.037,2.037,0,0,0,.1.878v6.8l-2.373-.033-.1.1v3.089l.1.13h.455l.065-.065,1.626-.065v.52a16.489,16.489,0,0,1-2.081,6.47,14.092,14.092,0,0,1-1.105-2.048l-.488-.78h-.52a6.556,6.556,0,0,0-1.951.878v.293a9.266,9.266,0,0,0,1.593,3.414h.26l1.268-.423v.163a9.957,9.957,0,0,1-3.024,2.829v.293l2.146,2.569h.325l.488-.358a27.08,27.08,0,0,0,4.812-6.438v5.267c.033.715.553,1.105,1.593,1.2h2.211c2.666-.13,4.064-1.268,4.227-3.381V71.17l-2.048-1.138h-.26l-.065.065c-.1,1.463-.65,2.308-1.593,2.5h-.39a.531.531,0,0,1-.358-.488V62.359h1.04l3.349.065.1-.1V59.206l-.1-.13h-.228l-1.2.163H424.46V52.15l.1-.325v-.26l-.1-.065h-3.446ZM410.8,51.7v2.373H405.83l-.13.13v2.959l.13.13a1.9,1.9,0,0,0,.943-.13h12.355l.1-.065V54.069l-.1-.1a2.241,2.241,0,0,0-.91.1h-3.967V52.183l.1-.26V51.7l-.1-.1H410.9Zm6.405,6.438H406.936l-.1.1v7.641l.1.13h4.1v6.568l-.1.228a1.924,1.924,0,0,1-1.366.2c-.488-.033-.715.033-.65.13v.163l.293.488.748,2.016c.065.65.2.943.358.878h.813c2.048-.455,3.154-1.4,3.349-2.829a6.562,6.562,0,0,0-.1-1.853V65.968h3.772l.1-.13V58.133l-.1-.13H417.7Zm-11.152,12.94v.39l2.276,1.04h.553a18.55,18.55,0,0,0,1.593-4.617V67.5l-.13-.1-2.146-.618h-.52a22.449,22.449,0,0,1-1.626,4.292" transform="translate(-281.718 -45.055)"/><path class="b" d="M502.553,60.466h-2.959l-.13-.163-.39-1.105v-.13h3.9c-.1.813-.26,1.3-.423,1.4M496.7,51.3v.26l.1.2v4.357h-2.406v-.163l.163-.13a7.375,7.375,0,0,0,1.756-.91v-.39a17.311,17.311,0,0,0-1.821-2.959h-.52q-2.877.975-2.829,1.17v.163l.748.975a8.7,8.7,0,0,1,1.04,2.081v.163h-.2L489,56.077l-.1.065V59.1l.1.1h.163l1.5-.163h4.812l.423,1.366v.1h-.78l-4.292-.033-.1.13v2.6l.1.13h.358c.553,0,.748-.033.553-.065h7.608v.748h-3.576l-3.544-.065-.1.1v2.8l.1.1h.13c.553,0,.748,0,.553-.033h6.438v.715h-5.82l-4.064-.065-.13.13V70.35l.13.1a4.984,4.984,0,0,0,1.4-.1h4.844v.1l-.26.228a17.573,17.573,0,0,1-6.633,2.536v.228l.423.52,1.008,1.626c.26.553.423.813.52.78h.228l.163-.065a22.747,22.747,0,0,0,8.291-4.227v4.389l.13.1h3.479l.065-.1-.032-4.324.813.553a21.555,21.555,0,0,0,7.836,3.609h.358l.325-.2,1.365-2.926v-.26l-.163-.13c-3.316-.293-5.69-1.105-7.088-2.438h6.438l.1-.1v-2.7l-.1-.1-2.048.163h-7.836V66.9h7.12l.1-.13V64.01l-.1-.13a2.356,2.356,0,0,0-1.04.13h-6.08v-.748H511.3l.13-.1V60.531l-.13-.1h-.033l-1.073.1h-3.772v-.1l.033-.13a2.44,2.44,0,0,1,.455-1.235h3.024l3.186.065.162-.13V56.109l-.162-.1a2.166,2.166,0,0,0-.943.1h-3.284l.163-.228,1.691-2.991V52.6a13.817,13.817,0,0,0-3.121-1.105H507.2l-.13.325a16.834,16.834,0,0,1-1.593,3.154v.293l.715.2c.975.2,1.431.325,1.4.455v.1l-.1.1h-2.373v-1.04c-.065-2.5,0-3.772.162-3.772l-.162-.1h-3.186l-.1.1v4.812h-1.723V54.061l.065-2.666c.163-.065-.163-.13-1.008-.2h-2.406Z" transform="translate(-337.799 -44.853)"/><path class="b" d="M584.419,51.33v.325l.032.033.065,1.431h-5.592l-.1.1v2.634l.1.1h.39c.553,0,.748-.033.553-.065h4.682v.78h-4.617l-.13.1v2.569l.13.1h4.617V60.3h-3.511a5.871,5.871,0,0,1-2.113-.1v-.13c.455-.1.618-.2.585-.325v-.423a14.749,14.749,0,0,0-1.04-3.706h-.65l-1.593.325V51.623l-.1-.13c-.52.033-.748,0-.585-.1l-2.373-.065-.1.163a2.783,2.783,0,0,0,.1,1.105V76.267l.13.13h2.959l.065-.13a13.3,13.3,0,0,0-.065-2.146V58.515l.065.033c.065,1.105.2,1.756.39,1.886h.39l1.105-.293h.13v2.8l.13.13h.2c.553,0,.78-.033.585-.065H594.2l.1-.1V60.239l-.1-.1a2.746,2.746,0,0,0-1.073.1H587.8v-.878h4.779l.1-.1V56.695l-.1-.1H587.8v-.78h5.755l.1-.065V53.118l-.1-.1h-.293c-.585-.033-.748-.033-.553.065h-4.844c-.065.2-.1-.065-.065-.845.065-.748,0-1.073-.228-.975l-1.658-.065h-1.365ZM569.853,56.3a28.089,28.089,0,0,1-.553,7.218l.033.065a7.214,7.214,0,0,1,2.438.65h.39l.228-.228a26.934,26.934,0,0,0,.553-7.641l-.065-.065a19.573,19.573,0,0,0-2.926-.163Zm9.982,7.478-.1.1V76.235l.1.1H582.7l.1-.1V66.449h6.828v5.722c-.455.748-.975.975-1.593.748-.488-.033-.683,0-.618.1v.423l.488,1.4c.228,1.105.423,1.593.618,1.5h1.853l.163-.065c1.333-.585,2.016-1.333,2.081-2.243V63.815l-.1-.1h-.553c-.585-.033-.748-.033-.553.065Z" transform="translate(-392.126 -44.853)"/><path class="b" d="M661.033,63.722h-1.138l-.1-.228-.26-2.113h1.951a5.993,5.993,0,0,1-.455,2.341M658.594,51.6v.293l.065.065.065,1.821H655.05l-.13.1a9.7,9.7,0,0,1,.13,2.178c-.032.52,0,.78.1.715h3.576v1.658H654.5l-.1.1v2.8l.1.1h1.431l.52.065a6.243,6.243,0,0,0,.39,2.016v.228h-2.276l-.1.1v2.666l.1.1h.1l.91-.1h3.544v1.853H658.3l-2.8-.033-.1.13v2.6l.1.13h3.609v5.4l.1.1,3.024-.065.13-.1v-.163l-.13-1.2V71.168h3.446l.1-.13V68.469l-.1-.1h-3.446V66.518H666.2l.13-.1V63.852l-.13-.1h-1.4c-.553,0-.715-.033-.585-.033v-.1l.065-.065.39-2.048c-.228-.065.065-.1.813-.1.52.033.748.033.683-.1V58.423l-.065-.13h-.488l-.065.065-3.674.065V56.765h3.446l.13-.13V53.741l-.13-.065h-.683l-2.8.065v-1.4l.1-.358v-.358l-.1-.1-3.154-.13Zm17.719.228h-9.786l-.1.13v.1a1.939,1.939,0,0,0,.163,1.008V76.37l.1.13h3.056l.1-.13V73.834c0-.065.13.065.455.423a8.666,8.666,0,0,1,1.073,1.691h.293a13.019,13.019,0,0,0,2.7-2.048h.065a16.443,16.443,0,0,0,2.731,2.243h.293a11.321,11.321,0,0,1,1.918-2.991v-.163a10.572,10.572,0,0,1-3.089-2.016l.1-.163a21.507,21.507,0,0,0,1.756-8.713c-.39-.553-.65-.78-.748-.683a6.267,6.267,0,0,0-1.073.1h-6.438V54.944H674.4V56.6c-.032.618-.228.943-.488.975l-1.723.033c-.488-.033-.715,0-.618.13v.293l.715,1.4q.439,1.414.585,1.366h1.008a4.7,4.7,0,0,0,1.5-.293c1.528-.52,2.308-1.4,2.308-2.666V51.823l-.1-.1h-.618Zm-2.308,15.7-.78-1.4a6.658,6.658,0,0,0-.455-1.561h-.845l-.13.065c-1.2.325-1.821.553-1.756.683v.39l.1.325a22.1,22.1,0,0,0,1.886,5.17v.2a5.866,5.866,0,0,1-2.048,1.658h-.163V64.47h4.844a7.379,7.379,0,0,1-.65,3.056" transform="translate(-449.558 -44.988)"/></g><path class="b" d="M468.006,61.492a2.828,2.828,0,1,0-2.406-2.8,2.634,2.634,0,0,0,2.406,2.8" transform="translate(-297.775 -16.347)"/><path class="b" d="M616.506,105.592a2.828,2.828,0,1,0-2.406-2.8,2.633,2.633,0,0,0,2.406,2.8" transform="translate(-397.993 -46.109)"/></g></svg>