<svg id="icon-user" xmlns="http://www.w3.org/2000/svg" width="65" height="70" viewBox="0 0 65 70">
  <rect id="Rectangle_173" data-name="Rectangle 173" width="65" height="70" fill="none"/>
  <g id="Group_344" data-name="Group 344" transform="translate(-6 -3)">
    <path id="Path_387" data-name="Path 387" d="M52,38.5a13.5,13.5,0,1,0-26.2,4.593.625.625,0,1,0,1.175-.425A12.255,12.255,0,1,1,47.7,46.588c-.171.195-.353.389-.54.576A12.267,12.267,0,0,1,33.73,49.787q-.274-.115-.54-.243a12.18,12.18,0,0,1-3.354-2.381q-.08-.08-.16-.163l.16-.163A12.251,12.251,0,0,1,44.379,44.75a.625.625,0,1,0,.6-1.1,13.5,13.5,0,0,0-16.027,2.3c-.2.2-.4.417-.595.634a.625.625,0,0,0,0,.826c.191.217.392.431.595.634a13.5,13.5,0,0,0,19.094,0c.206-.206.406-.419.595-.634h0A13.471,13.471,0,0,0,52,38.5Z" fill="#fff" stroke="#fff" stroke-width="1"/>
    <path id="Path_388" data-name="Path 388" d="M82.444,54.243a4.938,4.938,0,1,0-4.938,4.938A4.943,4.943,0,0,0,82.444,54.243Zm-8.625,0a3.688,3.688,0,1,1,3.688,3.688A3.692,3.692,0,0,1,73.819,54.243Z" transform="translate(-39.007 -19.93)" fill="#fff" stroke="#fff" stroke-width="1"/>
  </g>
</svg>
