<svg xmlns="http://www.w3.org/2000/svg" width="120" height="146.556" viewBox="0 0 120 146.556">
  <g id="icon_PDF" transform="translate(-51.3 -6)">
    <path id="Path_381" data-name="Path 381" d="M170.509,38.887,137.827,6.7a2.419,2.419,0,0,0-1.7-.7H75.833c-9.116,0-16.5,7.8-16.5,17.411v64.25H51.3v43.556h8.031v3.928c0,9.585,7.416,17.411,16.5,17.411H154.8c9.116,0,16.5-7.8,16.5-17.411V40.792A2.613,2.613,0,0,0,170.509,38.887Zm-35.2-27.494,28.432,28.021H148.261a12.855,12.855,0,0,1-12.956-12.721Zm31.011,123.752c0,6.712-5.159,12.164-11.519,12.164H75.833c-6.361,0-11.519-5.452-11.519-12.164v-3.928h54.812c10.7,0,19.345-9.761,19.345-21.778S129.8,87.661,119.126,87.661H64.314V23.411c0-6.712,5.159-12.164,11.519-12.164h54.49V26.694a17.963,17.963,0,0,0,17.938,17.968h18.056Zm-99.6-14.714V98.447H75.13a8.02,8.02,0,0,1,5.686,1.876,6.473,6.473,0,0,1,2.052,4.954,6.331,6.331,0,0,1-2.052,4.954,8.257,8.257,0,0,1-5.686,1.876H70.382v8.324H66.718Zm20.606,0V98.447h7.269a9.283,9.283,0,0,1,6.8,2.609A9.01,9.01,0,0,1,104,107.768v3.341a9.078,9.078,0,0,1-2.609,6.712,9.283,9.283,0,0,1-6.8,2.609H87.323ZM121.5,108.12v2.931h-8.852v9.38h-3.693V98.447h14.069v2.931H112.619v6.712H121.5Z" transform="translate(0)" fill="#ed1c24"/>
    <path id="Path_382" data-name="Path 382" d="M124.226,338.154a3.908,3.908,0,0,0,1.026-2.755,3.7,3.7,0,0,0-4.1-3.9H116.4v7.767h4.748A4.145,4.145,0,0,0,124.226,338.154Z" transform="translate(-46.018 -230.092)" fill="#ed1c24"/>
    <path id="Path_383" data-name="Path 383" d="M190.305,331.5H186.7v16.121h3.605a5.226,5.226,0,0,0,4.191-1.788,6.829,6.829,0,0,0,1.553-4.6v-3.371a6.8,6.8,0,0,0-1.553-4.573A5.226,5.226,0,0,0,190.305,331.5Z" transform="translate(-95.713 -230.092)" fill="#ed1c24"/>
  </g>
</svg>
