<svg id="icon_Calendar" xmlns="http://www.w3.org/2000/svg" width="16" height="16" viewBox="0 0 16 16">
  <path id="icon_Calendar-2" data-name="icon_Calendar" d="M15.609,21H2.391A1.559,1.559,0,0,1,1,19.316V6.684A1.559,1.559,0,0,1,2.391,5H15.609A1.559,1.559,0,0,1,17,6.684V19.316A1.559,1.559,0,0,1,15.609,21Zm.7-14.316a.78.78,0,0,0-.7-.842H2.391a.78.78,0,0,0-.7.842V9.211H16.3Zm0,3.368H1.7v9.263a.78.78,0,0,0,.7.842H15.609a.78.78,0,0,0,.7-.842Zm-1.391,5.895h-.7a.39.39,0,0,1-.348-.421v-.842a.39.39,0,0,1,.348-.421h.7a.39.39,0,0,1,.348.421v.842A.389.389,0,0,1,14.913,15.947Zm0-2.947h-.7a.39.39,0,0,1-.348-.421v-.842a.39.39,0,0,1,.348-.421h.7a.389.389,0,0,1,.348.421v.842A.389.389,0,0,1,14.913,13ZM12.13,15.947h-.7a.39.39,0,0,1-.348-.421v-.842a.39.39,0,0,1,.348-.421h.7a.39.39,0,0,1,.348.421v.842A.389.389,0,0,1,12.13,15.947Zm0-2.947h-.7a.39.39,0,0,1-.348-.421v-.842a.39.39,0,0,1,.348-.421h.7a.389.389,0,0,1,.348.421v.842A.389.389,0,0,1,12.13,13ZM9.348,15.947h-.7a.389.389,0,0,1-.348-.421v-.842a.39.39,0,0,1,.348-.421h.7a.39.39,0,0,1,.348.421v.842A.389.389,0,0,1,9.348,15.947Zm0-2.947h-.7a.389.389,0,0,1-.348-.421v-.842a.389.389,0,0,1,.348-.421h.7a.389.389,0,0,1,.348.421v.842A.389.389,0,0,1,9.348,13ZM6.565,18.895h-.7a.389.389,0,0,1-.348-.421v-.842a.389.389,0,0,1,.348-.421h.7a.389.389,0,0,1,.348.421v.842A.389.389,0,0,1,6.565,18.895Zm0-2.947h-.7a.389.389,0,0,1-.348-.421v-.842a.39.39,0,0,1,.348-.421h.7a.39.39,0,0,1,.348.421v.842A.389.389,0,0,1,6.565,15.947Zm0-2.947h-.7a.389.389,0,0,1-.348-.421v-.842a.389.389,0,0,1,.348-.421h.7a.389.389,0,0,1,.348.421v.842A.389.389,0,0,1,6.565,13ZM3.783,18.895h-.7a.389.389,0,0,1-.348-.421v-.842a.389.389,0,0,1,.348-.421h.7a.389.389,0,0,1,.348.421v.842A.389.389,0,0,1,3.783,18.895Zm0-2.947h-.7a.389.389,0,0,1-.348-.421v-.842a.39.39,0,0,1,.348-.421h.7a.39.39,0,0,1,.348.421v.842A.389.389,0,0,1,3.783,15.947Zm4.87,1.263h.7a.389.389,0,0,1,.348.421v.842a.389.389,0,0,1-.348.421h-.7a.389.389,0,0,1-.348-.421v-.842A.389.389,0,0,1,8.652,17.211Z" transform="translate(-1 -5)" fill="#ec0086" fill-rule="evenodd"/>
</svg>
