<svg xmlns="http://www.w3.org/2000/svg" width="20.198" height="24" viewBox="0 0 20.198 24"><defs><style>.a{fill:#ec0086;}</style></defs><g transform="translate(-4.997 -2.927)"><path class="a" d="M22.237,5.885A10.1,10.1,0,0,0,7.955,20.167l3.763,3.763a.922.922,0,1,0,1.3-1.3L9.259,18.863a8.261,8.261,0,1,1,11.675,0l-6.489,6.489a.922.922,0,1,0,1.3,1.3l6.489-6.489a10.1,10.1,0,0,0,0-14.282Z"/><path class="a" d="M21,14a5,5,0,1,0-5,5,5,5,0,0,0,5-5Zm-8,0a3,3,0,1,1,3,3,3,3,0,0,1-3-3Z" transform="translate(-0.904 -0.808)"/></g></svg>