<svg xmlns="http://www.w3.org/2000/svg" xmlns:xlink="http://www.w3.org/1999/xlink" width="23.701" height="23.701" viewBox="0 0 23.701 23.701"><defs><style>.a{fill:url(#a);}.b{fill:url(#b);}.c{fill:url(#c);}</style><linearGradient id="a" x1="0.5" y1="0.008" x2="0.5" y2="0.998" gradientUnits="objectBoundingBox"><stop offset="0" stop-color="#e09b3d"/><stop offset="0.3" stop-color="#c74c4d"/><stop offset="0.6" stop-color="#c21975"/><stop offset="1" stop-color="#7024c4"/></linearGradient><linearGradient id="b" y1="-0.451" y2="1.462" xlink:href="#a"/><linearGradient id="c" y1="-1.396" y2="6.586" xlink:href="#a"/></defs><path class="a" d="M16.64,0H7.061A7.069,7.069,0,0,0,0,7.061v9.58A7.069,7.069,0,0,0,7.061,23.7h9.58A7.069,7.069,0,0,0,23.7,16.64V7.061A7.069,7.069,0,0,0,16.64,0Zm4.676,16.64a4.676,4.676,0,0,1-4.676,4.676H7.061A4.676,4.676,0,0,1,2.384,16.64V7.061A4.676,4.676,0,0,1,7.061,2.384h9.58a4.676,4.676,0,0,1,4.676,4.676v9.58Z"/><path class="b" d="M139.13,133a6.13,6.13,0,1,0,6.13,6.13A6.137,6.137,0,0,0,139.13,133Zm0,9.875a3.746,3.746,0,1,1,3.746-3.746A3.746,3.746,0,0,1,139.13,142.875Z" transform="translate(-127.279 -127.279)"/><circle class="c" cx="1.469" cy="1.469" r="1.469" transform="translate(16.523 4.298)"/></svg>