<svg xmlns="http://www.w3.org/2000/svg" width="24" height="24" viewBox="0 0 24 24"><defs><style>.a{fill:#00b300;}.b{fill:#fff;}</style></defs><g transform="translate(-500 -1451)"><rect class="a" width="24" height="24" rx="2" transform="translate(500 1451)"/><path class="b" d="M14.524,7.731a.473.473,0,0,1,0,.946H13.208v.844h1.316a.472.472,0,1,1,0,.944H12.735a.473.473,0,0,1-.47-.472V6.415a.474.474,0,0,1,.473-.473h1.789a.473.473,0,0,1,0,.945H13.208v.844ZM11.633,9.993a.472.472,0,0,1-.324.447.482.482,0,0,1-.149.023.465.465,0,0,1-.383-.187L8.945,7.788V9.993a.471.471,0,1,1-.943,0V6.415a.47.47,0,0,1,.322-.446.431.431,0,0,1,.146-.025.485.485,0,0,1,.371.191l1.847,2.5V6.416a.473.473,0,1,1,.945,0Zm-4.306,0a.472.472,0,1,1-.943,0V6.415a.472.472,0,1,1,.943,0Zm-1.85.472H3.688a.475.475,0,0,1-.473-.472V6.415a.473.473,0,1,1,.945,0V9.521H5.477a.472.472,0,0,1,0,.944ZM18,8.069C18,4.041,13.962.763,9,.763S0,4.041,0,8.069c0,3.609,3.2,6.631,7.526,7.206.293.061.692.194.794.443a1.837,1.837,0,0,1,.029.81l-.123.765c-.034.226-.18.889.787.484a29.017,29.017,0,0,0,7.077-5.231A6.467,6.467,0,0,0,18,8.07Z" transform="translate(503 1453.666)"/></g></svg>