<svg id="圖層_1" data-name="圖層 1" xmlns="http://www.w3.org/2000/svg" viewBox="0 0 22 22"><defs><style>.cls-1{fill:#fff;}</style></defs><title>phone-w</title><path class="cls-1" d="M22,17.37a7.1,7.1,0,0,1-.48,2.18,4.2,4.2,0,0,1-1.91,1.65,6,6,0,0,1-2.91.8,12.09,12.09,0,0,1-4.09-1.08,14.33,14.33,0,0,1-2.74-1.3,26.52,26.52,0,0,1-7.5-7.5,14.54,14.54,0,0,1-1.3-2.73A12.13,12.13,0,0,1,0,5.3,6,6,0,0,1,.8,2.39,4.2,4.2,0,0,1,2.45.48,7.1,7.1,0,0,1,4.62,0,.72.72,0,0,1,5,.05c.33.1.67.87.83,1.18.5.9,1,1.8,1.5,2.68.25.4.72.9.72,1.39,0,1-2.83,2.34-2.83,3.19a3.4,3.4,0,0,0,.61,1.34,15.49,15.49,0,0,0,6.39,6.39,3.4,3.4,0,0,0,1.34.61c.85,0,2.24-2.83,3.19-2.83.48,0,1,.47,1.39.72.88.51,1.78,1,2.67,1.5.32.15,1.08.5,1.19.83a.86.86,0,0,1,.05.32Z" transform="translate(0 0)"/></svg>