<svg xmlns="http://www.w3.org/2000/svg" width="22.001" height="21.999" viewBox="0 0 22.001 21.999"><defs><style>.a{fill:#333;}</style></defs><path class="a" d="M22,19.375a6.968,6.968,0,0,1-.484,2.172A4.11,4.11,0,0,1,19.61,23.2,5.971,5.971,0,0,1,16.7,24a12.045,12.045,0,0,1-4.094-1.078,14.627,14.627,0,0,1-2.734-1.3,26.394,26.394,0,0,1-7.5-7.5,14.627,14.627,0,0,1-1.3-2.734A12.045,12.045,0,0,1,0,7.3,5.971,5.971,0,0,1,.8,4.391,4.121,4.121,0,0,1,2.454,2.485,6.962,6.962,0,0,1,4.626,2a.8.8,0,0,1,.328.047c.328.109.672.875.828,1.188.5.891.984,1.8,1.5,2.672C7.532,6.314,8,6.814,8,7.3c0,.953-2.828,2.344-2.828,3.187a3.369,3.369,0,0,0,.609,1.344,15.545,15.545,0,0,0,6.391,6.391,3.355,3.355,0,0,0,1.344.609C14.361,18.83,15.751,16,16.7,16c.484,0,.984.469,1.391.719.875.516,1.781,1,2.672,1.5.313.156,1.078.5,1.188.828a.8.8,0,0,1,.047.328Z" transform="translate(-0.001 -2.001)"/></svg>