<svg id="圖層_1" data-name="圖層 1" xmlns="http://www.w3.org/2000/svg" viewBox="0 0 28 19.69"><defs><style>.cls-1{fill:#fff;stroke:#000;stroke-miterlimit:10;}.cls-2{fill:#c4102e;}</style></defs><title>youtube-play-w</title><rect class="cls-1" x="7.88" y="5.61" width="10.79" height="7.86"/><path class="cls-2" d="M11.11,13.47l7.56-3.91L11.11,5.61ZM14,0c5.89,0,9.8.28,9.8.28a4,4,0,0,1,2.81,1.19,4.9,4.9,0,0,1,1.11,2.78A38.12,38.12,0,0,1,28,8.78v2.13a38.25,38.25,0,0,1-.28,4.53,5,5,0,0,1-1.11,2.78,4,4,0,0,1-2.81,1.17s-3.91.3-9.8.3h0c-7.28-.06-9.52-.28-9.52-.28a4.7,4.7,0,0,1-3.09-1.19A5,5,0,0,1,.28,15.44,38.25,38.25,0,0,1,0,10.91V8.78A38.12,38.12,0,0,1,.28,4.25,4.9,4.9,0,0,1,1.39,1.47,4,4,0,0,1,4.2.28S8.11,0,14,0Z" transform="translate(0 0)"/></svg>