<svg xmlns="http://www.w3.org/2000/svg" width="27.999" height="19.687" viewBox="0 0 27.999 19.687"><defs><style>.a{fill:#c4102e;}</style></defs><path class="a" d="M11.109,17.625l7.562-3.906L11.109,9.766v7.859ZM14,4.156c5.891,0,9.8.281,9.8.281a3.963,3.963,0,0,1,2.812,1.188,4.917,4.917,0,0,1,1.109,2.781A37.786,37.786,0,0,1,28,12.937v2.125a37.776,37.776,0,0,1-.281,4.531,4.99,4.99,0,0,1-1.109,2.781A4,4,0,0,1,23.8,23.546s-3.906.3-9.8.3h0c-7.281-.063-9.516-.281-9.516-.281A4.722,4.722,0,0,1,1.39,22.374,4.99,4.99,0,0,1,.281,19.593,37.786,37.786,0,0,1,0,15.062V12.937A37.776,37.776,0,0,1,.281,8.406,4.917,4.917,0,0,1,1.39,5.625,3.965,3.965,0,0,1,4.2,4.437s3.906-.281,9.8-.281h0Z" transform="translate(0 -4.156)"/></svg>