<svg xmlns="http://www.w3.org/2000/svg" xmlns:xlink="http://www.w3.org/1999/xlink" width="32" height="32" viewBox="0 0 32 32"><defs><style>.a,.c{fill:#fff;}.a{stroke:#ec0086;}.b{clip-path:url(#a);}</style><clipPath id="a"><circle class="a" cx="16" cy="16" r="16" transform="translate(643 2451)"/></clipPath></defs><g class="b" transform="translate(675 2483) rotate(180)"><path class="c" d="M25.414,16a.759.759,0,0,1-.8.75H9.36l5.893,5.744a.815.815,0,0,1,.017,1.144.8.8,0,0,1-.574.249.793.793,0,0,1-.557-.223L6.83,16.573a.8.8,0,0,1,0-1.147l7.308-7.093a.8.8,0,0,1,1.131.017.831.831,0,0,1-.017,1.156L9.36,15.25H24.614A.759.759,0,0,1,25.414,16ZM32,16A16,16,0,1,0,16,32,16.018,16.018,0,0,0,32,16Zm-1.6,0A14.4,14.4,0,1,1,16,1.6,14.416,14.416,0,0,1,30.4,16Z" transform="translate(643 2451)"/></g></svg>