<svg xmlns="http://www.w3.org/2000/svg" xmlns:xlink="http://www.w3.org/1999/xlink" width="1229.89" height="614.888" viewBox="0 0 1229.89 614.888"><defs><style>.a{fill:url(#a);}.b,.p{fill:none;stroke-miterlimit:10;}.b{stroke:#e4e4e4;stroke-width:4px;stroke-dasharray:32.088 32.088;}.c{fill:rgba(245,243,242,0.5);}.d{fill:#f9b384;}.e,.j{fill:#1f3c88;}.f,.l{fill:#e28b6d;}.g,.h{fill:#102048;}.h,.l,.r{opacity:0.6;}.i{fill:#fff;}.j,.p{opacity:0.3;}.k{fill:#708cd5;}.m,.r{fill:#6f3428;}.n{fill:#ee6f57;}.o{fill:#fbc343;}.p{stroke:#6f3428;stroke-width:8px;}.q{fill:#fc8879;opacity:0.4;}.s{fill:url(#d);}.t,.u{fill:rgba(51,51,51,0.2);}.t{font-size:48px;font-family:SegoeUI-Bold, Segoe UI;font-weight:700;}.u{font-size:20px;font-family:YuGothicUI-Regular, Yu Gothic UI;}.v{filter:url(#b);}</style><linearGradient id="a" x1="0.5" x2="0.5" y2="1" gradientUnits="objectBoundingBox"><stop offset="0" stop-color="#d7107b"/><stop offset="1" stop-color="#cc4951"/></linearGradient><filter id="b" x="0" y="65.999" width="1140" height="350" filterUnits="userSpaceOnUse"><feOffset dx="5" dy="5" input="SourceAlpha"/><feGaussianBlur stdDeviation="5" result="c"/><feFlood flood-opacity="0.161"/><feComposite operator="in" in2="c"/><feComposite in="SourceGraphic"/></filter><linearGradient id="d" x1="0.5" x2="0.5" y2="1" gradientUnits="objectBoundingBox"><stop offset="0" stop-color="#ec0086"/><stop offset="1" stop-color="#db4954"/></linearGradient></defs><g transform="translate(10)"><g transform="translate(-165 -1421.001)"><g class="v" transform="matrix(1, 0, 0, 1, 155, 1421)"><path class="a" d="M1033,320h-8V8H845V0h188V312h77v8ZM95,320V184H265V138h8v54H103V320ZM0,320v-8H95v8ZM273,146v-8H457V92h8v54Zm192-46V92H647V46h8v54ZM655,54V46H837V0h8V54Z" transform="translate(10 76)"/></g></g><g transform="translate(768.507 205.903)"><g transform="translate(0 201.948)"><path class="b" d="M257.768,1267.131c-23.711,42.431,10.6,125.682,228.2,67.824,109.1-29.009,190.6,36.34,207.392-9.274,39.118-106.249-120.634-229.155-209.469-143.348C402.694,1260.765,300.924,1189.9,257.768,1267.131Z" transform="translate(-251.32 -1153.493)"/><path class="c" d="M275.41,1413.97H719.1c-13.886-102.589-107.9-181.943-221.843-181.943S289.3,1311.38,275.41,1413.97Z" transform="translate(-267.713 -1206.933)"/></g><g transform="translate(120.192 0)"><g transform="translate(0 33.922)"><path class="d" d="M646.942,665.8c4.329-.819,8.376-8.052,9.782-10.826a3.443,3.443,0,0,0,.312-2.2l-1.723-9.132s-3.976.676-3.668,5.97a3.9,3.9,0,0,1-.277,1.612l-1.522,3.982-4.5-3.483,2.467-6.967s3.3.907,5.008.363c3.5-1.117-1.089-3.846-2.54-4.137s-4.645-1.452-6.1,1.016-2.322,3.919-2.322,3.919-1.6-5.515-.508-17.853c.049-.555-1.342-.543-1.733-.146-1.169,1.189-3.031,4.81-3.13,15.822,0,0-.195-12.832-2.395-14.152-1.814-1.089-2.731,5.192-1.453,15.842,0,0-2.369-9.222-4.063-9.238-2.86-.028-.037,24.629,7.152,31.978Z" transform="translate(-627.48 -627.631)"/><path class="d" d="M645.91,735.28q.192,1.841.422,3.566v.013a103.588,103.588,0,0,0,1.892,10.877c.038.153.064.294.1.435,2.185,8.959,2.582,13.343,10.046,12.167l7.681-8.742.077-.089.562-.639-1.559-4.6-.2-.6-1.15-3.349-.141-.435-1.968-5.764-.792-2.339Z" transform="translate(-640.021 -700.884)"/></g><g transform="translate(55.543 370.499)"><path class="e" d="M1053.777,1731.542l1.955,6.111c13.407,4.4,21.227,9.45,21.728,15.337h-38.769l-3.108-20.461A30.069,30.069,0,0,0,1053.777,1731.542Z" transform="translate(-960.727 -1715.392)"/><path class="d" d="M1044.648,1684l4.861,15.191a30.071,30.071,0,0,1-18.194.987l-2-13.2Z" transform="translate(-956.459 -1683.042)"/><path class="d" d="M867.448,1696.473,866.31,1681l18.213.958,1,14.263A29.8,29.8,0,0,1,867.448,1696.473Z" transform="translate(-845.541 -1681)"/><path class="e" d="M801.31,1751.015c.5-5.886,7.349-13.952,22.367-15.869l-.46-6.255a29.8,29.8,0,0,0,18.07-.251l1.561,22.375Z" transform="translate(-801.31 -1713.417)"/></g><path class="d" d="M916.07,689.077l21.97.153V656H916.734l-.013,2.032-.1,10.531-.153,16.909Z" transform="translate(-823.858 -613.014)"/><path class="f" d="M917.79,677.892c3.949,4.154,14.251-.537,18.6-5.112l-18.494-5.419Z" transform="translate(-825.029 -620.744)"/><path class="d" d="M901.824,584.857a47.522,47.522,0,0,0,.575,7.477c1.073,6.7,3.911,12.487,10.455,12.666,15.465.447,19.874-8.4,22.788-15.631s-1.815-24.667-1.815-24.667l-20.015-1.981-10.992,9.011A82.006,82.006,0,0,0,901.824,584.857Z" transform="translate(-814.162 -549.539)"/><path class="g" d="M915.358,557.154s-4.412-.2-5.166-11.591c-7.889,2.64-13.655.233-18.223-5.021-3.9,5.148-14.808,6.759-18.493-3.78-2.663-7.615,4.687-18.958,15.391-12.089,10.49-5.3,26.4-4.936,30.981,8.065,0,0,15.917,7.339-.937,23.5A19.506,19.506,0,0,1,915.358,557.154Z" transform="translate(-794.502 -521.467)"/><path class="g" d="M815.3,1133.3l12.144,183.631h28.544l-7.136-178.188-4.367-2.024Z" transform="translate(-755.289 -937.805)"/><path class="e" d="M886.477,1025.633,906.5,1234.389H875.4l-29.609-173.4-33.656-10.225-1.491-37.065,74.982-1.7Z" transform="translate(-752.118 -855.263)"/><path class="h" d="M895.325,1011.1c-16.988,6.1-56.842-.871-65.118-9.365l5.88-11.76,65.554,8.711Z" transform="translate(-765.431 -840.278)"/><path class="i" d="M834.99,817.234c.55.23,1.112.473,1.687.69a115.362,115.362,0,0,0,21.293,6.339,97.7,97.7,0,0,0,14.276,1.751,82.488,82.488,0,0,0,22.418-1.815l-9.522-88.777L883.98,724.6s-12.462,15.337-26.2-1.6Z" transform="translate(-768.686 -658.605)"/><path class="j" d="M945.465,842.006a82.5,82.5,0,0,0,22.418-1.815l-9.522-88.777-3.4-4.914C946.565,766.924,937.963,812.15,945.465,842.006Z" transform="translate(-841.904 -674.597)"/><path class="k" d="M966.641,717c-9.467,40.2-13.363,81.559.586,127.49,10.344,3.935,21.605,3.89,33.656.426l-2.982-83.5,70.189,48.248,4.26-26.307C1045.369,757.556,998.72,718.581,966.641,717Z" transform="translate(-852.466 -654.523)"/><path class="j" d="M840.27,858.753a115.393,115.393,0,0,0,21.293,6.339c4.231-24.258,5.164-64.11,1.725-82.092Z" transform="translate(-772.278 -699.434)"/><path class="l" d="M653.15,768.054c.038.153.064.294.1.435,2.186,8.96,2.582,13.343,10.046,12.167l7.682-8.742.077-.089-1-5.24-.2-.6-1.15-3.349-.141-.434Z" transform="translate(-644.948 -685.28)"/><path class="k" d="M657.31,744.417s18.852,39.941,30.035,40.9c10.841.929,15.976-9.586,15.976-9.586L695.653,834.1a48.941,48.941,0,0,0,30.253,4.256c10.135-32.911,13.966-75.465,14.721-122.857-8.205.511-24.456,1.212-30.275,4.953-10.438,6.71-23.325,30.674-23.325,30.674l-15.018-20.45Z" transform="translate(-647.779 -653.502)"/><g transform="translate(181.332 16.402)"><path class="m" d="M1357.55,591.037s-1.141-19.107-3.086-18.205-5.844,17.515-5.844,17.515l4.17,6.729Z" transform="translate(-1299.531 -572.801)"/><path class="n" d="M1195.634,1709.667l-.565,6.289a20.183,20.183,0,0,0,18.294,21.906l1.616.145a20.182,20.182,0,0,0,21.906-18.294l.565-6.288Z" transform="translate(-1194.987 -1346.411)"/><rect class="o" width="305.721" height="41.986" transform="translate(0.647 363.257) rotate(-84.866)"/><rect class="p" width="14.911" height="267.975" transform="translate(32.911 322.102) rotate(-174.866)"/><path class="g" d="M1197.03,1609.6l41.806,3.758,1.1-12.27.767-8.525,2.364-26.2-41.819-3.758-2.352,26.2-.767,8.525Z" transform="translate(-1196.377 -1246.335)"/><rect class="o" width="8.559" height="41.975" transform="translate(1.752 350.991) rotate(-84.864)"/><path class="n" d="M1324.457,666.718l-11.616-46.552s-4.01,1.778-8.873-1.225l-21.332,44.02Z" transform="translate(-1254.63 -604.198)"/></g><path class="d" d="M992.2,622.667c.187-.686,3.308-1.63,4-1.82a4.788,4.788,0,0,1,3.26.03c3.774,1.7,3.269,7.109,1.314,9.949a8.51,8.51,0,0,1-4.615,3.387c-.685.2-7.178.274-6.893-.769Z" transform="translate(-873.656 -588.907)"/><path class="d" d="M1367.582,958.349a5.683,5.683,0,0,1,7.262-3.752c4.757,1.642,8.9,4.429,9.542,9.17.584,4.317-1.575,18.107-11.219,19.878l.787-7.085s-5.9-1.378-7.085-3.936C1366.043,970.832,1365.988,963.352,1367.582,958.349Z" transform="translate(-1130.229 -815.991)"/><path class="e" d="M801.46,818.576c-.507,3.018-.939,6.044-1.353,9.073s-.769,6.064-1.158,9.1l-.991,9.115c-.289,3.043-.571,6.087-.759,9.142l.5.058c.523-3.016.95-6.043,1.371-9.07l1.139-9.1c.321-3.04.691-6.073.972-9.117s.574-6.087.777-9.14Z" transform="translate(-742.97 -723.643)"/><path class="e" d="M1079.529,816.987c.007,3.389.089,6.774.19,10.159s.26,6.766.386,10.149l.554,10.141c.227,3.378.459,6.757.788,10.13l.5-.024c.009-3.39-.078-6.775-.171-10.159l-.4-10.148c-.194-3.38-.339-6.762-.573-10.141s-.456-6.757-.769-10.131Z" transform="translate(-935.088 -722.545)"/><path class="g" d="M949.777,622.181a2.009,2.009,0,0,0,1.109,2.541c.883.2,1.817-.619,2.087-1.825a2.009,2.009,0,0,0-1.109-2.541C950.982,620.159,950.047,620.976,949.777,622.181Z" transform="translate(-846.745 -588.739)"/><path class="g" d="M910.058,616.558c.052,1.234.827,2.2,1.731,2.165s1.594-1.07,1.541-2.3-.827-2.2-1.731-2.165S910.006,615.324,910.058,616.558Z" transform="translate(-819.766 -584.605)"/><path class="f" d="M922.991,624.635a28.965,28.965,0,0,0-.651,3.061,2.4,2.4,0,0,1-.619,1.062,4.028,4.028,0,0,1-1.2.59,3.339,3.339,0,0,0-1.514,1.141,1.984,1.984,0,0,0-.155,2.092,3.944,3.944,0,0,0,1.249,1.263c.439.3.86.61,1.316.887l.328-.377c-.335-.414-.7-.789-1.057-1.184a3.73,3.73,0,0,1-.825-1.076c-.271-.591.308-1.238,1.147-1.572a4.459,4.459,0,0,0,1.558-.885,3.118,3.118,0,0,0,.82-1.69c.211-1.185-.03-2.2.084-3.182Z" transform="translate(-825.595 -591.67)"/><path class="g" d="M952.724,609.9a3.72,3.72,0,0,0-1.3-1.992,3.971,3.971,0,0,0-2.317-.867,4.287,4.287,0,0,0-4.03,2.264l.391.311a5.489,5.489,0,0,1,3.577-1.3,4.178,4.178,0,0,1,3.23,1.8Z" transform="translate(-843.594 -579.691)"/><path class="g" d="M914.516,605.662a3.849,3.849,0,0,0-1-1.615,3.343,3.343,0,0,0-1.814-.9,3.182,3.182,0,0,0-3.389,1.691l.4.3a4.051,4.051,0,0,1,2.8-.732,3.59,3.59,0,0,1,1.335.488,8.8,8.8,0,0,1,1.24,1.02Z" transform="translate(-818.577 -577.021)"/><path class="i" d="M933.885,663.373c-2.231,3.493-5.2,3.873-7.5.2Z" transform="translate(-830.876 -618.031)"/><path class="q" d="M901.643,629.333a58.923,58.923,0,0,0,.635,8.329,3.849,3.849,0,0,0,2.671-3.668C904.949,632.064,903.471,629.627,901.643,629.333Z" transform="translate(-814.041 -594.867)"/><circle class="q" cx="4.122" cy="4.122" r="4.122" transform="translate(104.335 37.288)"/><path class="f" d="M1006.085,633.635a20.534,20.534,0,0,1,2.3-1.517,2.011,2.011,0,0,1,1.016-.264,2.277,2.277,0,0,1,1.063.488l.42-.272a1.988,1.988,0,0,0-1.214-1.306,2.373,2.373,0,0,0-1.849.214,4.787,4.787,0,0,0-2.138,2.355Z" transform="translate(-884.841 -595.769)"/><path class="r" d="M1368.08,1011.674l5.932,18.024,1.225-14.086A12.3,12.3,0,0,1,1368.08,1011.674Z" transform="translate(-1131.44 -855.041)"/></g></g><g transform="translate(-165 -1421)"><path class="s" d="M-46.208,0H-22.4V-5.952h-7.68c-1.68,0-4.032.192-5.808.384,6.48-6.336,11.808-13.248,11.808-19.68,0-6.624-4.464-10.944-11.184-10.944-4.848,0-8.016,1.872-11.28,5.376l3.84,3.84c1.824-1.968,3.936-3.648,6.528-3.648,3.408,0,5.328,2.16,5.328,5.76,0,5.472-5.712,12.144-15.36,20.784ZM-5.84.672c7.248,0,12-6.336,12-18.576s-4.752-18.288-12-18.288-12.048,6-12.048,18.288C-17.888-5.664-13.088.672-5.84.672Zm0-5.52c-3.072,0-5.376-3.072-5.376-13.056,0-9.936,2.3-12.816,5.376-12.816S-.512-27.84-.512-17.9C-.512-7.92-2.768-4.848-5.84-4.848Zm24.292.088a6.407,6.407,0,0,1-1.64,2.82v-3.8h2.5v-1.1h-6.34v1.1h2.6V-1.7h1A10.3,10.3,0,0,1,12.432.54a7.3,7.3,0,0,1,.64.9,9.382,9.382,0,0,0,6.6-6Zm-4.84-.16a7.052,7.052,0,0,1-1.4,2.88,6.677,6.677,0,0,1,.96.64,9.817,9.817,0,0,0,1.58-3.28Zm9-6.06-.44.42a12.409,12.409,0,0,1,2.28,1.32h-3.08c-.04-.56-.08-1.16-.1-1.74Zm1.6,3.88a13.992,13.992,0,0,1-1.78,3.54,22.472,22.472,0,0,1-.94-4.42h5.34V-9.24h-2.08l.64-.66a9.716,9.716,0,0,0-1.74-1.08h3.38v-1.26h-7.84v-1.62h6v-1.18h-6v-1.68h-1.46v4.48h-3.6v-3.58h-1.4v3.58H9.552v1.26h10.36c.02.58.06,1.18.1,1.74h-9.34v3.32c0,2-.18,4.74-1.58,6.76a5.663,5.663,0,0,1,1.22.74c1.48-2.14,1.74-5.28,1.74-7.5V-7.98h8.1a22.6,22.6,0,0,0,1.32,5.6A13.081,13.081,0,0,1,17.692.5a8.083,8.083,0,0,1,1,1.04,15.206,15.206,0,0,0,3.36-2.62c.84,1.58,1.92,2.5,3.18,2.5s1.76-.74,1.98-3.32a3.693,3.693,0,0,1-1.12-.64c-.1,1.88-.3,2.64-.76,2.64-.84,0-1.64-.82-2.34-2.24a15.8,15.8,0,0,0,2.58-4.64Zm7.82,3.06c.04-.58.06-1.12.06-1.66v-.34h4.4v2Zm4.46-5.18V-7.2h-4.4V-9.22Zm1.44-1.22h-7.2V-5.7c0,2-.14,4.56-1.48,6.44a3.716,3.716,0,0,1,1.12.86,9.77,9.77,0,0,0,1.56-4.46h4.56V-.2c0,.26-.08.34-.38.36-.26.02-1.16.02-2.16-.02a6.373,6.373,0,0,1,.48,1.3,8.124,8.124,0,0,0,2.78-.24c.54-.24.72-.62.72-1.38Zm6.44,10.1c0,.3-.1.38-.44.4-.3.02-1.38.02-2.6-.02a5.9,5.9,0,0,1,.54,1.42,9.768,9.768,0,0,0,3.16-.26c.6-.24.8-.64.8-1.54v-10.5h-1.46Zm-2.64-9.9h-1.38v8.12h1.38Zm.76-3.34c.58-.82,1.24-1.8,1.78-2.72l-1.56-.52a22.558,22.558,0,0,1-1.88,3.24h-5.96l.98-.38a13.584,13.584,0,0,0-2-2.8l-1.36.52a13.716,13.716,0,0,1,1.82,2.66h-4.9v1.36h17.74v-1.36Z" transform="translate(342 1656)"/></g><g transform="translate(-171 -1421)"><text class="t" transform="translate(530 1611)"><tspan x="-27.609" y="0">20</tspan></text><text class="u" transform="translate(579 1611)"><tspan x="-20" y="0">歲</tspan></text></g><g transform="translate(-183 -1421)"><text class="t" transform="translate(732 1564.808)"><tspan x="-27.609" y="0">30</tspan></text><text class="u" transform="translate(781 1565)"><tspan x="-20" y="0">歲</tspan></text></g><g transform="translate(-164 -1421)"><text class="t" transform="translate(905 1519)"><tspan x="-27.609" y="0">40</tspan></text><text class="u" transform="translate(954 1519)"><tspan x="-20" y="0">歲</tspan></text></g><g transform="translate(-180 -1421)"><text class="t" transform="translate(1108 1473)"><tspan x="-27.609" y="0">50</tspan></text><text class="u" transform="translate(1157 1473)"><tspan x="-20" y="0">歲</tspan></text></g></g></svg>