<svg xmlns="http://www.w3.org/2000/svg" xmlns:xlink="http://www.w3.org/1999/xlink" width="378" height="404.745" viewBox="0 0 378 404.745"><defs><style>.a,.b{fill:url(#a);}.c,.q{fill:none;stroke-miterlimit:10;}.c{stroke:#e4e4e4;stroke-width:4px;stroke-dasharray:32.088 32.088;}.d{fill:rgba(245,243,242,0.5);}.e{fill:#f9b384;}.f,.k{fill:#1f3c88;}.g,.m{fill:#e28b6d;}.h,.i{fill:#102048;}.i,.m,.s{opacity:0.6;}.j{fill:#fff;}.k,.q{opacity:0.3;}.l{fill:#708cd5;}.n,.s{fill:#6f3428;}.o{fill:#ee6f57;}.p{fill:#fbc343;}.q{stroke:#6f3428;stroke-width:8px;}.r{fill:#fc8879;opacity:0.4;}.t,.u{stroke:none;}.u{fill:#db4954;}.v{filter:url(#c);}</style><linearGradient id="a" x1="0.5" x2="0.5" y2="1" gradientUnits="objectBoundingBox"><stop offset="0" stop-color="#ec0086"/><stop offset="1" stop-color="#db4954"/></linearGradient><filter id="c" x="0" y="90.999" width="378" height="168.313" filterUnits="userSpaceOnUse"><feOffset dx="5" dy="5" input="SourceAlpha"/><feGaussianBlur stdDeviation="5" result="d"/><feFlood flood-opacity="0.161"/><feComposite operator="in" in2="d"/><feComposite in="SourceGraphic"/></filter></defs><g transform="translate(-147.5 -1391.908)"><g transform="translate(165 1503.907)"><g transform="translate(80 -111.999)"><path class="a" d="M-45.9,33.392H-.124V21.949H-14.89c-3.23,0-7.752.369-11.167.738C-13.6,10.505-3.354-2.784-3.354-15.151c0-12.736-8.583-21.041-21.5-21.041-9.321,0-15.412,3.6-21.687,10.336l7.383,7.383c3.507-3.784,7.567-7.014,12.551-7.014,6.552,0,10.244,4.153,10.244,11.074,0,10.521-10.982,23.349-29.532,39.96Zm77.613,1.292c13.935,0,23.072-12.182,23.072-35.715S45.65-36.192,31.715-36.192,8.551-24.656,8.551-1.031C8.551,22.5,17.78,34.684,31.715,34.684Zm0-10.613c-5.906,0-10.336-5.906-10.336-25.1,0-19.1,4.43-24.641,10.336-24.641S41.959-20.134,41.959-1.031C41.959,18.165,37.621,24.071,31.715,24.071Zm46.7.169a12.318,12.318,0,0,1-3.153,5.422V22.356h4.807V20.241H67.883v2.115h5v7.767H74.8a19.8,19.8,0,0,1-7.96,4.307,14.032,14.032,0,0,1,1.23,1.73c6.5-1.961,11-6.152,12.689-11.536Zm-9.306-.308a13.558,13.558,0,0,1-2.692,5.537,12.838,12.838,0,0,1,1.846,1.23,18.875,18.875,0,0,0,3.038-6.306Zm17.3-11.651-.846.808a23.858,23.858,0,0,1,4.384,2.538H84.034c-.077-1.077-.154-2.23-.192-3.345Zm3.076,7.46a26.9,26.9,0,0,1-3.422,6.806,43.205,43.205,0,0,1-1.807-8.5H94.531V15.627h-4l1.23-1.269a18.682,18.682,0,0,0-3.345-2.076h6.5V9.859H79.842V6.744H91.378V4.476H79.842V1.246H77.035V9.859H70.114V2.976H67.422V9.859H61.308v2.423H81.227c.038,1.115.115,2.269.192,3.345H63.461V22.01c0,3.845-.346,9.113-3.038,13a10.887,10.887,0,0,1,2.346,1.423c2.846-4.114,3.345-10.152,3.345-14.42V18.05H81.688a43.46,43.46,0,0,0,2.538,10.767,25.149,25.149,0,0,1-7.268,5.537,15.541,15.541,0,0,1,1.923,2,29.236,29.236,0,0,0,6.46-5.037c1.615,3.038,3.691,4.807,6.114,4.807s3.384-1.423,3.807-6.383a7.1,7.1,0,0,1-2.153-1.23c-.192,3.615-.577,5.076-1.461,5.076-1.615,0-3.153-1.577-4.5-4.307a30.387,30.387,0,0,0,4.96-8.921Zm15.035,5.883c.077-1.115.115-2.153.115-3.192v-.654h8.46v3.845Zm8.575-9.959v3.884h-8.46V15.665Zm2.769-2.346H102.029v9.113c0,3.845-.269,8.767-2.845,12.382a7.144,7.144,0,0,1,2.153,1.653,18.785,18.785,0,0,0,3-8.575H113.1v5.114c0,.5-.154.654-.731.692-.5.038-2.23.038-4.153-.038a12.253,12.253,0,0,1,.923,2.5c2.615,0,4.268,0,5.345-.461,1.038-.461,1.384-1.192,1.384-2.653Zm12.382,19.419c0,.577-.192.731-.846.769-.577.038-2.653.038-5-.038a11.343,11.343,0,0,1,1.038,2.73c2.922.038,4.845-.038,6.076-.5,1.154-.461,1.538-1.23,1.538-2.961V12.551h-2.807ZM123.178,13.7h-2.653V29.316h2.653Zm1.461-6.422c1.115-1.577,2.384-3.461,3.422-5.23l-3-1a43.374,43.374,0,0,1-3.615,6.229H109.989l1.884-.731a26.117,26.117,0,0,0-3.845-5.383l-2.615,1a26.37,26.37,0,0,1,3.5,5.114H99.492V9.9H133.6V7.283Z" transform="translate(42.972 36.192)"/></g></g><g transform="translate(165 1494.907)"><g class="v" transform="matrix(1, 0, 0, 1, -17.5, -103)"><g class="b" transform="translate(12 103)"><path class="t" d="M 345 135.3126220703125 L 344 135.3126220703125 L 320.1371459960938 135.3126220703125 L 317.6578063964844 135.3126220703125 L 316.6578063964844 135.3126220703125 L 316.6578063964844 134.3126220703125 L 316.6578063964844 130.9547729492188 L 316.6578063964844 4.357856273651123 L 262.8739929199219 4.357856273651123 L 262.8739929199219 19.3073558807373 L 262.8739929199219 22.66522026062012 L 262.8739929199219 23.66522026062012 L 261.8739929199219 23.66522026062012 L 203.9911346435547 23.66522026062012 L 203.9911346435547 38.61476516723633 L 203.9911346435547 41.97258377075195 L 203.9911346435547 42.97258377075195 L 202.9911346435547 42.97258377075195 L 145.1082305908203 42.97258377075195 L 145.1082305908203 57.9221305847168 L 145.1082305908203 61.27999114990234 L 145.1082305908203 62.27999114990234 L 144.1082305908203 62.27999114990234 L 85.60536193847656 62.27999114990234 L 85.60536193847656 77.2294921875 L 85.60536193847656 80.58735656738281 L 85.60536193847656 81.58735656738281 L 84.60536193847656 81.58735656738281 L 32.92063522338867 81.58735656738281 L 32.92063522338867 134.3126220703125 L 32.92063522338867 135.3126220703125 L 31.9206371307373 135.3126220703125 L 29.44159126281738 135.3126220703125 L 0 135.3126220703125 L -1 135.3126220703125 L -1 134.3126220703125 L -1 130.9547729492188 L -1 129.9547729492188 L 0 129.9547729492188 L 28.44159126281738 129.9547729492188 L 28.44159126281738 77.2294921875 L 28.44159126281738 76.2294921875 L 29.44159126281738 76.2294921875 L 31.9206371307373 76.2294921875 L 81.12604522705078 76.2294921875 L 81.12604522705078 57.9221305847168 L 81.12604522705078 56.9221305847168 L 82.12604522705078 56.9221305847168 L 84.60536193847656 56.9221305847168 L 85.60536193847656 56.9221305847168 L 140.6289520263672 56.9221305847168 L 140.6289520263672 38.61476516723633 L 140.6289520263672 37.61476516723633 L 141.6289520263672 37.61476516723633 L 144.1082305908203 37.61476516723633 L 145.1082305908203 37.61476516723633 L 199.5118255615234 37.61476516723633 L 199.5118255615234 19.3073558807373 L 199.5118255615234 18.3073558807373 L 200.5118255615234 18.3073558807373 L 201.9911346435547 18.3073558807373 L 202.9911346435547 18.3073558807373 L 258.3946838378906 18.3073558807373 L 258.3946838378906 -7.146662028389983e-06 L 258.3946838378906 -1.000007152557373 L 259.3946838378906 -1.000007152557373 L 261.8739929199219 -1.000007152557373 L 317.6578063964844 -1.000007152557373 L 320.1371459960938 -1.000007152557373 L 321.1371459960938 -1.000007152557373 L 321.1371459960938 -7.146662028389983e-06 L 321.1371459960938 129.9547729492188 L 344 129.9547729492188 L 345 129.9547729492188 L 345 130.9547729492188 L 345 134.3126220703125 L 345 135.3126220703125 Z"/><path class="u" d="M 344 134.3126220703125 L 344 130.9547729492188 L 320.1371459960938 130.9547729492188 L 320.1371459960938 -7.146662028389983e-06 L 317.6578063964844 -7.146662028389983e-06 L 261.8739929199219 -7.146662028389983e-06 L 261.8739929199219 3.357856512069702 L 317.6578063964844 3.357856512069702 L 317.6578063964844 130.9547729492188 L 317.6578063964844 134.3126220703125 L 320.1371459960938 134.3126220703125 L 344 134.3126220703125 M 31.9206371307373 134.3126220703125 L 31.9206371307373 80.58735656738281 L 84.60536193847656 80.58735656738281 L 84.60536193847656 77.2294921875 L 84.60536193847656 57.9221305847168 L 82.12604522705078 57.9221305847168 L 82.12604522705078 77.2294921875 L 31.9206371307373 77.2294921875 L 29.44159126281738 77.2294921875 L 29.44159126281738 130.9547729492188 L 29.44159126281738 134.3126220703125 L 31.9206371307373 134.3126220703125 M 29.44159126281738 134.3126220703125 L 29.44159126281738 130.9547729492188 L 0 130.9547729492188 L 0 134.3126220703125 L 29.44159126281738 134.3126220703125 M 144.1082305908203 61.27999114990234 L 144.1082305908203 57.9221305847168 L 144.1082305908203 38.61476516723633 L 141.6289520263672 38.61476516723633 L 141.6289520263672 57.9221305847168 L 84.60536193847656 57.9221305847168 L 84.60536193847656 61.27999114990234 L 144.1082305908203 61.27999114990234 M 202.9911346435547 41.97258377075195 L 202.9911346435547 38.61476516723633 L 202.9911346435547 19.3073558807373 L 200.5118255615234 19.3073558807373 L 200.5118255615234 38.61476516723633 L 144.1082305908203 38.61476516723633 L 144.1082305908203 41.97258377075195 L 202.9911346435547 41.97258377075195 M 261.8739929199219 22.66522026062012 L 261.8739929199219 19.3073558807373 L 261.8739929199219 3.357856512069702 L 261.8739929199219 -7.146662028389983e-06 L 259.3946838378906 -7.146662028389983e-06 L 259.3946838378906 19.3073558807373 L 202.9911346435547 19.3073558807373 L 202.9911346435547 22.66522026062012 L 261.8739929199219 22.66522026062012 M 346 136.3126220703125 L 344 136.3126220703125 L 320.1371459960938 136.3126220703125 L 317.6578063964844 136.3126220703125 L 315.6578063964844 136.3126220703125 L 315.6578063964844 134.3126220703125 L 315.6578063964844 130.9547729492188 L 315.6578063964844 5.357856273651123 L 263.8739929199219 5.357856273651123 L 263.8739929199219 19.3073558807373 L 263.8739929199219 22.66522026062012 L 263.8739929199219 24.66522026062012 L 261.8739929199219 24.66522026062012 L 204.9911346435547 24.66522026062012 L 204.9911346435547 38.61476516723633 L 204.9911346435547 41.97258377075195 L 204.9911346435547 43.97258377075195 L 202.9911346435547 43.97258377075195 L 146.1082305908203 43.97258377075195 L 146.1082305908203 57.9221305847168 L 146.1082305908203 61.27999114990234 L 146.1082305908203 63.27999114990234 L 144.1082305908203 63.27999114990234 L 86.60536193847656 63.27999114990234 L 86.60536193847656 77.2294921875 L 86.60536193847656 80.58735656738281 L 86.60536193847656 82.58735656738281 L 84.60536193847656 82.58735656738281 L 33.92063522338867 82.58735656738281 L 33.92063522338867 134.3126220703125 L 33.92063522338867 136.3126220703125 L 31.9206371307373 136.3126220703125 L 31.44159126281738 136.3126220703125 L 29.44159126281738 136.3126220703125 L 0 136.3126220703125 L -2 136.3126220703125 L -2 134.3126220703125 L -2 130.9547729492188 L -2 128.9547729492188 L 0 128.9547729492188 L 27.44159126281738 128.9547729492188 L 27.44159126281738 77.2294921875 L 27.44159126281738 75.2294921875 L 29.44159126281738 75.2294921875 L 31.9206371307373 75.2294921875 L 80.12604522705078 75.2294921875 L 80.12604522705078 57.9221305847168 L 80.12604522705078 55.9221305847168 L 82.12604522705078 55.9221305847168 L 84.60536193847656 55.9221305847168 L 86.60536193847656 55.9221305847168 L 139.6289520263672 55.9221305847168 L 139.6289520263672 38.61476516723633 L 139.6289520263672 36.61476516723633 L 141.6289520263672 36.61476516723633 L 144.1082305908203 36.61476516723633 L 146.1082305908203 36.61476516723633 L 198.5118255615234 36.61476516723633 L 198.5118255615234 19.3073558807373 L 198.5118255615234 17.3073558807373 L 200.5118255615234 17.3073558807373 L 202.9911346435547 17.3073558807373 L 204.9911346435547 17.3073558807373 L 257.3946838378906 17.3073558807373 L 257.3946838378906 -7.146662028389983e-06 L 257.3946838378906 -2.000007152557373 L 259.3946838378906 -2.000007152557373 L 259.8739929199219 -2.000007152557373 L 261.8739929199219 -2.000007152557373 L 317.6578063964844 -2.000007152557373 L 320.1371459960938 -2.000007152557373 L 322.1371459960938 -2.000007152557373 L 322.1371459960938 -7.146662028389983e-06 L 322.1371459960938 128.9547729492188 L 344 128.9547729492188 L 346 128.9547729492188 L 346 130.9547729492188 L 346 134.3126220703125 L 346 136.3126220703125 Z"/></g></g></g><g transform="translate(228 1610.907)"><g transform="translate(0 91.717)"><path class="c" d="M254.249,1205.1c-10.769,19.271,4.814,57.08,103.641,30.8,49.55-13.175,86.563,16.5,94.19-4.212,17.766-48.254-54.788-104.073-95.133-65.1C320.069,1202.212,273.848,1170.03,254.249,1205.1Z" transform="translate(-251.32 -1153.493)"/><path class="d" d="M275.41,1314.659H476.916c-6.306-46.592-49.006-82.632-100.753-82.632S281.716,1268.066,275.41,1314.659Z" transform="translate(-271.914 -1220.63)"/></g><g transform="translate(54.587 0)"><g transform="translate(0 15.406)"><path class="e" d="M636.319,644.966c1.966-.372,3.8-3.657,4.442-4.917a1.564,1.564,0,0,0,.141-1l-.783-4.147s-1.806.307-1.666,2.711a1.772,1.772,0,0,1-.126.732l-.691,1.808-2.044-1.582,1.121-3.164a5.44,5.44,0,0,0,2.274.165c1.59-.507-.494-1.747-1.154-1.879s-2.11-.659-2.769.461-1.055,1.78-1.055,1.78-.725-2.5-.231-8.108c.022-.252-.609-.247-.787-.066-.531.54-1.376,2.185-1.422,7.186,0,0-.088-5.828-1.088-6.427-.824-.494-1.24,2.358-.66,7.2,0,0-1.076-4.188-1.845-4.2-1.3-.013-.017,11.186,3.248,14.523Z" transform="translate(-627.48 -627.631)"/><path class="e" d="M645.91,735.28q.087.836.192,1.619v.006a47.07,47.07,0,0,0,.859,4.94c.017.07.029.133.046.2.993,4.069,1.173,6.06,4.563,5.526l3.489-3.97.035-.041.255-.29-.708-2.09-.093-.273-.522-1.521-.064-.2-.894-2.618-.36-1.062Z" transform="translate(-643.235 -719.659)"/></g><g transform="translate(25.226 168.267)"><path class="f" d="M1043.846,1731.542l.888,2.775c6.089,2,9.641,4.292,9.868,6.966h-17.607l-1.411-9.293A13.657,13.657,0,0,0,1043.846,1731.542Z" transform="translate(-1001.586 -1724.207)"/><path class="e" d="M1036.276,1684l2.208,6.9a13.658,13.658,0,0,1-8.263.448l-.91-5.993Z" transform="translate(-996.224 -1683.565)"/><path class="e" d="M866.827,1688.027,866.31,1681l8.272.435.452,6.478A13.535,13.535,0,0,1,866.827,1688.027Z" transform="translate(-856.878 -1681)"/><path class="f" d="M801.31,1738.8c.228-2.674,3.338-6.337,10.158-7.207l-.209-2.841a13.533,13.533,0,0,0,8.207-.114l.709,10.162Z" transform="translate(-801.31 -1721.726)"/></g><path class="e" d="M916.07,671.023l9.978.07V656h-9.676l-.006.923-.046,4.783-.07,7.68Z" transform="translate(-874.191 -636.477)"/><path class="g" d="M917.79,672.143c1.794,1.886,6.472-.244,8.446-2.322l-8.4-2.461Z" transform="translate(-875.661 -646.189)"/><path class="e" d="M901.823,572.774a21.585,21.585,0,0,0,.261,3.4c.488,3.042,1.776,5.671,4.748,5.752,7.024.2,9.026-3.814,10.35-7.1s-.824-11.2-.824-11.2l-9.09-.9-4.992,4.092A37.237,37.237,0,0,0,901.823,572.774Z" transform="translate(-862.01 -556.734)"/><path class="h" d="M892.2,537.675s-2-.092-2.346-5.264a7.082,7.082,0,0,1-8.276-2.28,4.791,4.791,0,0,1-8.4-1.717c-1.209-3.459,2.128-8.61,6.99-5.49,4.764-2.407,11.991-2.242,14.07,3.663,0,0,7.229,3.333-.426,10.672A8.855,8.855,0,0,1,892.2,537.675Z" transform="translate(-837.31 -521.467)"/><path class="h" d="M815.3,1133.3l5.515,83.4h12.964l-3.241-80.927-1.983-.919Z" transform="translate(-788.047 -1044.513)"/><path class="f" d="M845.084,1018.192,854.178,1113H840.053l-13.448-78.75-15.286-4.644-.677-16.833L844.7,1012Z" transform="translate(-784.063 -940.816)"/><path class="i" d="M859.781,999.573c-7.715,2.77-25.816-.4-29.574-4.253l2.671-5.341,29.772,3.956Z" transform="translate(-800.788 -921.99)"/><path class="j" d="M834.99,765.8c.25.1.505.215.766.313a52.387,52.387,0,0,0,9.671,2.879,44.366,44.366,0,0,0,6.484.8,37.464,37.464,0,0,0,10.181-.824l-4.324-40.319-.528-4.917s-5.66,6.966-11.9-.726Z" transform="translate(-804.877 -693.754)"/><path class="k" d="M943.9,789.875a37.467,37.467,0,0,0,10.181-.824l-4.325-40.319-1.544-2.232C944.395,755.776,940.488,776.316,943.9,789.875Z" transform="translate(-896.862 -713.844)"/><path class="l" d="M961.985,717c-4.3,18.256-6.069,37.041.266,57.9,4.7,1.787,9.812,1.767,15.286.193l-1.354-37.924,31.877,21.913,1.935-11.948C997.74,735.419,976.553,717.718,961.985,717Z" transform="translate(-910.13 -688.625)"/><path class="k" d="M840.27,817.4a52.4,52.4,0,0,0,9.671,2.879c1.921-11.017,2.345-29.116.784-37.283Z" transform="translate(-809.391 -745.047)"/><path class="m" d="M653.15,764.859c.017.07.029.133.046.2.993,4.069,1.173,6.06,4.563,5.526l3.489-3.97.035-.041-.453-2.38-.093-.273-.522-1.521-.064-.2Z" transform="translate(-649.425 -727.266)"/><path class="l" d="M657.31,728.633s8.562,18.14,13.641,18.575c4.924.422,7.256-4.353,7.256-4.353l-3.483,26.51a22.227,22.227,0,0,0,13.74,1.933c4.6-14.947,6.343-34.274,6.686-55.8-3.727.232-11.107.55-13.75,2.249-4.74,3.047-10.594,13.931-10.594,13.931l-6.82-9.287Z" transform="translate(-652.981 -687.343)"/><g transform="translate(82.355 7.449)"><path class="n" d="M1352.676,581.083s-.518-8.678-1.4-8.268-2.654,7.955-2.654,7.955l1.894,3.056Z" transform="translate(-1326.326 -572.801)"/><path class="o" d="M1195.281,1709.667l-.257,2.856a9.166,9.166,0,0,0,8.309,9.949l.734.066a9.166,9.166,0,0,0,9.949-8.309l.257-2.856Z" transform="translate(-1194.987 -1544.689)"/><rect class="p" width="138.847" height="19.068" transform="translate(0.294 164.978) rotate(-84.866)"/><rect class="q" width="6.772" height="121.704" transform="translate(14.947 146.287) rotate(-174.866)"/><path class="h" d="M1197.03,1583.944l18.987,1.707.5-5.573.348-3.872,1.074-11.9-18.993-1.707-1.068,11.9-.348,3.872Z" transform="translate(-1196.733 -1418.964)"/><rect class="p" width="3.887" height="19.064" transform="translate(0.796 159.407) rotate(-84.864)"/><path class="o" d="M1301.629,640.64l-5.275-21.142a4.535,4.535,0,0,1-4.03-.556l-9.688,19.992Z" transform="translate(-1269.917 -612.245)"/></g><path class="e" d="M990.59,621.525c.085-.312,1.5-.741,1.815-.827a2.175,2.175,0,0,1,1.48.014c1.714.774,1.485,3.229.6,4.518a3.864,3.864,0,0,1-2.1,1.538c-.311.089-3.26.125-3.13-.349Z" transform="translate(-936.752 -606.192)"/><path class="e" d="M1366.883,956.132a2.581,2.581,0,0,1,3.3-1.7c2.161.746,4.042,2.012,4.334,4.165.265,1.961-.715,8.223-5.1,9.028l.358-3.218s-2.682-.626-3.218-1.788C1366.184,961.8,1366.159,958.4,1366.883,956.132Z" transform="translate(-1259.086 -891.478)"/><path class="f" d="M799.135,818.576c-.23,1.37-.426,2.745-.614,4.12s-.349,2.754-.526,4.131l-.45,4.14c-.131,1.382-.259,2.764-.345,4.152l.225.026c.237-1.37.432-2.744.623-4.119l.517-4.132c.146-1.381.314-2.758.442-4.141s.261-2.764.353-4.151Z" transform="translate(-772.571 -775.461)"/><path class="f" d="M1079.529,816.974c0,1.539.041,3.077.086,4.614s.118,3.073.175,4.609l.251,4.606c.1,1.534.209,3.069.358,4.6l.227-.011c0-1.539-.035-3.077-.078-4.614l-.184-4.609c-.088-1.535-.154-3.071-.26-4.605s-.207-3.069-.349-4.6Z" transform="translate(-1013.929 -774.082)"/><path class="h" d="M949.737,621.169a.912.912,0,0,0,.5,1.154c.4.09.825-.281.948-.829a.912.912,0,0,0-.5-1.154C950.284,620.251,949.86,620.621,949.737,621.169Z" transform="translate(-902.943 -605.981)"/><path class="h" d="M910.057,615.3c.024.56.376,1,.786.983s.724-.486.7-1.046-.376-1-.786-.983S910.033,614.739,910.057,615.3Z" transform="translate(-869.049 -600.788)"/><path class="g" d="M920.607,624.635a13.168,13.168,0,0,0-.3,1.39,1.088,1.088,0,0,1-.281.482,1.831,1.831,0,0,1-.545.268,1.516,1.516,0,0,0-.688.518.9.9,0,0,0-.07.95,1.792,1.792,0,0,0,.567.574c.2.134.391.277.6.4l.149-.171c-.152-.188-.32-.358-.48-.538a1.693,1.693,0,0,1-.375-.489c-.123-.269.14-.562.521-.714a2.023,2.023,0,0,0,.708-.4,1.416,1.416,0,0,0,.372-.767c.1-.538-.014-1,.038-1.445Z" transform="translate(-876.373 -609.664)"/><path class="h" d="M948.547,608.332a1.69,1.69,0,0,0-.593-.9,1.8,1.8,0,0,0-1.052-.394,1.947,1.947,0,0,0-1.83,1.028l.178.141a2.493,2.493,0,0,1,1.625-.592,1.9,1.9,0,0,1,1.467.818Z" transform="translate(-898.984 -594.613)"/><path class="h" d="M911.128,604.267a1.748,1.748,0,0,0-.456-.733,1.519,1.519,0,0,0-.824-.408,1.445,1.445,0,0,0-1.539.768l.182.136a1.84,1.84,0,0,1,1.272-.333,1.63,1.63,0,0,1,.606.222,4,4,0,0,1,.563.463Z" transform="translate(-867.556 -591.259)"/><path class="j" d="M929.79,663.373c-1.013,1.586-2.364,1.759-3.407.089Z" transform="translate(-883.007 -642.78)"/><path class="r" d="M901.643,629.333a26.755,26.755,0,0,0,.288,3.783,1.748,1.748,0,0,0,1.213-1.666A2.234,2.234,0,0,0,901.643,629.333Z" transform="translate(-861.858 -613.68)"/><circle class="r" cx="1.872" cy="1.872" r="1.872" transform="translate(47.385 16.935)"/><path class="g" d="M1005.868,632.01a9.313,9.313,0,0,1,1.047-.689.913.913,0,0,1,.462-.12,1.034,1.034,0,0,1,.483.222l.191-.123a.9.9,0,0,0-.551-.593,1.077,1.077,0,0,0-.84.1,2.174,2.174,0,0,0-.971,1.069Z" transform="translate(-950.803 -614.813)"/><path class="s" d="M1368.08,1011.674l2.694,8.186.556-6.4A5.584,5.584,0,0,1,1368.08,1011.674Z" transform="translate(-1260.607 -940.537)"/></g></g></g></svg>