<svg xmlns="http://www.w3.org/2000/svg" xmlns:xlink="http://www.w3.org/1999/xlink" width="96" height="96" viewBox="0 0 96 96"><defs><style>.a{fill:none;}.b{clip-path:url(#a);}.c,.d{fill:url(#b);}.d{stroke:#333;stroke-width:3px;}.e{fill:#333;}</style><clipPath id="a"><rect class="a" width="96" height="96" transform="translate(197 3981)"/></clipPath><linearGradient id="b" x1="0.5" x2="0.5" y2="1" gradientUnits="objectBoundingBox"><stop offset="0" stop-color="#ec0086"/><stop offset="1" stop-color="#db4954"/></linearGradient></defs><g class="b" transform="translate(-197 -3981)"><g transform="translate(193.8 3977.8)"><path class="c" d="M-1654.8-3958.6a6.4,6.4,0,0,1-6.4-6.4h-1.6v-12.8h25.6v12.8h-1.6a6.4,6.4,0,0,1-6.4,6.4Z" transform="translate(1701.2 4056.2)"/><path class="d" d="M62.854,34.88c-.344-.829-.584-1.408-.926-2.24l.87-3.392-2.454-2.454-3.384.886-2.24-.926-1.781-3.011H49.467l-1.787,3-2.24.926-3.392-.87-2.454,2.454.87,3.392-.926,2.24-3.011,1.781v3.472l3.019,1.779c.344.829.584,1.408.926,2.24l-.87,3.392,2.454,2.454,3.392-.87c.829.342,1.723,1.728,2.552,2.08V78.4h6.4V51.2c.829-.344,1.723-1.73,2.552-2.08l3.392.87L62.8,47.536l-.87-3.392.926-2.24,3.011-1.781V36.651ZM51.2,43.2A4.8,4.8,0,1,1,56,38.4,4.8,4.8,0,0,1,51.2,43.2Z"/><path class="a" d="M36.8,19.2,40,16H36.8V12.8L33.6,16H30.4v3.2l-3.2,3.2h3.2v3.2l3.2-3.2h3.2Z"/><path class="e" d="M51.2,3.2A35.2,35.2,0,0,0,36.8,70.515V91.2a1.6,1.6,0,0,0,1.6,1.6h.16a8.014,8.014,0,0,0,7.84,6.4H56a8.014,8.014,0,0,0,7.84-6.4H64a1.6,1.6,0,0,0,1.6-1.6V70.515A35.2,35.2,0,0,0,51.2,3.2ZM62.4,89.6H40V86.4H59.2V83.2H40V80H62.4ZM56,96H46.4a4.8,4.8,0,0,1-4.506-3.2H60.506A4.8,4.8,0,0,1,56,96Zm7.389-28.018a1.6,1.6,0,0,0-.989,1.48V76.8H40V69.462a1.6,1.6,0,0,0-.989-1.48,32,32,0,1,1,24.378,0Z"/></g></g></svg>