<svg xmlns="http://www.w3.org/2000/svg" xmlns:xlink="http://www.w3.org/1999/xlink" width="96" height="96" viewBox="0 0 96 96"><defs><style>.a{fill:none;}.b{clip-path:url(#a);}.c,.d{stroke:#333;stroke-width:3px;}.c{fill:url(#b);}.d{fill:rgba(255,255,255,0.9);}</style><clipPath id="a"><rect class="a" width="96" height="96" transform="translate(197 3981)"/></clipPath><linearGradient id="b" x1="0.5" x2="0.5" y2="1" gradientUnits="objectBoundingBox"><stop offset="0" stop-color="#ec0086"/><stop offset="1" stop-color="#db4954"/></linearGradient></defs><g class="b" transform="translate(-197 -3981)"><g transform="translate(179.927 3966.927)"><path class="c" d="M34.036,77.68A5.625,5.625,0,0,0,39.661,83.3h33.75L90.286,100.18V83.3h5.625a5.625,5.625,0,0,0,5.625-5.625v-45a5.625,5.625,0,0,0-5.625-5.625H39.661a5.625,5.625,0,0,0-5.625,5.625Z" transform="translate(8.536 4.268)"/><path class="d" d="M12,55.673H6a5.8,5.8,0,0,1-6-5.567V5.567A5.8,5.8,0,0,1,6,0H66.238l.062,0h.025l.043,0,.035,0,.042,0,.035,0H66.5l.07.006h.011A5.747,5.747,0,0,1,72,5.567V50.106a5.8,5.8,0,0,1-6,5.567H30l-18,16.7Z" transform="translate(20.073 20.072)"/><circle class="c" cx="5.625" cy="5.625" r="5.625" transform="translate(31.323 42.573)"/><circle class="c" cx="5.625" cy="5.625" r="5.625" transform="translate(48.198 42.573)"/><circle class="c" cx="5.625" cy="5.625" r="5.625" transform="translate(65.073 42.573)"/></g></g></svg>