<svg xmlns="http://www.w3.org/2000/svg" xmlns:xlink="http://www.w3.org/1999/xlink" width="96" height="96" viewBox="0 0 96 96"><defs><style>.a{fill:none;}.b{clip-path:url(#a);}.c,.d{fill:url(#b);}.d{stroke:#333;stroke-width:3px;}.e{stroke:none;}</style><clipPath id="a"><rect class="a" width="96" height="96" transform="translate(197 3981)"/></clipPath><linearGradient id="b" x1="0.5" x2="0.5" y2="1" gradientUnits="objectBoundingBox"><stop offset="0" stop-color="#ec0086"/><stop offset="1" stop-color="#db4954"/></linearGradient></defs><g class="b" transform="translate(-197 -3981)"><g transform="translate(192.119 3977.746)"><path class="c" d="M52.068,52.068V4.881A47.186,47.186,0,0,1,99.254,52.068Z"/><path d="M52.068,3.254a1.627,1.627,0,0,0-1.627,1.627v6.549A40.639,40.639,0,0,0,21.153,78.468V73.129A37.4,37.4,0,0,1,50.441,14.685V52.068a1.617,1.617,0,0,0,.478,1.152h0L77.387,79.6a37.333,37.333,0,0,1-46.472,3.321V86.8a40.654,40.654,0,0,0,61.79-33.105h6.549a1.627,1.627,0,0,0,1.627-1.627A48.869,48.869,0,0,0,52.068,3.254ZM79.687,77.288,56.005,53.695H89.451A37.281,37.281,0,0,1,79.687,77.288ZM53.695,50.441V6.538a45.616,45.616,0,0,1,43.9,43.9Z"/><g class="d" transform="translate(7.881 66.966)"><rect class="e" width="6" height="29.288"/><rect class="a" x="-1.5" y="-1.5" width="9" height="32.288"/></g><g class="d" transform="translate(22.881 62.085)"><rect class="e" width="6" height="26.034"/><rect class="a" x="-1.5" y="-1.5" width="9" height="29.034"/></g><g class="d" transform="translate(38.881 53.949)"><rect class="e" width="6" height="19.525"/><rect class="a" x="-1.5" y="-1.5" width="9" height="22.525"/></g></g></g></svg>