<svg xmlns="http://www.w3.org/2000/svg" xmlns:xlink="http://www.w3.org/1999/xlink" width="96" height="96" viewBox="0 0 96 96"><defs><style>.a{fill:none;}.b{clip-path:url(#a);}.c{stroke:#333;stroke-width:3px;fill:url(#b);}.d{fill:#333;}.e{stroke:none;}</style><clipPath id="a"><rect class="a" width="96" height="96" transform="translate(197 3981)"/></clipPath><linearGradient id="b" x1="0.5" x2="0.5" y2="1" gradientUnits="objectBoundingBox"><stop offset="0" stop-color="#ec0086"/><stop offset="1" stop-color="#db4954"/></linearGradient></defs><g class="b" transform="translate(-197 -3981)"><g transform="translate(197 3981)"><g class="c" transform="translate(33 32)"><circle class="e" cx="15.5" cy="15.5" r="15.5"/><circle class="a" cx="15.5" cy="15.5" r="14"/></g><path class="d" d="M83.85,45A36,36,0,0,0,51,12.15V0H45V12.15A36,36,0,0,0,12.15,45H0v6H12.15A36,36,0,0,0,45,83.85V96h6V83.85A36,36,0,0,0,83.85,51H96V45Zm-6,6A30,30,0,0,1,51,77.85V66H45V77.85A30,30,0,0,1,18.15,51H30V45H18.15A30,30,0,0,1,45,18.15V30h6V18.15A30,30,0,0,1,77.85,45H66v6Z"/><circle class="d" cx="6" cy="6" r="6" transform="translate(42 42)"/></g></g></svg>