<svg xmlns="http://www.w3.org/2000/svg" xmlns:xlink="http://www.w3.org/1999/xlink" width="96" height="96" viewBox="0 0 96 96"><defs><style>.a{fill:none;}.b{clip-path:url(#a);}.c{fill:url(#b);}</style><clipPath id="a"><rect class="a" width="96" height="96" transform="translate(197 3981)"/></clipPath><linearGradient id="b" x1="0.5" x2="0.5" y2="1" gradientUnits="objectBoundingBox"><stop offset="0" stop-color="#ec0086"/><stop offset="1" stop-color="#db4954"/></linearGradient></defs><g class="b" transform="translate(-197 -3981)"><g transform="translate(197 3981)"><path class="c" d="M33,91.662V19.348H47.874V91.662Z"/><circle cx="1.6" cy="1.6" r="1.6" transform="translate(38.4 20.8)"/><circle cx="1.6" cy="1.6" r="1.6" transform="translate(38.4 30.4)"/><circle cx="1.6" cy="1.6" r="1.6" transform="translate(33.6 25.6)"/><circle cx="1.6" cy="1.6" r="1.6" transform="translate(33.6 35.2)"/><circle cx="1.6" cy="1.6" r="1.6" transform="translate(43.2 25.6)"/><circle cx="1.6" cy="1.6" r="1.6" transform="translate(43.2 35.2)"/><circle cx="1.6" cy="1.6" r="1.6" transform="translate(38.4 40)"/><circle cx="1.6" cy="1.6" r="1.6" transform="translate(38.4 49.6)"/><circle cx="1.6" cy="1.6" r="1.6" transform="translate(33.6 44.8)"/><circle cx="1.6" cy="1.6" r="1.6" transform="translate(33.6 54.4)"/><circle cx="1.6" cy="1.6" r="1.6" transform="translate(43.2 44.8)"/><circle cx="1.6" cy="1.6" r="1.6" transform="translate(43.2 54.4)"/><circle cx="1.6" cy="1.6" r="1.6" transform="translate(38.4 59.2)"/><circle cx="1.6" cy="1.6" r="1.6" transform="translate(38.4 68.8)"/><circle cx="1.6" cy="1.6" r="1.6" transform="translate(33.6 64)"/><circle cx="1.6" cy="1.6" r="1.6" transform="translate(33.6 73.6)"/><circle cx="1.6" cy="1.6" r="1.6" transform="translate(43.2 64)"/><circle cx="1.6" cy="1.6" r="1.6" transform="translate(43.2 73.6)"/><circle cx="1.6" cy="1.6" r="1.6" transform="translate(38.4 78.4)"/><circle cx="1.6" cy="1.6" r="1.6" transform="translate(33.6 83.2)"/><circle cx="1.6" cy="1.6" r="1.6" transform="translate(43.2 83.2)"/><path d="M94.4,89.6H91.2V52.8H72V89.6H70.4V67.2H51.2V89.6H49.6v-72H30.4v72H28.8V30.4H9.6V89.6H6.4V1.6a1.6,1.6,0,1,0-3.2,0v88H1.6a1.6,1.6,0,0,0,0,3.2H3.2v1.6a1.6,1.6,0,0,0,3.2,0V92.8h88a1.6,1.6,0,0,0,0-3.2Zm-81.6,0v-56H25.6v56Zm28.8,0a1.6,1.6,0,0,0-3.2,0H33.6V20.8H46.4V89.6Zm12.8,0V70.4H67.2V89.6Zm20.8,0V56H88V89.6Z"/></g></g></svg>