<svg xmlns="http://www.w3.org/2000/svg" xmlns:xlink="http://www.w3.org/1999/xlink" width="96" height="96" viewBox="0 0 96 96"><defs><style>.a{fill:none;}.b{clip-path:url(#a);}.c,.d,.f{stroke:#333;}.c,.d{stroke-width:2.01px;}.c,.f{fill:url(#b);}.d{fill:rgba(255,255,255,0.9);}.e{fill:#333;}.f{stroke-linecap:round;stroke-width:3px;}.g{stroke:none;}</style><clipPath id="a"><rect class="a" width="96" height="96" transform="translate(197 3981)"/></clipPath><linearGradient id="b" x1="0.5" x2="0.5" y2="1" gradientUnits="objectBoundingBox"><stop offset="0" stop-color="#ec0086"/><stop offset="1" stop-color="#db4954"/></linearGradient></defs><g class="b" transform="translate(-197 -3981)"><g transform="translate(190.62 3978.748)"><rect class="c" width="65.631" height="85.425" rx="4" transform="translate(16.762 3.752)"/><rect class="d" width="59.631" height="85.425" rx="4" transform="translate(32.911 10.816)"/><path class="e" d="M32.911,67.934a1.5,1.5,0,1,0,1.508,1.508A1.506,1.506,0,0,0,32.911,67.934Z"/><path class="e" d="M93.628,9.751a1.554,1.554,0,0,0-1.086-.442H83.977V3.76A1.519,1.519,0,0,0,82.47,2.252H16.888A1.519,1.519,0,0,0,15.38,3.76V89.185a1.519,1.519,0,0,0,1.508,1.508H31.424v5.549a1.51,1.51,0,0,0,1.508,1.508H92.562a1.472,1.472,0,0,0,1.066-.442,1.506,1.506,0,0,0,.442-1.066V10.816A1.7,1.7,0,0,0,93.628,9.751ZM91.034,94.733H34.419V73.443a1.508,1.508,0,0,0-3.016,0V87.657H18.4V5.267H80.982V9.308H32.932a1.51,1.51,0,0,0-1.508,1.508v54.6a1.508,1.508,0,0,0,3.016,0v-53.1H91.054V94.733Z"/><path class="e" d="M61.48,26.679H84.259a1.508,1.508,0,1,0,0-3.016H61.48a1.508,1.508,0,1,0,0,3.016Z"/><path class="e" d="M61.48,36.309H84.259a1.508,1.508,0,1,0,0-3.016H61.48a1.508,1.508,0,0,0,0,3.016Z"/><path class="e" d="M61.48,45.919H84.259a1.508,1.508,0,1,0,0-3.016H61.48a1.508,1.508,0,1,0,0,3.016Z"/><path class="e" d="M41.215,55.549H84.259a1.508,1.508,0,1,0,0-3.016H41.215a1.508,1.508,0,0,0,0,3.016Z"/><path class="e" d="M41.215,65.179H84.259a1.508,1.508,0,1,0,0-3.016H41.215a1.508,1.508,0,0,0,0,3.016Z"/><path class="e" d="M41.215,74.81H70.427a1.508,1.508,0,0,0,0-3.016H41.215a1.508,1.508,0,0,0,0,3.016Z"/><path class="e" d="M41.215,83.656H70.427a1.508,1.508,0,0,0,0-3.016H41.215a1.508,1.508,0,1,0,0,3.016Z"/><g class="f" transform="translate(39.262 21.252)"><rect class="g" width="18" height="25" rx="5"/><rect class="a" x="1.5" y="1.5" width="15" height="22" rx="3.5"/></g></g></g></svg>