<svg xmlns="http://www.w3.org/2000/svg" xmlns:xlink="http://www.w3.org/1999/xlink" width="290" height="290" viewBox="0 0 290 290"><defs><style>.a{fill:#fff;}.b{clip-path:url(#a);}.c{fill:#f2c72f;}.d{fill:#221e1f;}</style><clipPath id="a"><rect class="a" width="290" height="290" transform="translate(195 1447)"/></clipPath></defs><g transform="translate(-195 -1447)"><g class="b"><g transform="translate(195.005 1472.537)"><path class="c" d="M76.059,11.373a281.876,281.876,0,0,0-2.593,60.115c0,1.206,1.956,1.228,1.888,0A280.194,280.194,0,0,1,77.879,11.8c.182-1.206-1.638-1.706-1.82-.5Z"/><path class="c" d="M158.942,74.49a335.216,335.216,0,0,1-73.171-3.025c-1.205-.182-1.706,1.638-.5,1.82a338.336,338.336,0,0,0,73.671,3.093C160.148,76.378,160.17,74.422,158.942,74.49Z"/><path class="c" d="M81.268,81.177q27.567,22.427,54.088,46.059c.91.8,2.275-.523,1.342-1.342Q110.177,102.353,82.61,79.835C81.677,79.062,80.335,80.4,81.268,81.177Z"/><path class="c" d="M76.15,82.178A158.9,158.9,0,0,1,48.015,110.4c-.955.751.387,2.07,1.342,1.342A161.216,161.216,0,0,0,77.788,83.133C78.516,82.178,76.878,81.245,76.15,82.178Z"/><path class="c" d="M10.736,40.8c10.531,6.278,19.22,15.262,28.772,22.881A314.538,314.538,0,0,0,69.713,85.044c1.024.637,1.979-1,.955-1.638a309.808,309.808,0,0,1-30.91-21.994c-9.28-7.483-17.787-16.195-28.09-22.29a.932.932,0,1,0-.933,1.615Z"/><path class="d" d="M97.462,69.327a15.148,15.148,0,0,0-18.856-8.689,15.353,15.353,0,0,0-8.62,18.969,15.6,15.6,0,0,0,18.719,9.1,12.987,12.987,0,0,0,9.1-8.8A16.695,16.695,0,1,0,85.817,91.526a15.922,15.922,0,0,0,11.554-18.2A14.557,14.557,0,0,0,81.609,60.752c-7.46.66-14.056,6.346-13.647,14.216.409,7.369,6.551,14.716,14.4,14.034s15.012-9.507,11.714-17.377a12.851,12.851,0,0,0-17.309-6.1c-6.141,3.457-6.141,11.987-2,16.968A9.3,9.3,0,0,0,90.5,80.222c2.82-5.641.705-14.307-6.824-14.125-6.346.136-12.783,7.46-9.439,13.647a8.848,8.848,0,0,0,9.917,4.413,7.438,7.438,0,0,0,4.936-8.6A6.027,6.027,0,0,0,81.2,71.01a6.482,6.482,0,0,0-4.549,7.961A6.823,6.823,0,0,0,84.5,82.883a5.55,5.55,0,0,0,3.98-7.574,6.482,6.482,0,0,0-7.961-4.049,1.751,1.751,0,0,0-1.183,2.093,4.89,4.89,0,0,0,7.1,3.116c1.911-1.046.2-3.98-1.729-2.934A1.433,1.433,0,0,1,82.61,72.42l-1.183,2.093c2.07-.8,5.14,1.751,3.867,3.98-1,1.751-4,1.319-5.095,0-1.592-2.047,1.137-4.435,3.162-4.39,2.843,0,3.048,3.889,1.683,5.664-1.8,2.275-5.573,1.5-7.256-.546a4.845,4.845,0,0,1,.273-6.1c2.456-3.366,8.438-5.027,10.167,0,1.274,3.685-1.228,9.1-5.254,9.758-4.776.842-7.87-4.549-7.642-8.711.273-5.254,5.6-7.256,10.1-5.8a8.188,8.188,0,0,1,4.845,12.214,9.712,9.712,0,0,1-14.489,3.207,11.372,11.372,0,0,1-3-14.216A12.214,12.214,0,0,1,86,64.641a11.532,11.532,0,0,1,8.234,12.237A12.282,12.282,0,0,1,83.975,88.546a12.851,12.851,0,0,1-14.329-7.8,12.987,12.987,0,0,1,4.549-15.6,13.124,13.124,0,0,1,16.49,1.024c4.549,4.3,6.482,12.646,1.251,17.218a12.191,12.191,0,0,1-15.421-.318,11.486,11.486,0,0,1-1.82-14.9A10.758,10.758,0,0,1,88.706,64.5a11.054,11.054,0,0,1,5.436,5.732c.773,2,4.071,1.137,3.275-.91Z"/><path class="d" d="M169.723,72.284a8.393,8.393,0,0,0-10.3-5.959,8.734,8.734,0,0,0-5.277,11.145,9.1,9.1,0,0,0,11.372,5.072,9.78,9.78,0,0,0,5.754-11.691,1.706,1.706,0,0,0-3.275.91,6.414,6.414,0,0,1-3.366,7.506,5.845,5.845,0,0,1-7.233-2.661,5.345,5.345,0,0,1,2.638-6.824,4.958,4.958,0,0,1,6.369,3.5c.5,2.138,3.776,1.228,3.275-.91Z"/><path class="d" d="M15.239,39.44c1.16-6.46-6.619-11.873-12.009-7.6A8.484,8.484,0,0,0,4.89,46.2c5.936,2.661,14.147-1.524,12.487-8.734a8.78,8.78,0,0,0-15.33-3.48C0,36.392-.387,41.35,3.594,42.215s7.051-3.253,8.12-6.414c.523-1.524-1.274-2.525-2.5-1.933a19.743,19.743,0,0,0-7.529,6.414c-1.16,1.592,1.342,3.389,2.661,2.047a7.574,7.574,0,0,0,1-9.507,1.729,1.729,0,0,0-1.911-.773A4.071,4.071,0,0,0,1.3,38.234c1.933,3.366,6.391,2.115,9.1.591L8.347,36.165c-2.275,2.024-3.162,6.118-.387,8.165a4.344,4.344,0,0,0,6.664-2c.591-1.8-2.275-3.071-3.116-1.3a1.888,1.888,0,0,1-1.933,1.342,1.706,1.706,0,0,0,0,3.412,5.118,5.118,0,0,0,4.867-3.048l-3.071-1.3c-.227.637-1.274.3-1.547,0-.682-.91.3-2.275.933-2.8,1.478-1.3-.409-3.571-2.047-2.661-1.024.569-3.048,1.729-4.185.864-.364-.273-.8-1.3-.182-1.433l-1.911-.8a4.185,4.185,0,0,1-.478,5.413L4.64,42.078a16.513,16.513,0,0,1,6.323-5.186l-2.5-1.911a6.823,6.823,0,0,1-2.047,3.093c-.842.705-2.707,1.615-2.479-.273.227-2.365,3.116-3.821,5.163-3.685a5.436,5.436,0,0,1,5,4.276,4.549,4.549,0,0,1-3.844,5.163c-4.14.8-8.211-2.616-6.505-6.96A4.185,4.185,0,0,1,8.3,33.708a4.549,4.549,0,0,1,3.753,4.822c-.387,2.138,2.889,3.048,3.3.91Z"/><path class="d" d="M84.293,8.6A9.53,9.53,0,0,0,76.81.159,8.643,8.643,0,0,0,67.325,5.14,8.643,8.643,0,0,0,69.4,15.671a9.53,9.53,0,0,0,10.69.91,9.1,9.1,0,0,0,2.8-12.032c-1.137-1.865-4.094-.159-2.957,1.706a5.459,5.459,0,0,1-2.593,7.893,5.868,5.868,0,0,1-7.369-3.457,6,6,0,0,1,3.685-7.1,5.914,5.914,0,0,1,7.233,5C81.086,10.872,84.5,10.872,84.293,8.6Z"/><path class="d" d="M71.76,1.16a11.213,11.213,0,0,0-4.3,6.551A1.729,1.729,0,0,0,70.3,9.371l6.05-4.822L73.694,2.434l-6.346,9.985a1.706,1.706,0,0,0,2.684,2.047l7.3-7.847-2.638-2.07c-1.319,2.707-2.661,5.413-3.98,8.143-.705,1.433.773,3.275,2.274,2.275l6.983-4.344L77.7,8.347a21.926,21.926,0,0,1-3.116,4.344,1.706,1.706,0,0,0,1.66,2.843l4.117-.751c2.274-.387,1.251-3.685-.887-3.275l-4.14.751,1.66,2.843a26.2,26.2,0,0,0,3.639-5.027A1.729,1.729,0,0,0,78.357,7.8l-7.028,4.276L73.6,14.352l3.98-8.12c.864-1.683-1.228-3.5-2.525-2.024l-7.438,7.847,2.661,2.07,6.346-9.962c1.115-1.751-1.274-3.207-2.661-2.07L67.917,6.96,70.76,8.62a7.529,7.529,0,0,1,2.729-4.549c1.706-1.319,0-4.276-1.729-2.934Z"/><path class="d" d="M50.676,111.109a9.257,9.257,0,0,0-10.417-7.1,8.325,8.325,0,0,0-6.619,10.235,8.143,8.143,0,0,0,11.373,5,11.554,11.554,0,0,0,6.823-10.963c0-2.274-3.48-2.274-3.389,0a8.279,8.279,0,0,1-3.889,7.369,4.958,4.958,0,0,1-7.483-1.933,4.867,4.867,0,0,1,3.571-6.414,5.8,5.8,0,0,1,6.824,4.549,1.711,1.711,0,1,0,3.3-.91Z"/><path class="d" d="M138.4,130.033a7.847,7.847,0,0,0-10.031-5.8,8.347,8.347,0,0,0-4.367,11.145,9.1,9.1,0,0,0,11.645,4.026,10.031,10.031,0,0,0,5.049-12.169c-.66-2.07-3.935-1.183-3.275.91a6.824,6.824,0,0,1-2.434,7.8,5.755,5.755,0,0,1-7.62-1.5,4.981,4.981,0,0,1,1.683-6.824,4.39,4.39,0,0,1,6.073,3.275c.364,2.161,3.639,1.251,3.275-.887Z"/><path class="c" d="M223.606,93.937a8.712,8.712,0,0,1-1.069,3.5,1.183,1.183,0,0,0,1.865,1.433l3.844-3.139-1.66-1.683c-1.547,1.751-3.071,3.5-4.549,5.231-.842.978.25,2.616,1.456,1.865,1.751-1.115,3.5-2.274,5.277-3.321l-1.433-1.865q-3.821,3.48-7.6,7.005c-1.137,1.024.546,2.684,1.66,1.66a17.059,17.059,0,0,1,4.549-2.934l-1.433-1.842a59.271,59.271,0,0,1-6.164,6.369c-1.024.887.318,2.638,1.433,1.865l4.344-3.048-1.615-1.615a30.841,30.841,0,0,1-4.822,5.072l1.683,1.66a19.493,19.493,0,0,1,5.8-3.867l-1.137-1.979c-2.275,2.456-4.549,4.936-6.824,7.392-1.046,1.115.569,2.775,1.66,1.683a19.674,19.674,0,0,1,5.186-3.662l-1.433-1.865-7.392,7.483c-.91.933.3,2.638,1.456,1.865l3.935-2.775-1.433-1.865c-1.478,1.842-2.98,3.662-4.549,5.482-.773.955.273,2.752,1.433,1.865l3.867-2.866-1.433-1.865a48.334,48.334,0,0,0-5.936,7.324c-.8,1.205.887,2.274,1.865,1.433l5.914-4.867-1.683-1.683L211.3,125.1c-.91.955.273,2.616,1.433,1.865l6.323-4.049-1.433-1.865q-3.525,3.548-7.005,7.119a1.183,1.183,0,0,0,1.16,1.979,8.3,8.3,0,0,0,5.186-3.139c.887-1.183-.591-2.82-1.683-1.683a51.313,51.313,0,0,0-5.823,7.119c-.728,1.069.66,2.07,1.615,1.615l4.344-2.024-1.433-1.842-6.824,7.574a1.183,1.183,0,0,0,1.683,1.66l4.549-3.616c-.546-.569-1.115-1.115-1.683-1.683l-6.3,6.6a1.183,1.183,0,0,0,1.433,1.865,10.372,10.372,0,0,0,5.3-7.506,1.225,1.225,0,1,0-2.274-.91,100.994,100.994,0,0,1-6.346,9.667c-.8,1.069,1.024,2.5,1.865,1.433a9.712,9.712,0,0,1,3.207-2.707c-.478-.614-.978-1.228-1.456-1.865a27.021,27.021,0,0,0-4.185,6.482A1.183,1.183,0,0,0,205,148.366a13.51,13.51,0,0,1,4.413-3.685l-1.615-1.638a59.136,59.136,0,0,1-7.529,9.1l1.683,1.683a30.343,30.343,0,0,1,5.982-5.072l-1.615-1.615-6.164,8.393,2.047,1.183a5.231,5.231,0,0,1,3.253-2.911c-.455-.591-.91-1.16-1.342-1.751q-3.207,4.549-6.824,8.939a1.183,1.183,0,0,0,1.433,1.865,15.057,15.057,0,0,0,5.823-5.322l-2.047-1.183a49.107,49.107,0,0,1-5.049,7.551,1.19,1.19,0,1,0,1.683,1.683l3.23-2.525c-.569-.546-1.115-1.115-1.683-1.683l-6.824,7.711,1.751,1.5,5.163-6.824-2.07-1.205-5.413,9.1a1.183,1.183,0,0,0,1.842,1.456l5.527-5.663-1.683-1.683-7.1,7.938,1.842,1.433a12.783,12.783,0,0,1,2.889-2.866l-1.729-1.683a44.056,44.056,0,0,1-6.6,8.734c-.91.933.3,2.661,1.433,1.865l3.753-2.616c-.546-.523-1.069-1.069-1.615-1.615a28.408,28.408,0,0,1-3.23,4.549,1.19,1.19,0,0,0,1.683,1.683l4.231-3.889-1.865-1.456a36.62,36.62,0,0,1-5.8,7.642l1.865,1.433a12.964,12.964,0,0,1,3.207-3.093l-1.638-1.615a45.788,45.788,0,0,1-5.277,7.711,1.19,1.19,0,0,0,1.683,1.683l2.843-2.5-1.865-1.433-3.616,6.391a1.19,1.19,0,0,0,1.865,1.433l4.026-3.253-1.865-1.433-5.118,6.824c-.705.955.682,2.275,1.615,1.638l3.844-2.707-1.615-1.615a18.2,18.2,0,0,1-4.276,5.618l2.024.842.569-.887-1.729-1.342a3.98,3.98,0,0,1-1.137,2.434l1.865,1.433a187.851,187.851,0,0,0,14.875-34.436c.432-1.342-1.456-1.979-2.275-.91l-3.867,5.663c-.864,1.274,1.183,2.456,2.047,1.205l3.867-5.686-2.275-.91a184.1,184.1,0,0,1-14.625,33.913,1.183,1.183,0,0,0,1.865,1.433,5.982,5.982,0,0,0,1.729-3.48c.136-.933-.773-1.979-1.729-1.342a3.571,3.571,0,0,0-1.751,2.934,1.216,1.216,0,0,0,2.024.842,19.743,19.743,0,0,0,4.549-6.118c.455-.955-.569-2.274-1.638-1.615l-3.821,2.684,1.615,1.638,5.118-6.824c.887-1.16-.91-2.275-1.865-1.433l-3.753,3.321,1.865,1.433,3.616-6.369a1.205,1.205,0,0,0-1.865-1.456l-2.843,2.5,1.683,1.683a49.519,49.519,0,0,0,5.663-8.188c.523-.978-.614-2.274-1.638-1.638a16.24,16.24,0,0,0-4.049,3.935c-.819,1.114.933,2.274,1.865,1.456a41.419,41.419,0,0,0,6.187-8.12,1.183,1.183,0,0,0-1.865-1.433l-4.253,3.889c.569.569,1.137,1.115,1.683,1.683a32.07,32.07,0,0,0,3.594-5.14c.546-.978-.614-2.275-1.615-1.638l-3.753,2.616L189.943,181a45.967,45.967,0,0,0,6.96-9.234c.569-.955-.614-2.275-1.615-1.615a16.968,16.968,0,0,0-3.73,3.707c-.773,1.092.978,2.434,1.865,1.456,2.275-2.661,4.754-5.3,7.119-7.938,1-1.137-.614-2.8-1.683-1.683l-5.527,5.664,1.865,1.433q2.684-4.549,5.436-9.1c.8-1.365-1.16-2.274-2.07-1.205-1.706,2.275-3.412,4.549-5.14,6.824-.819,1.092.978,2.434,1.865,1.456l6.824-7.711a1.19,1.19,0,1,0-1.683-1.683L197.2,163.9l1.683,1.683a51.926,51.926,0,0,0,5.413-8.052,1.183,1.183,0,0,0-2.047-1.183,12.805,12.805,0,0,1-4.958,4.549l1.433,1.865q3.821-4.549,7.187-9.416a1.205,1.205,0,0,0-1.342-1.751,7.6,7.6,0,0,0-4.549,4.026,1.183,1.183,0,0,0,2.047,1.183l6.278-8.347c.728-.955-.682-2.275-1.615-1.615a33.709,33.709,0,0,0-6.482,5.436c-1.024,1.115.591,2.775,1.683,1.683a63.889,63.889,0,0,0,7.893-9.621,1.187,1.187,0,0,0-1.638-1.615,15.922,15.922,0,0,0-5.254,4.549l2.047,1.183a24.314,24.314,0,0,1,3.821-5.982,1.183,1.183,0,0,0-1.433-1.865,11.987,11.987,0,0,0-3.685,3.071l1.865,1.456c2.275-3.116,4.549-6.3,6.482-9.6l-2.275-.91a8.347,8.347,0,0,1-4.231,6.1l1.433,1.865,6.323-6.6c1.092-1.137-.5-2.616-1.683-1.683l-4.549,3.639,1.683,1.66,6.824-7.574a1.183,1.183,0,0,0-1.433-1.865l-4.344,2.024,1.615,1.615a49.083,49.083,0,0,1,5.459-6.619l-1.683-1.683a6.482,6.482,0,0,1-4.14,2.525l1.16,2c2.275-2.388,4.549-4.754,6.983-7.119.933-.955-.273-2.616-1.433-1.865l-6.209,4.049,1.433,1.865,7.415-7.8a1.19,1.19,0,0,0-1.683-1.683l-5.914,4.867,1.865,1.456a45.943,45.943,0,0,1,5.55-6.824c.91-.933-.318-2.684-1.433-1.865l-3.821,2.752,1.433,1.865,4.549-5.482c.8-.955-.227-2.707-1.433-1.865l-4,2.775,1.433,1.865,7.369-7.506a1.183,1.183,0,0,0-1.433-1.865,22.085,22.085,0,0,0-5.641,4.049l1.66,1.683q3.48-3.685,6.824-7.415c.751-.773,0-2.456-1.137-1.979a22.245,22.245,0,0,0-6.824,4.549c-1.115,1.069.523,2.638,1.683,1.66a33.185,33.185,0,0,0,5.049-5.573c.705-.955-.682-2.274-1.615-1.638l-4.367,3.048,1.433,1.865a57.637,57.637,0,0,0,6.3-6.391,1.183,1.183,0,0,0-1.433-1.865,18.2,18.2,0,0,0-5.118,3.321l1.66,1.66,7.62-7.005a1.205,1.205,0,0,0-1.456-1.865L222.219,99.1l1.433,1.865,4.549-5.231a1.183,1.183,0,0,0-1.66-1.683L222.7,97.189l1.865,1.456a12.26,12.26,0,0,0,1.387-4.708c.136-1.524-2.274-1.524-2.274,0Z"/><path class="c" d="M266.776,104.763l4.549,2c1.387.614,2.593-1.433,1.205-2.047l-4.549-2.024c-1.387-.591-2.593,1.433-1.183,2.07Z"/><path class="c" d="M261.977,117.273l4.708,1.592c1.456.5,2.07-1.8.637-2.274l-4.708-1.615c-1.456-.5-2.07,1.8-.637,2.275Z"/><path class="c" d="M252.811,135.31l3.844,1.706a1.183,1.183,0,1,0,1.183-2.047l-3.844-1.706a1.228,1.228,0,0,0-1.615.432A1.183,1.183,0,0,0,252.811,135.31Z"/><path class="c" d="M247.056,147.342l5.277,3.184a1.188,1.188,0,0,0,1.205-2.047l-5.277-3.184C246.965,144.5,245.76,146.546,247.056,147.342Z"/><path class="c" d="M236.343,173.34l4.026,2.274c1.342.751,2.547-1.3,1.205-2.047l-4.026-2.275a1.188,1.188,0,1,0-1.206,2.047Z"/><path class="c" d="M228.019,188.26a16.923,16.923,0,0,1,4.549,2.275c1.251.887,2.434-1.183,1.183-2.047a17.422,17.422,0,0,0-5.095-2.5c-1.456-.478-2.07,1.82-.614,2.275Z"/><path class="c" d="M218.352,212.916a16.513,16.513,0,0,1,5.231,2.57c1.228.91,2.411-1.137,1.205-2.047a17.854,17.854,0,0,0-5.8-2.82,1.183,1.183,0,0,0-.637,2.275Z"/><path class="c" d="M248.08,205.729a168.307,168.307,0,0,0-7.506,17.855c-.387,1.092,1.228,2.07,1.979,1.16A166.429,166.429,0,0,0,254.107,209l-2.274-.91a135.491,135.491,0,0,1-9.485,19.083c-.773,1.342,1.16,2.411,2.047,1.183q7.688-10.8,14.329-22.313a1.183,1.183,0,0,0-2.047-1.183,129.284,129.284,0,0,0-11.031,21.653c-.432,1.092,1.251,2.024,1.979,1.137,4.981-5.868,9.507-12.078,14.034-18.2l-2.047-1.205-10.235,19.038c-.614,1.137.933,2.479,1.865,1.433a103.469,103.469,0,0,0,13.1-19.856,1.183,1.183,0,0,0-2.047-1.183q-5.845,10.281-11.168,20.812c-.5,1,.569,2.275,1.638,1.615,2.957-1.933,4.8-5.391,6.824-8.211,2.638-3.73,5.254-7.46,7.893-11.168l-2.047-1.205-10.485,20.88A1.188,1.188,0,0,0,257,231.612l15.558-23.2-2.275-.933a59.547,59.547,0,0,1-5.391,13.147c-1.023,1.956-2.047,3.889-2.98,5.891a7.438,7.438,0,0,0-1.114,5,1.183,1.183,0,0,0,1.979.523l15.08-19.242-1.865-1.433-6.824,12.487c-1.092,2-2.274,4-3.3,6.027a6.232,6.232,0,0,0-1.137,4.685,1.183,1.183,0,0,0,1.979.523c.842-.91,1.683-1.842,2.5-2.775s-.637-2.82-1.66-1.683l-2.525,2.8,2,.523c-.387-1.683,1.865-4.663,2.638-6.1l2.866-5.231,5.5-10.053c.614-1.137-1-2.547-1.865-1.456l-15.057,19.265,1.979.523c-.478-1.956,1.842-5.186,2.707-6.824s1.8-3.412,2.661-5.14a50.881,50.881,0,0,0,4.3-10.94,1.225,1.225,0,0,0-2.274-.91l-15.558,23.2,2.047,1.205q5.254-10.44,10.485-20.88a1.188,1.188,0,0,0-2.047-1.205l-6.824,9.621c-2.047,2.889-4.049,6.824-7.051,8.916l1.615,1.638q5.322-10.554,11.168-20.834l-2.047-1.183a101.464,101.464,0,0,1-12.737,19.379l1.865,1.433,10.235-19.038a1.188,1.188,0,0,0-2.047-1.206c-4.39,6.05-8.825,12.1-13.647,17.832l1.979,1.137A128.781,128.781,0,0,1,258.7,206.024l-2.047-1.183q-6.664,11.372-14.329,22.313l2.047,1.183a137.022,137.022,0,0,0,9.735-19.629c.478-1.319-1.478-2-2.274-.91a169.951,169.951,0,0,1-11.168,15.239l1.979,1.16a159.913,159.913,0,0,1,7.551-17.218c.682-1.365-1.365-2.57-2.047-1.183Z"/><path class="d" d="M178.753,197.882Q199.7,144.34,220.627,90.707l-2.638,1.5a50.4,50.4,0,0,1,17.787,7.028c-.273-.978-.523-1.956-.773-2.934q-20.471,46.673-40.691,93.255c-.955,2.275-1.911,4.344-2.843,6.505a39.736,39.736,0,0,1-2.684,6.118c-1.319,1.979-3.571,0-5.3-.933l-6.369-3.23c-2.456-1.228-4.549,2.456-2.274,3.685a86.818,86.818,0,0,0,11.1,5.5c3.253,1.092,5.5-.842,6.824-3.685,3.889-8.461,7.46-17.081,11.168-25.611l22.154-50.79,12.737-28.659a2.274,2.274,0,0,0-.773-2.934,53.837,53.837,0,0,0-18.787-7.438,2.274,2.274,0,0,0-2.616,1.5q-21.039,53.7-42.01,107.22c-1,2.57,3.116,3.685,4.117,1.137Z"/><path class="d" d="M173.294,200a107.084,107.084,0,0,1-1.478,23.041c-.3,1.592,1.478,3.662,3.139,2.411a96.644,96.644,0,0,0,19.151-19.379c1.638-2.275-2.07-4.322-3.685-2.138a89.684,89.684,0,0,1-17.559,17.832L176,224.175A111.769,111.769,0,0,0,177.638,200c0-2.729-4.39-2.752-4.276,0Z"/><path class="d" d="M201,212.211q26.134-53.633,50.562-108.062,6.823-15.285,13.647-30.66l-2.411.978c5.777,2.274,11.372,4.89,17.1,7.62.955.455,2.547.933,2.5,2.275a16.056,16.056,0,0,1-1.956,4.344c-1.456,3.162-2.889,6.346-4.322,9.507q-7.847,17.286-15.717,34.572l-31.843,69.986-4.549,9.94c-.728,1.592-1.433,3.184-2.274,4.754a9.1,9.1,0,0,1-1.046,2.275c-.682.682,0,.751-1.342.364a71.416,71.416,0,0,1-9.1-4.549l-9.985-4.936c-2.456-1.205-4.549,2.479-2.274,3.685,6.369,3.162,12.692,6.46,19.151,9.462a4.981,4.981,0,0,0,6.187-.455,9.735,9.735,0,0,0,1.842-2.82c.91-2,1.82-4.026,2.752-6.05l17.718-38.894q17.878-39.3,35.732-78.629c1.547-3.389,3.23-6.824,4.549-10.213a5.482,5.482,0,0,0-1.842-7.119,59,59,0,0,0-9.871-4.776c-3.434-1.547-6.823-3.025-10.394-4.549a2.138,2.138,0,0,0-2.411.978q-23.95,54.588-49.607,108.494-7.1,15.239-14.489,30.319c-1.205,2.456,2.479,4.549,3.685,2.274Z"/><path class="d" d="M238.686,228.269q6.05-13.647,12.783-26.839,3.366-6.619,6.824-13.169c.751-1.365,2.138-5.277,3.616-5.436a10.441,10.441,0,0,1,2.934.637c1.387.341,2.775.705,4.14,1.114a78.268,78.268,0,0,1,13.4,5.322,11.032,11.032,0,0,1,2.661,1.41c1.092,1.183,0,2.525-.432,3.707q-1.638,3.935-3.344,7.847Q275.237,216.51,268.459,230c-.546,1.069-1.069,2.274-1.66,3.23a4.345,4.345,0,0,1-.8,1.3c-.751.409-1.933-.136-2.661-.409-2.57-.91-5.072-2-7.551-3.116a164.321,164.321,0,0,1-14.693-7.6,2.165,2.165,0,1,0-2.275,3.685,161.481,161.481,0,0,0,15.558,7.961c2.57,1.115,5.14,2.275,7.779,3.207a6.6,6.6,0,0,0,6.3-.3,17.2,17.2,0,0,0,3.844-6.209c1.433-2.843,2.866-5.709,4.231-8.575q3.958-8.165,7.642-16.49c1.092-2.5,2.161-5,3.23-7.506s2.889-5.277,2.547-7.915-2.275-3.434-4.322-4.549c-2.434-1.3-4.936-2.456-7.483-3.5a56.635,56.635,0,0,0-16.331-4.8c-2.547-.182-3.707,1.205-4.867,3.253-1.478,2.616-2.911,5.277-4.322,7.915q-9.553,17.923-17.787,36.392c-1.115,2.479,2.57,4.549,3.685,2.138Z"/><path class="d" d="M249.877,205.251a126.532,126.532,0,0,1,27.726,8.188c2.5,1.069,4.549-2.616,2.138-3.685a130.284,130.284,0,0,0-28.727-8.62c-2.684-.478-3.844,3.639-1.137,4.117Z"/><path class="d" d="M218.784,90.98l1.3-2.911c.182-.432.5-1.751.864-1.911s2.456,1.046,2.889,1.251l2.866,1.433,11.031,5.5L237.185,93c-.364.864-.728,1.706-1.069,2.57-.591,1.387,1.706,2,2.275.614l1.092-2.547a1.205,1.205,0,0,0-.546-1.342l-15.125-7.574c-1.342-.682-2.934-1.683-4.322-.546a15.922,15.922,0,0,0-2.752,5.55c-.614,1.387,1.433,2.593,2.047,1.205Z"/><path class="d" d="M222.583,92.64,179.367,200.7c-.569,1.433,1.729,2.047,2.275.637Q203.2,147.3,224.857,93.277C225.4,91.867,223.128,91.253,222.583,92.64Z"/><path class="d" d="M228.178,95.142a550.578,550.578,0,0,1-20.7,54.156c-7.779,18.2-15.649,36.233-23.473,54.361-.591,1.387,1.456,2.593,2.047,1.205q11.907-27.6,23.837-55.2a554.734,554.734,0,0,0,20.47-53.906c.455-1.456-1.842-2.07-2.274-.614Z"/><path class="d" d="M175.569,211.529a52.312,52.312,0,0,0,8.916,2.07c1.478.227,2.274-2,.637-2.275l-7.984-1.433c-.682,0-1.615.318-1.524,1.137a16.489,16.489,0,0,1,0,4.731c-.182,1.046,1.114,2.138,1.979,1.137a10.167,10.167,0,0,0,2.07-3.639l-2.275-.637a14.079,14.079,0,0,1-1.274,4.413l2.161.91a11.85,11.85,0,0,1,2.275-4.026l-1.979-1.16c-.523,1.251-1.024,2.5-1.547,3.73s1.251,2.024,2,1.16a37.616,37.616,0,0,1,4.867-4.549l-2-1.137a12.828,12.828,0,0,1-2.479,3.912c-1.024,1.115.66,2.8,1.683,1.683a15.921,15.921,0,0,0,3.093-4.981c.5-1.228-1.183-1.774-1.979-1.137a35.962,35.962,0,0,0-4.867,4.549l1.979,1.16c.5-1.251,1.024-2.5,1.524-3.73s-1.228-2.047-1.979-1.16a14.943,14.943,0,0,0-2.82,5.095,1.246,1.246,0,0,0,2.275.91,16.65,16.65,0,0,0,1.365-5.095,1.183,1.183,0,0,0-2.274-.637,7.233,7.233,0,0,1-1.456,2.616l1.979,1.137a17.535,17.535,0,0,0,.159-5.345l-1.5,1.16,7.984,1.41c.2-.751.409-1.524.637-2.274a53.973,53.973,0,0,1-9.007-1.979C174.75,208.776,174.136,211.051,175.569,211.529Z"/><path class="d" d="M269.278,93.891a29.8,29.8,0,0,0,7.984,3.912c1.433.5,2.07-1.8.614-2.275a28.454,28.454,0,0,1-7.415-3.753c-1.251-.887-2.434,1.183-1.183,2.047Z"/><path class="d" d="M258.042,123.437a28.158,28.158,0,0,0,7.506,3.707c1.456.455,2.07-1.82.614-2.274a25.588,25.588,0,0,1-6.823-3.457c-1.274-.887-2.456,1.183-1.205,2.047Z"/><path class="d" d="M239.05,159.329a38.393,38.393,0,0,0,7.847,2.8c1.478.364,2.115-1.933.637-2.274a37.621,37.621,0,0,1-7.3-2.57c-1.365-.66-2.57,1.387-1.183,2.047Z"/><path class="d" d="M221.059,202.067l9.689,3.548c1.456.523,2.07-1.751.637-2.275l-9.689-3.571c-1.433-.523-2.047,1.774-.637,2.275Z"/></g></g></g></svg>