<svg xmlns="http://www.w3.org/2000/svg" xmlns:xlink="http://www.w3.org/1999/xlink" width="290" height="290" viewBox="0 0 290 290"><defs><style>.a{fill:#fff;}.b{clip-path:url(#a);}.c{fill:#f2c72f;}.d{fill:#221e1f;}</style><clipPath id="a"><rect class="a" width="290" height="290" transform="translate(195 1447)"/></clipPath></defs><g class="b" transform="translate(-195 -1447)"><g transform="translate(194.735 1464.064)"><path class="c" d="M107.793,127.452l-.255-.153c.23.383.46.766.664,1.149v.383l-1.3.332c.715.2,1.379,1.174,2.017,1.608a9.651,9.651,0,0,0,2.553,1.3,14.017,14.017,0,0,0,6.408.587,29.233,29.233,0,0,0,13.506-6.919l-1.608-2.094a14.042,14.042,0,0,0,2.553,19.2c7.047,6.128,16.749,6.1,25.531,5.821a1.353,1.353,0,0,0,0-2.553l-12.178-.638-5.591-.281a13.327,13.327,0,0,0-5.106,0c-2.221.664-2.221,3.5-2.221,5.438a21.829,21.829,0,0,0,2.323,9.727c.638,1.379,2.834.408,2.553-1.021-.689-2.349-1.353-4.7-2.042-7.021a13.761,13.761,0,0,1-1.072-3.779c.281-2.859,2.221-1.864,3.881-1.557l14.425,2.706c1.66.306,2.4-2.2.715-2.553a68.3,68.3,0,0,1-23.336-10.008,54.66,54.66,0,0,1-5.413-4.085,9.293,9.293,0,0,0-3.625-2.4,8.987,8.987,0,0,0-4.851,1.047,8.017,8.017,0,0,1-6.817-.791,1.333,1.333,0,1,0-1.353,2.3,10.8,10.8,0,0,0,4.9,1.583,17.029,17.029,0,0,0,5.617-1.2c2.757-.638,4.289,1.43,6.332,3.013,1.481,1.174,3.013,2.3,4.6,3.345a71.309,71.309,0,0,0,23.182,9.83c.23-.868.485-1.711.715-2.553l-10.953-2.043c-2.553-.485-6.2-1.915-8.706-.843a4.111,4.111,0,0,0-1.94,5.106c.766,3.625,2.094,7.225,3.115,10.774l2.553-1.021a18.663,18.663,0,0,1-2.068-8.553c0-1.251-.2-2.757,1.021-3.166a16.237,16.237,0,0,1,4.57.23l16.749.894v-2.553c-7.225.255-14.987.511-21.4-3.37-5.642-3.421-9.472-11.234-4.851-17.106.843-1.047-.306-3.089-1.608-2.094-4.545,3.472-9.83,7.532-15.906,6.587a9.165,9.165,0,0,1-3.6-1.328c-.843-.536-1.481-1.557-2.553-1.94a1.787,1.787,0,0,0-2.553,1.711,1.277,1.277,0,0,0,.664,1.149l.23.153c1.43.97,2.757-1.353,1.353-2.3Z"/><path class="c" d="M28.084,163.4a73.173,73.173,0,0,1-.357-13.583l-1.685,1.277a11.336,11.336,0,0,0,8.834-2.017c.46-.332,1.021-1.1,1.506-1.3,1.4-.638,1.711.332,2.553,1.021a7.4,7.4,0,0,0,3.625,1.43c6.893.868,12.536-6.459,17.055-10.6l-2.272-.945a9.013,9.013,0,0,1-8.4,9.83c-4.366,0-8.5-3.753-12.766-1.838a8.6,8.6,0,0,0-3.447,3.242,13.685,13.685,0,0,1-1.66,2.272c-.919.868-1.838.791-2.987,1.072a3.37,3.37,0,0,0-2.732,2.987c-.613,2.936-.843,5.974-1.251,8.936l2.553.357a33.191,33.191,0,0,1,2.553-13.966l-1.94.791a8.093,8.093,0,0,0,7.659.868,23.869,23.869,0,0,0,2.936-2.017c2.2-1.251,3.038.562,4.953,1.174,6.306,2.017,10.647-4.059,13.3-8.732l-2.094.255c1.889,2.017-.128,4.8-2.2,5.591a15.753,15.753,0,0,1-6.281.485,1.277,1.277,0,1,0,0,2.553c3.625.153,8.042.153,10.442-3.013a5.8,5.8,0,0,0,0-7.659,1.353,1.353,0,0,0-2.094.281,17.234,17.234,0,0,1-5.106,6.613,6.23,6.23,0,0,1-4.774,1.021,21.958,21.958,0,0,1-3.166-1.557,4.059,4.059,0,0,0-4.213.536c-2.553,1.889-4.774,3.4-7.966,1.277a1.328,1.328,0,0,0-1.94.791,34.825,34.825,0,0,0-2.706,14.68c0,1.4,2.4,1.889,2.553.332a54.28,54.28,0,0,1,1.251-8.91c.536-1.583,3.242-1.328,4.6-2.553s2.119-3.166,3.5-4.468c2.349-2.2,5.438-.74,8.042,0a11.668,11.668,0,0,0,11.336-1.2,11.387,11.387,0,0,0,4.749-10.213,1.353,1.353,0,0,0-2.272-.919c-2.323,2.119-4.621,4.34-7.021,6.408s-6.587,4.928-9.983,2.553c-1.736-1.2-2.706-2.885-5.106-1.762-1.226.587-2.068,1.787-3.242,2.553a8.374,8.374,0,0,1-5.745,1.047A1.353,1.353,0,0,0,25,149.69a73.172,73.172,0,0,0,.536,13.71C25.736,165.085,28.391,165.111,28.084,163.4Z"/><path class="c" d="M111.623,129.75a4.825,4.825,0,0,0-2.3-4.723c-1.3-.868-2.553,1.021-1.608,2.094,6.306,6.817,15.063.638,20.2-4.213l-2.094-1.608c-1.915,3.5-4.034,7.838-2.349,11.821s6.2,5.872,9.447,7.864c8.093,5.106,17,9.4,26.757,8.732a20.5,20.5,0,0,0-.332-2.553c-11.055,2.553-21.753-2.808-30.893-8.527a1.328,1.328,0,0,0-1.813.485c-1.506,2.553-.383,5.106.434,7.659,1.123,3.345,2.094,6.766,3.37,10.034,1.608,4.136,5.642,8.323,10.213,5.591a1.353,1.353,0,0,0,0-2.3c-5.617-3.753-13.225-10.6-8.476-17.872l-2.553-.664v3.6a1.353,1.353,0,0,0,2.553,0v-3.83a1.328,1.328,0,0,0-2.553-.664c-5.642,8.681,2.553,17.029,9.421,21.574v-2.3c-4.493,2.553-6.587-4.57-7.659-7.481l-1.838-5.54c-.587-1.787-2.17-4.7-1.047-6.51l-1.838.46c9.8,6.128,21.14,11.489,32.935,8.783a1.328,1.328,0,0,0-.357-2.553c-8.017.536-15.319-2.553-22.263-6.459-3.038-1.787-6.179-3.625-9.038-5.719-4.519-3.319-2.553-8.119-.255-12.229a1.353,1.353,0,0,0-2.094-1.634c-4.034,3.83-11.259,9.8-16.417,4.238l-1.634,2.068a2.17,2.17,0,0,1,1,2.553c-.2,1.711,2.553,1.685,2.553,0Z"/><path class="c" d="M117.444,198.889c1.072-2.834,4.6-2.706,6.842-1.634a23.974,23.974,0,0,1,5.719,4.442,105.826,105.826,0,0,1,9.983,10.6c1.1,1.328,2.962-.562,1.889-1.889a42.152,42.152,0,0,0-29.157-15.089c.128.868.255,1.762.357,2.553,12-2.987,21.14,7.021,26.884,16.136l2.3-1.353c-6.128-9.344-17-18.893-14.578-31.25l-2.553-.715c-1.1,6.689-1.736,14.757,4.928,18.791a1.353,1.353,0,0,0,1.991-1.149,46.543,46.543,0,0,1,3.906-16.8,1.379,1.379,0,0,0-.46-1.838c-4.519-2.86-6.664,4.953-7.072,7.889a23.336,23.336,0,0,0,3.319,15.319c.894,1.455,3.217,0,2.3-1.328a20.706,20.706,0,0,1-3.14-9.983c0-1.1.817-11.234,3.242-9.676l-.485-1.838a49.557,49.557,0,0,0-4.264,18.153l1.991-1.149c-5.489-3.038-4.6-10.238-3.728-15.625.255-1.66-2.247-2.4-2.553-.715-2.553,13.4,8.2,23.131,14.859,33.191.919,1.43,3.217,0,2.3-1.353-6.434-10.213-16.621-20.655-29.872-17.361a1.353,1.353,0,0,0,.332,2.553,39.369,39.369,0,0,1,27.267,14.3l1.889-1.889a69.164,69.164,0,0,0-15.115-14.783c-4.034-2.553-9.957-2.553-11.872,2.553-.613,1.608,1.966,2.3,2.553.715Z"/><path class="c" d="M142.26,215.28a19.046,19.046,0,0,1,12.051-17.872c-.357-.817-.689-1.634-1.021-2.553a84.738,84.738,0,0,0-13.046,9.217l1.889,1.864a34.442,34.442,0,0,1,11.31-9.344C156,195.263,161.1,194.038,159.8,190c-.536-1.66-1.787-2.936-2.272-4.672a12.766,12.766,0,0,1-.128-5.745,12.612,12.612,0,0,1,7.1-9.14c-.536-.689-1.1-1.379-1.634-2.094a25.812,25.812,0,0,0-9.217,19.761,1.353,1.353,0,0,0,2.553,0,26.782,26.782,0,0,1,10.851-19.94l-1.481-2.221a55.76,55.76,0,0,0-11.617,24.587c-.332,1.66,2.145,2.374,2.553.689A35.029,35.029,0,0,1,170.626,170.8a1.333,1.333,0,0,0-1.353-2.3,27.8,27.8,0,0,0-14.6,23.948l.97-1.277a27.446,27.446,0,0,0-21.293,18.97l2.221-.587A43.914,43.914,0,0,0,108.3,197.944c.23.817.46,1.66.664,2.553a21.625,21.625,0,0,1,18.689-3.115,1.328,1.328,0,0,0,.715-2.553,24.28,24.28,0,0,0-20.6,3.268,1.353,1.353,0,0,0,.664,2.553,41.233,41.233,0,0,1,26.4,10.825,1.328,1.328,0,0,0,2.221-.587,24.893,24.893,0,0,1,19.429-17.106,1.3,1.3,0,0,0,.97-1.277,25.148,25.148,0,0,1,13.3-21.651l-1.481-2.349a37.735,37.735,0,0,0-15.319,22.11l2.553.689a53.616,53.616,0,0,1,10.953-23.387c.843-1.072-.306-3.064-1.634-2.094a29.744,29.744,0,0,0-12.178,22.238H156.2a22.978,22.978,0,0,1,8.425-17.872c1.251-1.047-.332-2.553-1.608-2.094a15.625,15.625,0,0,0-8.247,17.591c.408,1.736,1.685,3.089,2.17,4.723.638,2.2-4.238,3.4-5.745,4.238a36.458,36.458,0,0,0-11.081,9.447A1.328,1.328,0,0,0,142,205.961a81.956,81.956,0,0,1,12.485-8.783c1.277-.715.434-2.987-1.021-2.425a21.778,21.778,0,0,0-13.991,20.578,1.328,1.328,0,0,0,2.553,0Z"/><path class="c" d="M48.969,200.548c10.672,2.936,20.093-3.472,28.084-9.625-.613-.613-1.2-1.226-1.813-1.813-4.7,7.225-14.451,3.728-20.731,1.072a1.328,1.328,0,0,0-1.94,1.506c.766,4.723,6.51,5.515,10.442,5.285A26.578,26.578,0,0,0,78.33,190.9l-1.736-1.966c-5.745,5.106-15.038,12.766-22.748,6.485l-1.608,2.094,7.149,3.651c1.532.791,2.885-1.506,1.353-2.3l-7.174-3.651c-1.251-.638-2.86,1.1-1.608,2.094,9.089,7.251,19.48-.179,26.527-6.485,1.3-1.174-.587-2.936-1.889-1.889a24.1,24.1,0,0,1-11.132,5.106c-2.987.485-9.447,1.047-10.213-3.089l-1.94,1.506c7.659,3.294,18.714,6.664,24.357-2.043.689-1.047-.74-2.553-1.813-1.813-7.481,5.668-16.238,12.076-26.144,9.344a1.328,1.328,0,0,0-.715,2.553Z"/><path class="c" d="M107.231,132.763a13.557,13.557,0,0,0,19.761-9.625,1.328,1.328,0,0,0-2.553-.715,26.042,26.042,0,0,0,3.728,23.821,19.889,19.889,0,0,1,3.7,5.31c.664,2.119-.638,4.162-.23,6.332a7.072,7.072,0,0,0,6.842,5.515,1.353,1.353,0,0,0,1.328-1.353,12.919,12.919,0,0,0-1.3-6.306,13.812,13.812,0,0,1-1.583-8.17c.434-3.089-.843-8.3-5.106-6.74-1.608.587-.919,3.166.715,2.553,2.885-1.047,1.634,4.34,1.557,5.54a10.774,10.774,0,0,0,.46,4.264c.945,3.013,2.885,5.617,2.553,8.885l1.328-1.328a4.213,4.213,0,0,1-4.34-4.366,24.817,24.817,0,0,0,.485-4.34c-.408-3.191-2.962-5.387-4.749-7.864a23.54,23.54,0,0,1-2.962-21.114l-2.553-.715a10.876,10.876,0,0,1-15.855,8.042c-1.506-.766-2.86,1.532-1.328,2.3Z"/><path class="c" d="M30.638,153.749a25.531,25.531,0,0,1-3.983,12.766l2.3,1.353a59.079,59.079,0,0,0,4.519-16.7c.179-1.532-2.2-1.711-2.553-.332a18.459,18.459,0,0,1-3.677,6.638c-1.123,1.3.74,3.191,1.889,1.889l2.911-3.294a15.319,15.319,0,0,1,2.732-3.089c1.481-.817,1.94.255,3.064.843a4.443,4.443,0,0,0,2.553.434,28.8,28.8,0,0,0,7.659-2.885l8.961-3.7c1.557-.638.894-3.217-.689-2.553l-9.447,3.906-4.213,1.608a4.825,4.825,0,0,1-5.106-.485,3.5,3.5,0,0,0-4.162.357,54.177,54.177,0,0,0-6.179,6.842c.613.638,1.251,1.277,1.889,1.889a21.676,21.676,0,0,0,4.34-7.838l-2.553-.357a55.148,55.148,0,0,1-4.162,15.319,1.333,1.333,0,0,0,2.3,1.353,28.212,28.212,0,0,0,4.366-14.093,1.342,1.342,0,0,0-2.681,0Z"/><path class="c" d="M53.182,197.714c4.085,2.094,9.14,4.545,13.685,2.553a7.3,7.3,0,0,0,4.264-9.013,1.353,1.353,0,0,0-1.966-.791c-3.4,2.4-1.353,7.276-4.851,9.574a6.51,6.51,0,0,1-6.766.179c-1.225-.689-5.387-4.493-4.391-6.179s5.106.306,6.408,1.021a12.153,12.153,0,0,0,5.489,2.221,4.953,4.953,0,0,0,5.438-5.821l-2.425,1.047a8.808,8.808,0,0,1,1.66,6.1,1.342,1.342,0,0,0,2.681,0,11.234,11.234,0,0,0-2.042-7.455,1.328,1.328,0,0,0-2.425,1.021c.791,2.911-3.6,2.553-4.876,1.838s-2.374-1.455-3.6-2.094a8.6,8.6,0,0,0-5.489-1.123c-1.43.23-3.421,1.2-3.753,2.783s1.532,4.621,2.553,5.9a9.83,9.83,0,0,0,11.055,3.6,8.272,8.272,0,0,0,4.34-3.37c1.123-1.889.562-5.847,2.323-7.072l-1.966-.791a4.928,4.928,0,0,1-4.34,6.332,16.57,16.57,0,0,1-9.676-2.783c-1.506-.766-2.86,1.532-1.353,2.323Z"/><path class="c" d="M24.944,152.549a123.137,123.137,0,0,0-2.962,17.872,1.359,1.359,0,0,0,1.991,1.149c5.438-2.553,4.391-9.115,4.979-13.991.511-4.008,2.272-6.536,6.613-5.974,2.732.357,5.106.689,7.174-1.481.613-.664,1.021-1.506,2.145-1.4A8.145,8.145,0,0,1,47.437,150a8.476,8.476,0,0,0,4.059,1.226A9.574,9.574,0,0,0,59,146.984c1.251-1.685,4.008-5.668,3.294-7.94s-3.677-1.762-5.106-.664c-2.681,1.94-3.14,5.745-5.923,7.659a7.659,7.659,0,0,1-10.034-1.813,1.379,1.379,0,0,0-1.889,0l-3.6,2.936c-1.277,1.149.613,3.038,1.889,1.864l3.472-3.166H39.216a10.213,10.213,0,0,0,15.319.306,39.652,39.652,0,0,0,2.553-3.983c.383-.587,1.608-2.783,2.119-1.506.2.485-1.277,2.757-1.532,3.217a8.068,8.068,0,0,1-5.9,4.545c-2.272.179-3.881-1.66-5.923-2.3a3.932,3.932,0,0,0-3.677.46c-.689.485-1.021,1.226-1.66,1.736a3.881,3.881,0,0,1-3.166.74c-3.242-.332-6.306-.97-8.706,1.736a13.481,13.481,0,0,0-2.553,8.527c0,3.447.179,8.093-3.5,9.8l1.991,1.149a116.885,116.885,0,0,1,2.936-17.106c.408-1.66-2.17-2.374-2.553-.715Z"/><path class="c" d="M109.529,131.078a12.536,12.536,0,0,0,17.617-3.217c1.991-3.166.562-5.591-3.294-4.979s-9.881,6.536-13.3,2.553l-1.608,2.094a12.97,12.97,0,0,0,7.072,1.328c2.17-.23,6.715-3.089,7.966-.562.74,1.481,0,4.059,0,5.668a7.021,7.021,0,0,0,1.66,4.494l1.608-2.094a12.612,12.612,0,0,1-5.106-5.77c-.485-1-1.762-.689-2.3,0a5.259,5.259,0,0,0,0,6.1,12.766,12.766,0,0,0,5.949,4.315,8.272,8.272,0,0,1,4.953,8.451c0,2.987-.587,6-.357,9.013.179,2.094.919,4.264,3.268,4.672a4.672,4.672,0,0,0,4.8-2.553,7.864,7.864,0,0,0-.587-7c-2.042-4.085-3.881-7.149-2.553-11.9l-2.247.587a15.063,15.063,0,0,0,17.566,4.621c1.557-.664.868-3.242-.715-2.553a12.561,12.561,0,0,1-14.936-3.932c-.638-.843-1.966-.281-2.221.587a15.6,15.6,0,0,0,2.145,12.766,8.145,8.145,0,0,1,1.506,4.519c-.306,2.936-3.242,2.553-3.4,0a53.31,53.31,0,0,1,.281-6.689,12.766,12.766,0,0,0-2.553-10.213c-2.119-2.17-11.9-4.876-8.579-9.166h-2.3a15.115,15.115,0,0,0,6.179,6.715,1.353,1.353,0,0,0,1.634-2.094c-2.553-2.911.74-7.787-2.042-10.825a4.928,4.928,0,0,0-5.336-.919c-3.523,1.123-6.332,2.119-9.957.383a1.353,1.353,0,0,0-1.608,2.094,6.485,6.485,0,0,0,6.332,1.94,13.965,13.965,0,0,0,4.085-1.455c1-.511,4.672-3.038,5.8-2.349,1.838,1.123-4.493,4.647-5.489,4.928a9.6,9.6,0,0,1-8.527-1.583c-1.353-1.047-2.681,1.251-1.328,2.3Z"/><path class="c" d="M162.073,167.383a22.391,22.391,0,0,0-9.727,13.583,57.037,57.037,0,0,0-2.068,8.783,6.459,6.459,0,0,0,1.4,6.127,4.289,4.289,0,0,0,5.8-.613c2.145-2.145,1.711-5.106,1.3-7.966-.919-5.8.281-13.71,6.817-15.625-.255-.843-.485-1.711-.715-2.553a17.131,17.131,0,0,0-8.323,7.047c-2.042,3.345-2.17,7.072-3.115,10.774a5.745,5.745,0,0,1-3.166,4.545,34.751,34.751,0,0,0-5.413,1.66,10.8,10.8,0,0,0-5.234,8.553,1.277,1.277,0,0,0,2.553,0,8.017,8.017,0,0,1,2.732-5.464,11.591,11.591,0,0,1,5.719-2.2,7.251,7.251,0,0,0,4.953-4.774c1.072-2.834,1.072-5.949,1.966-8.834a14.2,14.2,0,0,1,8.17-8.859c1.532-.613.97-3.064-.715-2.553a11.974,11.974,0,0,0-7.659,7.2,19.659,19.659,0,0,0-1.608,6.383c-.179,2.553.638,5.106.664,7.659a5.106,5.106,0,0,1-.536,2.553c-.74,1.2-2.247,1.66-3.038.153-.536-.97,0-2.885.179-3.881.46-2.374,1.021-4.749,1.711-7.047a19.889,19.889,0,0,1,8.681-12.357c1.506-.843.153-3.14-1.353-2.3Z"/><path class="d" d="M23.157,206.574a15.625,15.625,0,0,1-16.723-11A15.7,15.7,0,0,1,15.523,177.7a3.013,3.013,0,0,0,0-5.106c-9.906-5.106-10.213-18.944-4.672-27.37C18.51,133.86,34.569,132.15,46.9,133.478a3.013,3.013,0,0,0,2.885-2.2c4.417-11.77,11.847-25.787,24.842-29.616,9.7-2.885,22.978,1,25.531,11.9a3.038,3.038,0,0,0,5.106,1.328c8.808-6.945,20.885-14.17,32.6-11.387,8.936,2.119,17.642,11.157,14.706,20.859a3.038,3.038,0,0,0,5.106,2.911c8.119-7.659,23.668-12.383,32.68-3.345,6.23,6.281,6.893,19.506-1.813,24.153a3.038,3.038,0,0,0,.715,5.464c6.664,2.042,13.838,6.587,15.319,13.889,1.226,5.642-3.319,14.042-9.957,13-2.349-.357-4.953,1.991-3.4,4.417a47.488,47.488,0,0,1,3.319,45.369,36.1,36.1,0,0,1-16.442,17.872,22.978,22.978,0,0,1-23.667-3.906c-7.813-6.255-11.464-16.136-13-25.787a3.013,3.013,0,0,0-5.106-1.328c-7.864,9.013-18.561,18.638-31.3,18.536-10.213,0-21.242-8.144-20.093-19.1.306-2.808-3.37-3.651-5.106-2.119-8.374,7.251-19.965,12.357-31.148,9.549-9.906-2.553-17.872-10.6-17.54-21.216s7.659-19.608,16.391-24.842c9.906-5.923,22.008-8.6,33.344-10.213,5.8-.894,14.5-.613,16.646,6.23a4.34,4.34,0,0,1-1.915,5.336A3.421,3.421,0,0,1,91.07,179c-2.553-2.885-6.817,1.379-4.238,4.238,3.7,4.111,10.213,3.166,13.838-.357,4.749-4.494,3.5-11.566-.562-16.059C95,161.1,86.96,160.745,79.683,161.715a131.025,131.025,0,0,0-22.8,5.387c-13.378,4.57-25.531,13.021-30.255,26.91a26.936,26.936,0,0,0,13.149,32.935c15.191,7.94,32.3,2.145,44.476-8.323l-5.106-2.119c-1.43,13.557,11.54,23.693,23.923,24.97,15.063,1.532,28.467-9.6,37.71-20.17l-5.106-1.328a46.978,46.978,0,0,0,13,27.165,30.638,30.638,0,0,0,26.17,8.349c9.7-1.838,17.54-9.574,22.493-17.872a53.258,53.258,0,0,0,7.455-26.093,52.211,52.211,0,0,0-8.2-29.642l-3.447,4.493c9.983,1.557,18.255-7.659,17.744-17.489-.587-10.749-10.544-18.076-20.017-20.961.23,1.813.485,3.651.715,5.489,11.974-6.51,11.8-24.05,3.217-33.191-11.183-12.025-30.969-7.149-41.565,2.911l5.106,2.911c3.728-12.332-6.051-24.28-17.489-27.829-14.3-4.442-29,3.983-39.854,12.536l5.106,1.328c-3.294-13.838-19.3-19.582-31.838-16.6-15.88,3.8-24.97,20.042-30.255,34.135l2.885-2.2c-14.936-1.583-33.676,1.685-41.795,15.8-6.587,11.106-4.979,28.187,7.4,34.493v-5.106A20.961,20.961,0,0,0,24.74,212.344c3.8-.562,2.2-6.332-1.583-5.77Z"/><path class="d" d="M27.421,164.524a30.637,30.637,0,0,0,1.353-11.8l-1.685,1.3a10.34,10.34,0,0,0,13.046-5.106l-1.813.485a18.791,18.791,0,0,0,15.7.843,13.3,13.3,0,0,0,7.787-10.723c.179-1.711-2.553-1.685-2.553,0-1.021,9.6-12.357,10.876-19.506,7.659a1.353,1.353,0,0,0-1.813.485,7.659,7.659,0,0,1-10.034,3.855,1.353,1.353,0,0,0-1.685,1.277,29.616,29.616,0,0,1-1.251,11.081c-.511,1.634,2.043,2.349,2.553.715Z"/><path class="d" d="M109.223,129.163a8.349,8.349,0,0,0,8.808,2.119,67.835,67.835,0,0,0,13.506-5.234c1.557-.715.2-3.013-1.328-2.3a99.83,99.83,0,0,1-10.876,4.391c-2.706.894-6.23,1.711-8.221-.843-1.047-1.353-2.936.536-1.889,1.864Z"/><path class="d" d="M123.265,127.886c-2.094,15.957,20.425,19.455,31.148,22.6a1.328,1.328,0,0,0,.715-2.553,144.945,144.945,0,0,1-19.4-6.076c-5.566-2.553-10.647-7.353-9.778-13.966.2-1.685-2.553-1.66-2.553,0Z"/><path class="d" d="M134.678,142.107c-3.013,6.076-5.489,15.115,1.915,19.225,1.506.843,2.859-1.455,1.353-2.3-5.974-3.319-3.294-10.851-.945-15.574C137.741,141.928,135.443,140.575,134.678,142.107Z"/><path class="d" d="M140.269,219.263a19.021,19.021,0,0,1,2.4-14.246,18.663,18.663,0,0,1,5.106-5.54c1.966-1.4,4.34-1.915,6.306-3.268a5.489,5.489,0,0,0,2.272-4.391,29.516,29.516,0,0,1,1.123-7.659,21.7,21.7,0,0,1,10.366-12.178c1.532-.817.179-3.115-1.328-2.3a24.076,24.076,0,0,0-10.621,11.285,22.979,22.979,0,0,0-1.991,6.97,18.51,18.51,0,0,1-.536,4.774c-.766,1.762-2.553,2.043-4.136,2.808a21.855,21.855,0,0,0-11.54,24.433c.383,1.66,2.962.945,2.553-.715Z"/><path class="d" d="M55.633,197a11.387,11.387,0,0,0,16.391-3.6,1.333,1.333,0,0,0-2.3-1.353A8.732,8.732,0,0,1,56.96,194.6c-1.379-1.021-2.706,1.3-1.353,2.3Z"/><path class="d" d="M138.941,206.267a24.1,24.1,0,0,0-26.6-10.442,1.328,1.328,0,0,0,.715,2.553,21.37,21.37,0,0,1,23.642,9.242c.894,1.455,3.217,0,2.3-1.353Z"/><path class="d" d="M129.673,200.012a16.11,16.11,0,0,1,3.217-14.68c1.072-1.3-.791-3.191-1.889-1.864a18.817,18.817,0,0,0-3.881,17.259,1.328,1.328,0,0,0,2.553-.715Z"/><path class="c" d="M217.909,79.836a63.828,63.828,0,0,0,4.774,18.127,1.328,1.328,0,0,0,1.813.485c11.566-6.919,23.208-13.863,34.135-21.727a91.044,91.044,0,0,0,23.693-23.106c6.128-9.37,10.213-21.676,6.562-32.731C285.721,10.978,276.734,5.157,267.134,2.5,255.44-.843,242.675-.306,230.726,1.123a130.618,130.618,0,0,0-36.995,9.7c-19.2,8.451-36.433,25.327-33.676,47.9,1.2,9.983,6.51,19.659,15.855,24.1,12.766,6.1,27.625,1.532,40.263-2.808,1.608-.536.919-3.115-.715-2.553-10.774,3.677-22.978,7.659-34.416,4.468A25.812,25.812,0,0,1,163.4,62.373a36.305,36.305,0,0,1,3.7-26.246,55.5,55.5,0,0,1,22.978-20.68A114.891,114.891,0,0,1,223.041,4.953,116.015,116.015,0,0,1,259.423,3.5c9.242,1.353,19.353,4.8,24.612,13.1,6.357,10.085,3.217,23.182-2.349,32.859-5.847,10.213-14.961,18.153-24.382,24.97-10.953,7.864-22.6,14.808-34.135,21.727l1.813.485a60.688,60.688,0,0,1-4.417-16.8c-.179-1.685-2.834-1.711-2.553,0Z"/><path class="c" d="M209.765,34.008a110.475,110.475,0,0,1,27.191-7.327c1.685-.23.97-2.783-.715-2.553a108.815,108.815,0,0,0-27.165,7.3c-1.583.664-.894,3.242.689,2.553Z"/><path class="c" d="M198.021,57.854a148.235,148.235,0,0,1,63.088-16.57c1.711,0,1.711-2.732,0-2.553a150.813,150.813,0,0,0-64.518,16.825c-1.532.791-.179,3.089,1.328,2.3Z"/></g></g></svg>