<svg xmlns="http://www.w3.org/2000/svg" xmlns:xlink="http://www.w3.org/1999/xlink" width="290" height="290" viewBox="0 0 290 290"><defs><style>.a{fill:#fff;}.b{clip-path:url(#a);}.c{fill:#16ada3;}.d{fill:#093255;}.e{fill:#f5ae20;}.f{fill:#267cc0;}</style><clipPath id="a"><rect class="a" width="290" height="290" transform="translate(195 1447)"/></clipPath></defs><g transform="translate(-195 -1447)"><g class="b"><g transform="translate(250.8 1447)"><path class="c" d="M46.58,240.907h-.939v-.939c-.411-2.933-.821-5.866-1.173-8.154-1.643-10.912-2.317-15.4,1.027-20.533A44.5,44.5,0,0,1,58.284,199.2,41.681,41.681,0,0,0,71.6,186.173a14.461,14.461,0,0,0-.44-16.543c-4.371-5.368-12.5-6.952-21.5-4.136A69.722,69.722,0,0,0,37.927,170.3c-7.626,3.872-8.184,2.933-17.6-11.352l-2.933-4.928-.528-.821.733-.675c19.125-16.016,42.561-20.973,62.654-13.229,14.666,5.661,24.639,17.071,26.4,30.535,2.171,15.282-6.365,31.034-23.994,44.321-11.352,8.77-10.853,14.637-10.5,18.45a6.218,6.218,0,0,1-1,5.133C68.961,240.145,63.006,240.907,46.58,240.907Zm11.733-78.963a17.893,17.893,0,0,1,14.432,6.218,16.631,16.631,0,0,1,.587,18.978,43.265,43.265,0,0,1-13.933,13.7,42.649,42.649,0,0,0-12.261,11.469c-2.933,4.576-2.288,8.536-.7,19.183.323,2.141.7,4.547,1.056,7.245,14.256,0,20.533-.7,22.058-2.435.645-.7.587-1.672.44-3.491-.381-4.371-.939-10.97,11.469-20.327,16.983-12.789,25.226-27.69,23.2-42.356-1.789-12.672-11.176-23.466-25.167-28.8-19.125-7.3-41.359-2.7-59.779,12.32.968,1.5,1.877,2.933,2.669,4.136,4.429,6.864,6.893,10.648,8.8,11.88s2.552.469,5.866-1.261a69.225,69.225,0,0,1,11.938-4.957A31.8,31.8,0,0,1,58.313,161.944Z"/><path class="c" d="M56.846,285.316c-8.418,0-17.6-5.309-17.6-16.983s9.064-16.954,17.6-16.954a16.719,16.719,0,0,1,17.6,16.954,16.221,16.221,0,0,1-5.514,12.73,18.362,18.362,0,0,1-12.085,4.253Zm0-31.8a14.842,14.842,0,1,0,0,29.655,14.842,14.842,0,1,0,0-29.655Z"/><path class="c" d="M46.58,245.542H41.593l-.528-5.016c-.411-2.933-.792-5.485-1.144-7.773v-.323c-1.7-11.381-2.581-17.13,1.7-23.818l.968-1.467,1.76,1.261c-.323.44-.616.88-.909,1.349-3.843,6.042-2.933,11.5-1.379,22.351v.323c.352,2.288.733,4.869,1.144,7.8l.264,3.227H46.58c17.6,0,23.466-.88,26.4-3.96a6.6,6.6,0,0,0,1.731-4.371h2.141a8.8,8.8,0,0,1-2.288,5.72C71.19,244.6,65.441,245.542,46.58,245.542Z"/><path class="c" d="M71.307,178.928H69.166v-1.085a8.565,8.565,0,0,0-1.115-4.283,11.469,11.469,0,0,0-11.176-4.635l-.147-2.141a13.434,13.434,0,0,1,13.17,5.69,10.56,10.56,0,0,1,1.408,5.368A9.942,9.942,0,0,1,71.307,178.928Z"/><path class="c" d="M32.53,176.962c-5.866,0-8.565-4.224-15.84-15.488h0l-3.2-4.928-2.757-4.253,3.931-3.256a76.088,76.088,0,0,1,29.89-15.781l.528,2.083a73.947,73.947,0,0,0-29.039,15.341l-2.405,2.053,1.731,2.64,3.109,4.84-.88.675.88-.587c7.01,10.853,9.357,14.666,14.05,14.666a11.733,11.733,0,0,0,4.928-1.408L38.4,175.5A13.288,13.288,0,0,1,32.53,176.962Z"/><path class="c" d="M99.525,204.858l-1.643-1.379a45.553,45.553,0,0,0,11.733-28.892,36.724,36.724,0,0,0-.821-7.6l2.083-.469a37.34,37.34,0,0,1,.88,8.066A47.46,47.46,0,0,1,99.525,204.858Z"/><path class="c" d="M56.934,289.98h0a21.207,21.207,0,0,1-22.117-21.647,23.466,23.466,0,0,1,1.056-7.274l2.024.675a21.764,21.764,0,0,0-1.027,6.717,19.1,19.1,0,0,0,19.975,19.477Zm19.8-11.5-1.907-1a19.917,19.917,0,0,0,2.053-9.152,19.154,19.154,0,0,0-3.549-11.5l1.76-1.261a21.3,21.3,0,0,1,4.107,12.76,22.263,22.263,0,0,1-2.464,10.149Z"/><path class="d" d="M137.334,166.491H136.4v-.939c-.264-1.848-.5-3.432-.7-4.84-1-6.6-1.408-9.328.675-12.584a26.6,26.6,0,0,1,7.6-7.333,24.61,24.61,0,0,0,7.773-7.6,8.213,8.213,0,0,0-.205-9.357c-2.435-2.933-7.01-3.872-12.261-2.229a41.681,41.681,0,0,0-6.805,2.933c-4.9,2.493-5.456,1.613-10.941-6.893l-1.907-2.933-.528-.792.733-.616c11.5-9.621,25.578-12.584,37.663-7.949a23.906,23.906,0,0,1,16.045,18.479c1.291,9.269-3.843,18.773-14.432,26.751-6.629,4.987-6.336,8.213-6.16,10.56a4.077,4.077,0,0,1-.675,3.373C150.827,166.021,147.337,166.491,137.334,166.491Zm6.952-47.783a11.058,11.058,0,0,1,8.8,3.843,10.3,10.3,0,0,1,.411,11.733,26.047,26.047,0,0,1-8.418,8.3,24.551,24.551,0,0,0-7.128,6.688c-1.643,2.552-1.291,4.869-.381,11.088.176,1.173.381,2.464.587,3.931,5.69,0,11.381-.205,12.378-1.32.264-.264.235-.792,0-1.731-.205-2.523-.557-6.746,7.01-12.466,9.944-7.48,14.666-16.279,13.581-24.7A21.765,21.765,0,0,0,156.459,107.3c-10.853-4.253-23.759-1.7-34.495,7.1l1.349,2.112a34.641,34.641,0,0,0,5.045,6.952c.616.411,1.085.235,3.139-.792a38.485,38.485,0,0,1,7.157-2.933,18.919,18.919,0,0,1,5.632-1.027Z"/><path class="d" d="M143.406,192.861a10.53,10.53,0,1,1,10.882-10.53,10.325,10.325,0,0,1-10.882,10.53Zm0-18.89a8.389,8.389,0,1,0,8.8,8.36,8.154,8.154,0,0,0-8.8-8.36Z"/><path class="d" d="M137.334,171.125h-4.987l-.675-4.957-.7-4.693c-1.027-6.952-1.672-11.117,1.349-15.84a30.623,30.623,0,0,1,8.8-8.565l1.027-.733,1.261,1.731-1.056.733a29.333,29.333,0,0,0-8.36,8.008c-2.581,4.019-2.053,7.45-1.027,14.256.205,1.467.44,2.933.675,4.811l.44,3.109h3.109c10,0,14.666-.411,16.749-2.933a6.453,6.453,0,0,0,1.525-5.192c-.176-2.229,0-4.4,4.84-8.1l1.32,1.7c-4.253,3.285-4.136,4.781-4.019,6.218a8.389,8.389,0,0,1-1.907,6.922C152.939,170.6,148.481,171.125,137.334,171.125Z"/><path class="d" d="M150.387,130.148l-2.083-.587a4.575,4.575,0,0,0,0-1.056,2.933,2.933,0,0,0-.352-1.408,2.435,2.435,0,0,0-.763-.792l1.261-1.76a4.81,4.81,0,0,1,1.995,3.96,6.454,6.454,0,0,1-.059,1.643Z"/><path class="d" d="M129.063,130.383c-4.752,0-6.805-3.227-11.352-10.266l-4.664-7.157,3.9-3.285a44.468,44.468,0,0,1,31.679-11.058l-.176,2.171a41.975,41.975,0,0,0-30.212,10.677l-2.435,2.024,3.608,5.573c4.371,6.746,5.866,9.3,9.562,9.3a9.973,9.973,0,0,0,4.605-1.525A39.423,39.423,0,0,1,140,124.164a16.075,16.075,0,0,1,3.08-.645l.205,2.141a13.756,13.756,0,0,0-2.493.469,35.492,35.492,0,0,0-6.072,2.552A12.231,12.231,0,0,1,129.063,130.383Z"/><path class="d" d="M174.675,140.209l-1.877-1.056a25.431,25.431,0,0,0,3.461-12.466,22.879,22.879,0,0,0-.587-5.1l2.083-.5a24.141,24.141,0,0,1,.645,5.6A27.69,27.69,0,0,1,174.675,140.209Z"/><path class="d" d="M143.406,197.524a14.939,14.939,0,1,1,13.4-7.216l-1.848-1.144a14.024,14.024,0,1,0-11.557,6.189Z"/><path class="e" d="M78.318,109.791h-.939l-.147-.939c-.411-3.139-.821-5.866-1.2-8.33C74.358,89.405,73.683,84.8,77.086,79.462a45.905,45.905,0,0,1,13.053-12.32,42.8,42.8,0,0,0,13.61-13.288,14.871,14.871,0,0,0-.44-16.925c-4.371-5.456-12.554-7.01-21.882-4.107a72.04,72.04,0,0,0-11.733,4.9c-7.773,3.96-8.33,3.08-17.8-11.586q-1.437-2.288-3.256-5.016l-.528-.821.733-.616C68.374,3.344,92.28-1.7,112.783,6.189c14.9,5.778,25.079,17.277,26.956,31.151,2.171,15.6-6.512,31.65-24.493,45.2-11.733,8.8-11.2,14.842-10.882,18.831a6.336,6.336,0,0,1-1,5.221C101.138,109,95.037,109.791,78.318,109.791ZM90.256,29.332a18.186,18.186,0,0,1,14.666,6.336A16.925,16.925,0,0,1,105.6,54.91,44.292,44.292,0,0,1,91.341,68.9,42.767,42.767,0,0,0,78.875,80.635c-2.933,4.664-2.376,8.8-.733,19.565.323,2.2.7,4.664,1.085,7.45,14.666,0,20.914-.763,22.527-2.523.645-.7.616-1.731.44-3.579-.381-4.459-.939-11.176,11.733-20.709,17.335-13.082,25.754-28.423,23.671-43.207C135.78,24.7,126.188,13.669,111.9,8.3,92.368.792,69.606,5.368,50.862,20.855l2.728,4.224c4.517,7.01,7.01,10.882,8.8,12.144,1.437,1,2.611.5,6.13-1.291a69.106,69.106,0,0,1,12.173-5.045,32.266,32.266,0,0,1,9.562-1.555Z"/><path class="e" d="M88.76,155.139c-8.565,0-17.8-5.426-17.8-17.335s9.24-17.277,17.8-17.277a17.306,17.306,0,1,1,0,34.612Zm0-32.442a15.165,15.165,0,1,0,0,30.3,14.842,14.842,0,0,0,15.752-15.136c0-10.442-8.154-15.165-15.752-15.165Z"/><path class="e" d="M78.318,114.778H73.008l-.7-5.251c-.411-3.109-.821-5.866-1.2-8.272-1.76-11.733-2.64-17.6,1.76-24.463a4.782,4.782,0,0,0,.469-.528l1.819,1.2-.323.44c-3.96,6.248-3.109,11.733-1.437,23.026.352,2.405.763,5.133,1.2,8.272l.469,3.373h3.256c18.1,0,24.2-.909,27.132-4.107a6.453,6.453,0,0,0,1.7-3.432l2.112.411a8.8,8.8,0,0,1-2.229,4.488C103.573,113.751,97.384,114.778,78.318,114.778Z"/><path class="e" d="M103.279,46.727l-2.141-.264V45.289a8.36,8.36,0,0,0-1.056-4.224c-1.965-3.432-6.424-5.133-11.938-4.576L88,34.319c6.394-.645,11.586,1.467,14.021,5.632a10.736,10.736,0,0,1,1.379,5.339A11.731,11.731,0,0,1,103.279,46.727Z"/><path class="e" d="M63.945,44.761c-6.072,0-8.8-4.341-16.338-15.928q-1.5-2.229-3.256-5.016L41.417,19.33l4.107-3.461A78.464,78.464,0,0,1,75.032,0l.557,2.083A76.44,76.44,0,0,0,46.932,17.6l-2.64,2.229,1.877,2.933,3.256,5.045c7.216,11.146,9.65,14.9,14.666,14.9a9.944,9.944,0,0,0,3.989-.909l.821,1.965A11.968,11.968,0,0,1,63.945,44.761Z"/><path class="e" d="M132.2,73.536l-1.643-1.408a46.932,46.932,0,0,0,12.378-30.007,35.508,35.508,0,0,0-.881-7.868l2.113-.463a38.131,38.131,0,0,1,.909,8.33A49.132,49.132,0,0,1,132.2,73.536Z"/><path class="e" d="M88.877,160.126h0c-11.322,0-22.791-7.656-22.791-22.322a23.7,23.7,0,0,1,1.2-7.6l2.024.675a22.087,22.087,0,0,0-1.173,6.981,19.77,19.77,0,0,0,20.533,20.151Zm20.533-11.733-1.936-.968a21.061,21.061,0,0,0,2.024-9.562,19.741,19.741,0,0,0-3.608-11.733l1.731-1.261a21.97,21.97,0,0,1,4.019,12.994,23.173,23.173,0,0,1-2.347,10.413Z"/><path class="f" d="M22.879,96.152h-.939v-.939c-.235-1.7-.469-3.168-.645-4.459-.909-5.866-1.291-8.8.616-11.733a25.079,25.079,0,0,1,7.157-6.746,22.146,22.146,0,0,0,7.186-7.01,7.509,7.509,0,0,0-.176-8.565c-2.229-2.757-6.424-3.52-11.264-2.024a35.522,35.522,0,0,0-6.277,2.611C13.933,59.6,13.4,58.782,8.3,50.862l-1.76-2.7-.675-.792.733-.587c10.648-8.8,23.7-11.733,34.906-7.362A22.146,22.146,0,0,1,56.377,56.582C57.58,65.177,52.828,73.976,43,81.4c-6.072,4.576-5.866,7.509-5.632,9.68a3.9,3.9,0,0,1-.675,3.2C35.4,95.712,32.266,96.152,22.879,96.152ZM29.332,51.8a10.266,10.266,0,0,1,8.3,3.608,9.592,9.592,0,0,1,.5,10.97,24.9,24.9,0,0,1-7.8,7.685,22.762,22.762,0,0,0-6.6,6.16c-1.5,2.347-1.173,4.488-.323,10.208.176,1.056.352,2.229.528,3.579,5.1-.147,10.325-.147,11.264-1.2.205-.235.176-.7,0-1.555-.176-2.347-.528-6.277,6.512-11.586,9.181-6.922,13.64-15.018,12.554-22.791A20.181,20.181,0,0,0,40.743,41.417C30.564,37.487,18.655,39.892,8.8,47.812l1.232,1.907a30.506,30.506,0,0,0,4.635,6.394c.5.352.851.264,2.933-.733a41.945,41.945,0,0,1,6.629-2.757,18.069,18.069,0,0,1,5.1-.821Z"/><path class="f" d="M22.879,100.64h-4.84l-.645-4.811c-.235-1.643-.44-3.109-.645-4.371-.968-6.482-1.555-10.354,1.291-14.813a29.333,29.333,0,0,1,8.36-8.008c1.027-.7,1.995-1.408,2.933-2.141l1.379,1.672c-.939.763-1.936,1.5-2.933,2.229A26.781,26.781,0,0,0,20,77.819c-2.405,3.755-1.936,6.952-.968,13.258.176,1.349.411,2.787.645,4.459l.381,2.933H23c9.269,0,13.493-.352,15.576-2.64a6.1,6.1,0,0,0,1.173-4.9c-.205-2.171,0-4.107,4.723-7.626l1.7-1.32,1.349,1.643c-.557.469-1.144.939-1.76,1.379-4.107,3.109-3.989,4.4-3.872,5.866a8.154,8.154,0,0,1-1.848,6.6C37.428,100.112,33.292,100.64,22.879,100.64Z"/><path class="f" d="M34.818,62.537l-2.053-.587a4.312,4.312,0,0,0,.147-1,2.171,2.171,0,0,0-.293-1.173l1.76-1.261a1.262,1.262,0,0,1,0,.205,4.371,4.371,0,0,1,.587,2.229,5.133,5.133,0,0,1-.147,1.584Z"/><path class="f" d="M15.165,62.947c-4.547,0-6.482-2.933-10.736-9.621v-.205L2.816,50.628,0,46.492l3.784-3.139A41.652,41.652,0,0,1,30.652,32.97a37.955,37.955,0,0,1,5.192.352l-.293,2.141a34.085,34.085,0,0,0-4.9-.264,39.511,39.511,0,0,0-25.49,9.885L2.933,46.932l1.643,2.523c.587.909,1.144,1.731,1.613,2.493v.205c4.312,6.688,5.69,8.624,8.8,8.624A9.474,9.474,0,0,0,19.3,59.369,34.083,34.083,0,0,1,25.167,56.9a11.528,11.528,0,0,1,5.6-.469l-.411,2.083a9.8,9.8,0,0,0-4.547.44,34.2,34.2,0,0,0-5.28,2.347,11.528,11.528,0,0,1-5.368,1.643Z"/><path class="f" d="M58.284,70.691l-1.907-.968a23.143,23.143,0,0,0,2.611-10.472A21.677,21.677,0,0,0,58.43,54.5l2.083-.5a22.732,22.732,0,0,1,.616,5.251,25.079,25.079,0,0,1-2.845,11.44Z"/><path class="f" d="M28.511,132a14.285,14.285,0,1,1,0-28.57,14.138,14.138,0,0,1,14.666,14.256,13.728,13.728,0,0,1-5.514,11.381l-1.291-1.731a11.44,11.44,0,0,0,4.693-9.65A12.056,12.056,0,0,0,28.511,105.6a12.144,12.144,0,0,0,0,24.287Z"/><path class="f" d="M28.511,127.508a9.826,9.826,0,1,1,0-19.623,9.826,9.826,0,1,1,0,19.623Zm0-17.453a7.656,7.656,0,1,0,0,15.312,7.509,7.509,0,0,0,7.978-7.685,7.362,7.362,0,0,0-2.435-5.72,8.594,8.594,0,0,0-5.544-1.907Z"/></g></g></g></svg>