<svg id="圖層_1" data-name="圖層 1" xmlns="http://www.w3.org/2000/svg" viewBox="0 0 287.53 40.05"><defs><style>.cls-1{fill:#e60012;}.cls-2{fill:#004098;}</style></defs><path class="cls-1" d="M17.17,20.19C15,28.09,22,36.6,30.33,36.5c2.38,0,3.57,0,3.57,0l-2.37,9.92C14.15,46.11,8.46,34.88,7.34,30.23,1.82,7.54,17.62,6.69,20.09,6.47s8.53,0,8.53,0l3.46,9.62H27.54c-4.75,0-9.19-.23-10.37,4.1" transform="translate(-6.18 -6.37)"/><path class="cls-1" d="M60.92,45.53H55.41c-1.72,0-6.63.13-10-1a16.42,16.42,0,0,1-7.91-6.12,21,21,0,0,1-2.61-13.73c1.5-9.16,8.52-8.23,10.1-8.23h16Zm-14-21.22c-1.21,0-2.74.49-2.65,3.88.14,6.41,3.31,8.35,7,9.32V24.31Z" transform="translate(-6.18 -6.37)"/><path class="cls-1" d="M72.59,17.34c1.52-.89,4.45-1.06,6.06-1.06v8.28c-2-.38-6.15,1-6.15,3.56V45.61H63.19V16.36h9.4Z" transform="translate(-6.18 -6.37)"/><path class="cls-1" d="M105.62,37.87s-2.1,5.5-3,8.08c-6.89-.42-12-.12-16.74-4.63A20.1,20.1,0,0,1,80.53,24c.4-2.58,3.4-7.49,8.63-8.21,7.74-1.08,18.2-1.08,18.2,7.83,0,4-.88,9-10.77,13.44.56.5,5.85,1.14,9,.77m-15.16-7c7-3,8.19-7.25,4.51-7.45-3.2-.18-5.22.85-4.82,5.23a13.54,13.54,0,0,0,.31,2.22" transform="translate(-6.18 -6.37)"/><path class="cls-1" d="M134.3,37.84s-2.12,5.51-3,8.1c-6.92-.44-12-.13-16.74-4.65A20.07,20.07,0,0,1,109.18,24c.41-2.57,3.42-7.48,8.63-8.21,7.77-1.08,18.2-1.08,18.2,7.83,0,4-.88,9-10.77,13.45.57.49,5.85,1.13,9.06.76m-15.16-7c7-3,8.17-7.24,4.49-7.44-3.18-.17-5.23.85-4.83,5.23a10,10,0,0,0,.34,2.21" transform="translate(-6.18 -6.37)"/><path class="cls-1" d="M147.21,17.23c1.55-.89,4.46-1.05,6.07-1.05v8.27c-1.93-.38-6.15,1.05-6.15,3.55V45.5h-9.31V16.26h9.39Z" transform="translate(-6.18 -6.37)"/><path class="cls-2" d="M172.73,29h-5.64V26.35h5.64Zm7.62-14.45a2.21,2.21,0,0,0,.13,1.08v8.52l-3-.05-.12.11V28l.12.15h.58l.08-.07,2-.08v.65a20,20,0,0,1-2.6,8.1,14.63,14.63,0,0,1-1.38-2.58l-.6-1H175a8.15,8.15,0,0,0-2.42,1.08v.35a11.65,11.65,0,0,0,2,4.26h.33l1.58-.54v.2a13.3,13.3,0,0,1-3.77,3.54v.38l2.7,3.2h.4l.59-.43a34.08,34.08,0,0,0,6-8.07v6.57c0,.88.7,1.38,2,1.5h2.76c3.35-.17,5.1-1.58,5.28-4.22V39l-2.55-1.42h-.33l-.07.08c-.13,1.83-.81,2.87-2,3.15H187a.71.71,0,0,1-.45-.61V28h1.3l4.19.08.12-.12V24.07l-.12-.15h-.3l-1.51.2h-5.37V15.26l.11-.39v-.35l-.11-.07h-4.33Zm-12.6.19v3h-6.22l-.14.15v3.71l.14.15a2.44,2.44,0,0,0,1.19-.15h15.46l.12-.08V17.68l-.12-.11a2.48,2.48,0,0,0-1.13.11h-5V15.33l.14-.34v-.28l-.14-.1H167.9Zm8,8.06H162.89l-.13.12v9.54l.13.15H168v8.2l-.13.28a2.53,2.53,0,0,1-1.71.26c-.59,0-.88,0-.82.16v.19l.35.62.92,2.54c.08.82.24,1.19.45,1.11h1c2.55-.56,4-1.75,4.2-3.54a9.12,9.12,0,0,0-.1-2.32v-7.5h4.69l.13-.15V22.77l-.13-.15h-.58Zm-14,16.2v.5l2.84,1.31h.67a23.48,23.48,0,0,0,2-5.77v-.5l-.15-.12-2.68-.76h-.64A28.87,28.87,0,0,1,161.78,39" transform="translate(-6.18 -6.37)"/><path class="cls-2" d="M212.36,25.92h-3.68l-.17-.2L208,24.34v-.16h4.89c-.15,1-.34,1.61-.56,1.74M205,14.48v.32l.11.26V20.5h-3v-.2l.21-.16A8.07,8.07,0,0,0,204.54,19v-.51a22.21,22.21,0,0,0-2.27-3.68h-.65c-2.41.8-3.6,1.3-3.56,1.45v.2l.92,1.23a10.78,10.78,0,0,1,1.31,2.62v.2H200l-4.67,0-.13.1v3.7l.13.12h.21l1.85-.2h6l.53,1.71V26h-1l-5.34-.08-.13.15v3.27l.13.17h.47c.69,0,.92,0,.7-.08h9.53v.92h-4.47l-4.45-.08-.13.12v3.5l.13.12h.15c.69,0,.91,0,.7,0h8.07v.88h-7.28L196,34.77l-.15.16v3.35l.15.11a7.56,7.56,0,0,0,1.73-.11h6v.11l-.33.28a22.64,22.64,0,0,1-8.32,3.18v.28l.53.66,1.25,2q.47,1,.63,1h.28l.2-.07a28.26,28.26,0,0,0,10.35-5.28v5.51l.15.11h4.33l.08-.11,0-5.43,1,.7a26.94,26.94,0,0,0,9.83,4.5h.44l.41-.23,1.7-3.67v-.34l-.19-.15c-4.17-.36-7.13-1.37-8.86-3h8.07l.13-.13V34.77l-.13-.11-2.58.19h-9.82V34h8.92l.13-.15V30.35l-.13-.15a2.93,2.93,0,0,0-1.3.15h-7.62v-.92h10.42l.15-.12V26l-.15-.11h0l-1.32.11H217.2v-.11l.06-.17a3.25,3.25,0,0,1,.55-1.54h3.79l4,.08.2-.15V20.5l-.2-.13a2.39,2.39,0,0,0-1.19.13h-4.1l.2-.29,2.13-3.76V16.1a17.06,17.06,0,0,0-3.91-1.39h-.51l-.15.43a22.17,22.17,0,0,1-2,3.93v.39l.87.26c1.21.24,1.79.42,1.76.58v.07l-.13.13h-3V19.18c-.06-3.13,0-4.7.2-4.7l-.2-.11h-4l-.12.11v6h-2.16V17.94l.08-3.34c.21-.08-.2-.15-1.26-.23h-3Z" transform="translate(-6.18 -6.37)"/><path class="cls-2" d="M246.83,14.52V15l0,0,.07,1.8h-7l-.12.12v3.28l.12.11h.48c.69,0,.92,0,.7-.09H247v1h-5.76l-.15.11v3.2l.15.11H247V25.7h-4.39a8.17,8.17,0,0,1-2.63-.13v-.16c.56-.12.79-.25.75-.38V24.5c-.64-2.91-1.05-4.44-1.3-4.63h-.82l-2,.43V14.87l-.13-.16c-.67,0-.94,0-.75-.11l-3-.08-.13.19a3.54,3.54,0,0,0,.13,1.39V45.71l.14.15h3.7l.1-.15a14.1,14.1,0,0,0-.1-2.67V23.53l.1,0c.08,1.41.25,2.2.47,2.35h.47l1.39-.35h.17v3.51l.15.15h.23c.7,0,1,0,.75-.07H259l.13-.13V25.7l-.13-.13a2.93,2.93,0,0,0-1.33.13H251V24.61h6l.14-.11V21.3l-.14-.11h-6v-1h7.22l.12-.07v-3.3l-.12-.12h-.35c-.72,0-.95,0-.71.07h-6.08c-.09.26-.11-.09-.08-1s0-1.33-.27-1.23l-2.08-.07H247Zm-18.22,6.2a35.34,35.34,0,0,1-.71,9.05l.06.08a9.32,9.32,0,0,1,3,.81h.5l.28-.27a34.65,34.65,0,0,0,.7-9.55l-.08-.08a22.22,22.22,0,0,0-3.66-.2Zm12.5,9.35-.12.13V45.67l.12.11h3.56l.13-.11V33.41h8.52v7.14c-.58.92-1.23,1.23-2,.92q-.9-.07-.75.12v.5l0,0,.6,1.76c.28,1.37.53,2,.78,1.89h2.31l.2-.07c1.66-.73,2.53-1.66,2.62-2.82V30.11L257,30h-.68c-.72-.06-1,0-.7.06Z" transform="translate(-6.18 -6.37)"/><path class="cls-2" d="M270.82,29.85h-1.44l-.14-.27L268.92,27h2.43a6.82,6.82,0,0,1-.53,2.89m-3-15.2V15l.08.08.07,2.28h-4.59l-.15.15a13.11,13.11,0,0,1,.15,2.74c-.06.66,0,1,.13.88h4.46v2.08h-5.31l-.13.11v3.5l.13.12h1.78l.65.08a8.69,8.69,0,0,0,.47,2.54v.27H262.7l-.12.12v3.35l.12.12h.13l1.13-.12h4.45v2.34h-1l-3.51-.06-.12.15V39l.12.15h4.53v6.74l.13.11,3.79-.07.15-.13v-.19l-.15-1.5v-5h4.33l.13-.15V35.79l-.13-.13h-4.33V33.32h5l.15-.12V30l-.15-.12h-1.73c-.68,0-.91,0-.75,0v-.09l.07-.07.47-2.58c-.27-.1.09-.14,1-.12.66.05.94,0,.85-.12V23.23l-.1-.15h-.6l-.08.07-4.59.08V21.15h4.32l.15-.15V17.38l-.15-.08h-.84l-3.48.08V15.64l.13-.43v-.45l-.13-.11-3.93-.15ZM290,15H277.7l-.14.15v.11a2.44,2.44,0,0,0,.2,1.28V45.67l.13.15h3.81l.13-.15V42.48c0-.08.18.1.55.54a12.05,12.05,0,0,1,1.35,2.11h.35a16.52,16.52,0,0,0,3.38-2.58h.08A22,22,0,0,0,291,45.37h.37a14.49,14.49,0,0,1,2.39-3.73v-.2a14.17,14.17,0,0,1-3.89-2.5l.13-.2c1.65-4.31,2.36-8,2.18-10.92-.49-.7-.81-1-.93-.86a5,5,0,0,0-1.33.12h-8V18.87h5.63V21c0,.77-.26,1.18-.62,1.23l-2.18,0c-.62,0-.87,0-.78.14v.35l.9,1.74c.37,1.17.6,1.74.74,1.69h1.24a5.74,5.74,0,0,0,1.88-.39c1.92-.64,2.88-1.74,2.88-3.32V15l-.12-.1h-.78Zm-2.89,19.67-1-1.77a8.78,8.78,0,0,0-.57-2h-1.06l-.16.07c-1.5.38-2.26.67-2.2.84v.48l.13.4a28.54,28.54,0,0,0,2.36,6.48v.26A7.6,7.6,0,0,1,282,41.51h-.19V30.77h6c-.18,2.11-.44,3.4-.81,3.85" transform="translate(-6.18 -6.37)"/><path class="cls-2" d="M188.74,23.25a3.3,3.3,0,0,0,3.06-3.49,3.07,3.07,0,1,0-6.09,0,3.29,3.29,0,0,0,3,3.49" transform="translate(-6.18 -6.37)"/><path class="cls-2" d="M249.16,41.21a3.29,3.29,0,0,0,3.06-3.5,3.07,3.07,0,1,0-6.08,0,3.3,3.3,0,0,0,3,3.5" transform="translate(-6.18 -6.37)"/></svg>